<svg width="14" height="14" viewBox="0 0 14 14" fill="none" xmlns="http://www.w3.org/2000/svg">
<circle cx="7" cy="7" r="7" fill="#404040"/>
<mask id="mask0_51_235" style="mask-type:alpha" maskUnits="userSpaceOnUse" x="2" y="2" width="10" height="10">
<rect x="2.33398" y="2.3335" width="9.33333" height="9.33333" fill="#D9D9D9"/>
</mask>
<g mask="url(#mask0_51_235)">
<path d="M8.62339 7.38909H4.27756C4.16738 7.38909 4.07501 7.35183 4.00048 7.27729C3.92594 7.20275 3.88867 7.11039 3.88867 7.0002C3.88867 6.89002 3.92594 6.79766 4.00048 6.72312C4.07501 6.64858 4.16738 6.61132 4.27756 6.61132H8.62339L6.71784 4.70576C6.64006 4.62798 6.60279 4.53724 6.60603 4.43354C6.60927 4.32983 6.64978 4.23909 6.72756 4.16132C6.80534 4.09002 6.89608 4.05275 6.99978 4.04951C7.10349 4.04627 7.19423 4.08354 7.272 4.16132L9.83867 6.72798C9.87756 6.76687 9.90511 6.809 9.92131 6.85437C9.93751 6.89974 9.94562 6.94835 9.94562 7.0002C9.94562 7.05206 9.93751 7.10067 9.92131 7.14604C9.90511 7.19141 9.87756 7.23354 9.83867 7.27243L7.272 9.83909C7.20071 9.91039 7.11159 9.94604 7.00464 9.94604C6.8977 9.94604 6.80534 9.91039 6.72756 9.83909C6.64978 9.76132 6.61089 9.66895 6.61089 9.56201C6.61089 9.45507 6.64978 9.3627 6.72756 9.28493L8.62339 7.38909Z" fill="white"/>
</g>
</svg>
