<svg width="24" height="24" viewBox="0 0 24 24" fill="none" xmlns="http://www.w3.org/2000/svg">
<mask id="mask0_51_496" style="mask-type:alpha" maskUnits="userSpaceOnUse" x="0" y="0" width="24" height="24">
<rect width="24" height="24" fill="#111111"/>
</mask>
<g mask="url(#mask0_51_496)">
<path d="M13.775 14.475L10.15 10.85C10.1 10.8 10.0625 10.7458 10.0375 10.6875C10.0125 10.6292 10 10.5667 10 10.5C10 10.3667 10.0458 10.25 10.1375 10.15C10.2292 10.05 10.35 10 10.5 10L18.1 10C18.25 10 18.3708 10.05 18.4625 10.15C18.5542 10.25 18.6 10.3667 18.6 10.5C18.6 10.5333 18.55 10.65 18.45 10.85L14.825 14.475C14.7417 14.5583 14.6583 14.6167 14.575 14.65C14.4917 14.6833 14.4 14.7 14.3 14.7C14.2 14.7 14.1083 14.6833 14.025 14.65C13.9417 14.6167 13.8583 14.5583 13.775 14.475Z" fill="#111111"/>
</g>
</svg>
