<svg width="14" height="14" viewBox="0 0 14 14" fill="none" xmlns="http://www.w3.org/2000/svg">
<mask id="path-1-inside-1_51_255" fill="white">
<path d="M10.4798 7.83342H1.16732C0.931207 7.83342 0.73329 7.75356 0.573568 7.59384C0.413845 7.43412 0.333984 7.2362 0.333984 7.00009C0.333984 6.76398 0.413845 6.56606 0.573568 6.40634C0.73329 6.24662 0.931207 6.16676 1.16732 6.16676H10.4798L6.39648 2.08342C6.22982 1.91676 6.14996 1.72231 6.1569 1.50009C6.16385 1.27787 6.25065 1.08342 6.41732 0.916758C6.58398 0.76398 6.77843 0.684119 7.00065 0.677174C7.22287 0.67023 7.41732 0.750091 7.58398 0.916758L13.084 6.41676C13.1673 6.50009 13.2263 6.59037 13.2611 6.68759C13.2958 6.78481 13.3132 6.88898 13.3132 7.00009C13.3132 7.1112 13.2958 7.21537 13.2611 7.31259C13.2263 7.40981 13.1673 7.50009 13.084 7.58342L7.58398 13.0834C7.43121 13.2362 7.24023 13.3126 7.01107 13.3126C6.7819 13.3126 6.58398 13.2362 6.41732 13.0834C6.25065 12.9168 6.16732 12.7188 6.16732 12.4897C6.16732 12.2605 6.25065 12.0626 6.41732 11.8959L10.4798 7.83342Z"/>
</mask>
<path d="M10.4798 7.83342H1.16732C0.931207 7.83342 0.73329 7.75356 0.573568 7.59384C0.413845 7.43412 0.333984 7.2362 0.333984 7.00009C0.333984 6.76398 0.413845 6.56606 0.573568 6.40634C0.73329 6.24662 0.931207 6.16676 1.16732 6.16676H10.4798L6.39648 2.08342C6.22982 1.91676 6.14996 1.72231 6.1569 1.50009C6.16385 1.27787 6.25065 1.08342 6.41732 0.916758C6.58398 0.76398 6.77843 0.684119 7.00065 0.677174C7.22287 0.67023 7.41732 0.750091 7.58398 0.916758L13.084 6.41676C13.1673 6.50009 13.2263 6.59037 13.2611 6.68759C13.2958 6.78481 13.3132 6.88898 13.3132 7.00009C13.3132 7.1112 13.2958 7.21537 13.2611 7.31259C13.2263 7.40981 13.1673 7.50009 13.084 7.58342L7.58398 13.0834C7.43121 13.2362 7.24023 13.3126 7.01107 13.3126C6.7819 13.3126 6.58398 13.2362 6.41732 13.0834C6.25065 12.9168 6.16732 12.7188 6.16732 12.4897C6.16732 12.2605 6.25065 12.0626 6.41732 11.8959L10.4798 7.83342Z" fill="white" fill-opacity="0.5"/>
<path d="M10.4798 7.83342L11.894 9.24764L15.3082 5.83342L10.4798 5.83342V7.83342ZM10.4798 6.16676V8.16676H15.3082L11.894 4.75254L10.4798 6.16676ZM6.39648 2.08342L7.8107 0.669211L6.39648 2.08342ZM6.41732 0.916758L5.06587 -0.55755L5.03383 -0.528185L5.0031 -0.497456L6.41732 0.916758ZM7.58398 0.916758L6.16977 2.33097L6.16977 2.33097L7.58398 0.916758ZM13.084 6.41676L14.4982 5.00254L14.4982 5.00254L13.084 6.41676ZM13.084 7.58342L14.4982 8.99764L14.4982 8.99764L13.084 7.58342ZM7.58398 13.0834L6.16977 11.6692L6.16977 11.6692L7.58398 13.0834ZM6.41732 13.0834L5.0031 14.4976L5.03383 14.5284L5.06587 14.5577L6.41732 13.0834ZM6.41732 11.8959L7.83153 13.3101L7.83153 13.3101L6.41732 11.8959ZM10.4798 7.83342V5.83342H1.16732V7.83342V9.83342H10.4798V7.83342ZM1.16732 7.83342V5.83342C1.27844 5.83342 1.42724 5.85308 1.59019 5.91883C1.75489 5.98529 1.88883 6.08068 1.98778 6.17963L0.573568 7.59384L-0.840646 9.00805C-0.28734 9.56136 0.427538 9.83342 1.16732 9.83342V7.83342ZM0.573568 7.59384L1.98778 6.17963C2.08673 6.27858 2.18212 6.41252 2.24858 6.57722C2.31433 6.74017 2.33398 6.88897 2.33398 7.00009H0.333984H-1.66602C-1.66602 7.73987 -1.39395 8.45475 -0.840646 9.00805L0.573568 7.59384ZM0.333984 7.00009H2.33398C2.33398 7.11122 2.31433 7.26002 2.24858 7.42296C2.18212 7.58766 2.08673 7.72161 1.98778 7.82055L0.573568 6.40634L-0.840646 4.99213C-1.39395 5.54543 -1.66602 6.26031 -1.66602 7.00009H0.333984ZM0.573568 6.40634L1.98778 7.82055C1.88883 7.9195 1.75489 8.0149 1.59018 8.08135C1.42724 8.1471 1.27844 8.16676 1.16732 8.16676V6.16676V4.16676C0.427541 4.16676 -0.287338 4.43882 -0.840646 4.99213L0.573568 6.40634ZM1.16732 6.16676V8.16676H10.4798V6.16676V4.16676H1.16732V6.16676ZM10.4798 6.16676L11.894 4.75254L7.8107 0.669211L6.39648 2.08342L4.98227 3.49764L9.0656 7.58097L10.4798 6.16676ZM6.39648 2.08342L7.8107 0.669211C7.89183 0.750345 7.98951 0.877151 8.06163 1.05275C8.13483 1.23098 8.16073 1.40869 8.15593 1.56256L6.1569 1.50009L4.15788 1.43762C4.13256 2.24783 4.45152 2.96689 4.98227 3.49764L6.39648 2.08342ZM6.1569 1.50009L8.15593 1.56256C8.15164 1.69958 8.12069 1.85236 8.05349 2.00289C7.98718 2.15143 7.90255 2.25995 7.83153 2.33097L6.41732 0.916758L5.0031 -0.497456C4.50044 0.00520786 4.18173 0.674172 4.15788 1.43762L6.1569 1.50009ZM6.41732 0.916758L7.76877 2.39107C7.69172 2.46169 7.58449 2.53625 7.44799 2.59232C7.311 2.64858 7.17756 2.67262 7.06312 2.6762L7.00065 0.677174L6.93818 -1.32185C6.22852 -1.29967 5.57897 -1.02789 5.06587 -0.55755L6.41732 0.916758ZM7.00065 0.677174L7.06312 2.6762C6.90925 2.68101 6.73154 2.6551 6.55331 2.5819C6.37771 2.50978 6.2509 2.41211 6.16977 2.33097L7.58398 0.916758L8.9982 -0.497456C8.46745 -1.0282 7.74839 -1.34717 6.93818 -1.32185L7.00065 0.677174ZM7.58398 0.916758L6.16977 2.33097L11.6698 7.83097L13.084 6.41676L14.4982 5.00254L8.9982 -0.497456L7.58398 0.916758ZM13.084 6.41676L11.6698 7.83097C11.5734 7.73458 11.4557 7.5789 11.3776 7.36026L13.2611 6.68759L15.1446 6.01492C14.997 5.60183 14.7613 5.2656 14.4982 5.00254L13.084 6.41676ZM13.2611 6.68759L11.3776 7.36026C11.3295 7.22567 11.3132 7.10068 11.3132 7.00009H13.3132H15.3132C15.3132 6.67728 15.2621 6.34395 15.1446 6.01492L13.2611 6.68759ZM13.3132 7.00009H11.3132C11.3132 6.8995 11.3295 6.77451 11.3776 6.63992L13.2611 7.31259L15.1446 7.98526C15.2621 7.65623 15.3132 7.32291 15.3132 7.00009H13.3132ZM13.2611 7.31259L11.3776 6.63992C11.4557 6.42128 11.5734 6.2656 11.6698 6.16921L13.084 7.58342L14.4982 8.99764C14.7613 8.73458 14.997 8.39835 15.1446 7.98526L13.2611 7.31259ZM13.084 7.58342L11.6698 6.16921L6.16977 11.6692L7.58398 13.0834L8.9982 14.4976L14.4982 8.99764L13.084 7.58342ZM7.58398 13.0834L6.16977 11.6692C6.27506 11.5639 6.41479 11.4658 6.58339 11.3983C6.74966 11.3318 6.90021 11.3126 7.01107 11.3126V13.3126V15.3126C7.73496 15.3126 8.44583 15.05 8.9982 14.4976L7.58398 13.0834ZM7.01107 13.3126V11.3126C7.12288 11.3126 7.26229 11.3321 7.41091 11.3895C7.55997 11.447 7.68019 11.5279 7.76877 11.6091L6.41732 13.0834L5.06587 14.5577C5.60691 15.0537 6.28905 15.3126 7.01107 15.3126V13.3126ZM6.41732 13.0834L7.83153 11.6692C7.91322 11.7509 8.00497 11.8721 8.07309 12.0339C8.14168 12.1968 8.16732 12.3558 8.16732 12.4897H6.16732H4.16732C4.16732 13.266 4.47334 13.9679 5.0031 14.4976L6.41732 13.0834ZM6.16732 12.4897H8.16732C8.16732 12.6235 8.14168 12.7826 8.07309 12.9455C8.00497 13.1073 7.91322 13.2284 7.83153 13.3101L6.41732 11.8959L5.0031 10.4817C4.47334 11.0115 4.16732 11.7134 4.16732 12.4897H6.16732ZM6.41732 11.8959L7.83153 13.3101L11.894 9.24764L10.4798 7.83342L9.0656 6.41921L5.0031 10.4817L6.41732 11.8959Z" fill="white" fill-opacity="0.7" mask="url(#path-1-inside-1_51_255)"/>
</svg>
