<svg width="64" height="64" viewBox="0 0 64 64" fill="none" xmlns="http://www.w3.org/2000/svg">
<mask id="mask0_51_262" style="mask-type:alpha" maskUnits="userSpaceOnUse" x="0" y="0" width="64" height="64">
<rect width="64" height="64" fill="#D9D9D9"/>
</mask>
<g mask="url(#mask0_51_262)">
<path d="M17.3333 8.00016C15.436 8.00016 13.8504 9.05994 12.5767 11.1795C11.3033 13.2991 10.6667 15.7948 10.6667 18.6668C10.6667 21.2277 11.0811 23.7568 11.91 26.2542C12.7393 28.7515 13.7609 30.8242 14.9747 32.4722L20.718 31.0568C21.3642 29.6346 22.0727 27.7473 22.8433 25.3948C23.6144 23.0428 24 20.8002 24 18.6668C24 15.7948 23.3633 13.2991 22.09 11.1795C20.8162 9.05994 19.2307 8.00016 17.3333 8.00016ZM21 42.6668C21.8787 42.6668 22.5982 42.3386 23.1587 41.6822C23.7196 41.0257 24 40.1762 24 39.1335C24 38.3779 23.7967 37.5146 23.39 36.5435C22.9829 35.5728 22.4307 34.5713 21.7333 33.5388L16 34.9748C16 37.2993 16.4316 39.1624 17.2947 40.5642C18.1582 41.9659 19.3933 42.6668 21 42.6668ZM46.6667 21.3335C44.7693 21.3335 43.1838 22.3933 41.91 24.5128C40.6367 26.6324 40 29.1282 40 32.0002C40 34.1335 40.394 36.3651 41.182 38.6948C41.97 41.0251 42.67 42.9235 43.282 44.3902L48.8207 46.1128C50.4104 43.6444 51.56 41.3606 52.2693 39.2615C52.9787 37.1624 53.3333 34.7419 53.3333 32.0002C53.3333 29.1282 52.6967 26.6324 51.4233 24.5128C50.1496 22.3933 48.564 21.3335 46.6667 21.3335ZM43 56.0002C44.5387 56.0002 45.7567 55.3164 46.654 53.9488C47.5513 52.5813 48 50.8206 48 48.6668L42.318 46.8208C41.8598 47.6479 41.3589 48.5555 40.8153 49.5435C40.2718 50.5315 40 51.5059 40 52.4668C40 53.3899 40.2949 54.2095 40.8847 54.9255C41.4744 55.6419 42.1796 56.0002 43 56.0002ZM21 45.3335C18.6036 45.3335 16.7129 44.3917 15.328 42.5082C13.9436 40.6242 13.2787 38.2411 13.3333 35.3588L11.7233 32.3795C10.8242 30.9746 9.97889 29.0071 9.18733 26.4768C8.39578 23.9471 8 21.3437 8 18.6668C8 14.8411 8.88556 11.6624 10.6567 9.13083C12.4273 6.59928 14.6529 5.3335 17.3333 5.3335C20.0511 5.3335 22.2862 6.65238 24.0387 9.29016C25.7907 11.9275 26.6667 15.0531 26.6667 18.6668C26.6667 21.0055 26.3027 23.3235 25.5747 25.6208C24.8462 27.9182 24.1469 29.819 23.4767 31.3235L24.6767 33.3182C25.2033 34.1795 25.6667 35.1428 26.0667 36.2082C26.4667 37.2731 26.6667 38.2482 26.6667 39.1335C26.6667 40.9148 26.1342 42.3935 25.0693 43.5695C24.0044 44.7455 22.648 45.3335 21 45.3335ZM43 58.6668C41.352 58.6668 39.9956 58.0788 38.9307 56.9028C37.8658 55.7268 37.3333 54.2482 37.3333 52.4668C37.3333 51.5815 37.5333 50.6064 37.9333 49.5415C38.3333 48.4762 38.7967 47.5128 39.3233 46.6515L40.5233 44.6568C39.8873 43.1866 39.1967 41.2942 38.4513 38.9795C37.706 36.6653 37.3333 34.3388 37.3333 32.0002C37.3333 28.3864 38.2093 25.2608 39.9613 22.6235C41.7138 19.9857 43.9489 18.6668 46.6667 18.6668C49.3471 18.6668 51.5727 19.9326 53.3433 22.4642C55.1145 24.9957 56 28.1744 56 32.0002C56 34.677 55.6129 37.2608 54.8387 39.7515C54.064 42.2422 53.21 44.2242 52.2767 45.6975L50.6667 48.2308C50.6769 50.6002 50.112 52.9317 48.972 55.2255C47.8316 57.5197 45.8409 58.6668 43 58.6668Z" fill="white" fill-opacity="0.7"/>
</g>
</svg>
