<svg width="64" height="64" viewBox="0 0 64 64" fill="none" xmlns="http://www.w3.org/2000/svg">
<mask id="mask0_51_478" style="mask-type:alpha" maskUnits="userSpaceOnUse" x="0" y="0" width="64" height="64">
<rect width="64" height="64" fill="#D9D9D9"/>
</mask>
<g mask="url(#mask0_51_478)">
<path d="M13.7373 56C13.28 56 12.8931 55.8405 12.5767 55.5213C12.2607 55.2022 12.1027 54.8147 12.1027 54.3587V49.61C11.0427 49.1896 10.094 48.3102 9.25667 46.972C8.41889 45.6333 8 44.3009 8 42.9747V18.6667C8 15.9178 9.51022 13.94 12.5307 12.7333C15.5511 11.5267 20.434 10.8549 27.1793 10.718C27.5718 10.718 27.9007 10.8409 28.166 11.0867C28.4313 11.3324 28.564 11.6369 28.564 12C28.564 12.3924 28.4333 12.7213 28.172 12.9867C27.9102 13.252 27.5896 13.3847 27.21 13.3847C21.8838 13.4531 17.9609 13.8198 15.4413 14.4847C12.9213 15.1496 11.422 16.1333 10.9433 17.436H25.9487C26.3264 17.436 26.6431 17.564 26.8987 17.82C27.1542 18.0756 27.282 18.3927 27.282 18.7713C27.282 19.1496 27.1542 19.466 26.8987 19.7207C26.6431 19.9753 26.3264 20.1027 25.9487 20.1027H10.6667V32H37.1433C37.5264 32 37.842 32.128 38.09 32.384C38.3376 32.64 38.4613 32.9571 38.4613 33.3353C38.4613 33.7136 38.3336 34.03 38.078 34.2847C37.8224 34.5393 37.5058 34.6667 37.128 34.6667H10.6667V42.6667C10.6667 44.1333 11.1889 45.3889 12.2333 46.4333C13.2778 47.4778 14.5333 48 16 48H37.3333C38.8 48 40.0556 47.4778 41.1 46.4333C42.1444 45.3889 42.6667 44.1333 42.6667 42.6667V37.0413C42.6667 36.6636 42.7947 36.3469 43.0507 36.0913C43.3067 35.8358 43.6238 35.708 44.002 35.708C44.3802 35.708 44.6967 35.8358 44.9513 36.0913C45.206 36.3469 45.3333 36.6636 45.3333 37.0413V42.9747C45.3333 44.3009 44.9144 45.6333 44.0767 46.972C43.2393 48.3102 42.2907 49.1896 41.2307 49.61V54.3587C41.2307 54.8147 41.0707 55.2022 40.7507 55.5213C40.4302 55.8405 40.0413 56 39.584 56C39.1262 56 38.7393 55.8405 38.4233 55.5213C38.1069 55.2022 37.9487 54.8147 37.9487 54.3587V50.6667H15.3847V54.3587C15.3847 54.8147 15.2244 55.2022 14.904 55.5213C14.584 55.8405 14.1951 56 13.7373 56ZM44.2867 29.3333C41.3298 29.3333 38.8162 28.2982 36.746 26.228C34.6762 24.1582 33.6413 21.6313 33.6413 18.6473C33.6413 15.6993 34.6744 13.1878 36.7407 11.1127C38.8069 9.03756 41.3362 8 44.3287 8C47.2856 8 49.7991 9.03511 51.8693 11.1053C53.9396 13.1751 54.9747 15.6956 54.9747 18.6667C54.9747 21.6378 53.9324 24.1582 51.848 26.228C49.764 28.2982 47.2436 29.3333 44.2867 29.3333ZM17.3453 44.308C18.1751 44.308 18.8762 44.0176 19.4487 43.4367C20.0216 42.8558 20.308 42.1507 20.308 41.3213C20.308 40.4916 20.0176 39.7904 19.4367 39.218C18.8558 38.6451 18.1507 38.3587 17.3213 38.3587C16.4916 38.3587 15.7904 38.6491 15.218 39.23C14.6451 39.8109 14.3587 40.516 14.3587 41.3453C14.3587 42.1751 14.6491 42.8762 15.23 43.4487C15.8109 44.0216 16.516 44.308 17.3453 44.308ZM36.012 44.308C36.8418 44.308 37.5429 44.0176 38.1153 43.4367C38.6882 42.8558 38.9747 42.1507 38.9747 41.3213C38.9747 40.4916 38.6842 39.7904 38.1033 39.218C37.5224 38.6451 36.8173 38.3587 35.988 38.3587C35.1582 38.3587 34.4571 38.6491 33.8847 39.23C33.3118 39.8109 33.0253 40.516 33.0253 41.3453C33.0253 42.1751 33.3158 42.8762 33.8967 43.4487C34.4776 44.0216 35.1827 44.308 36.012 44.308ZM45.3333 18.236V12C45.3333 11.7267 45.2307 11.4873 45.0253 11.282C44.8204 11.0771 44.5813 10.9747 44.308 10.9747C44.0342 10.9747 43.7949 11.0771 43.59 11.282C43.3847 11.4873 43.282 11.7267 43.282 12V18.236C43.282 18.5084 43.3316 18.7722 43.4307 19.0273C43.5298 19.2824 43.6918 19.5211 43.9167 19.7433L47.964 23.81C48.1622 24.0087 48.4016 24.1164 48.682 24.1333C48.9624 24.1502 49.2189 24.0424 49.4513 23.81C49.6838 23.5776 49.8 23.3298 49.8 23.0667C49.8 22.8036 49.6838 22.5558 49.4513 22.3233L45.3333 18.236Z" fill="white"/>
</g>
</svg>
