<svg width="16" height="16" viewBox="0 0 16 16" fill="none" xmlns="http://www.w3.org/2000/svg">
<mask id="mask0_51_366" style="mask-type:alpha" maskUnits="userSpaceOnUse" x="0" y="0" width="16" height="16">
<rect width="16" height="16" fill="#D9D9D9"/>
</mask>
<g mask="url(#mask0_51_366)">
<path d="M3.89744 12.9003C3.20629 12.9003 2.65456 13.0418 2.24226 13.3247C1.82981 13.6077 1.29436 13.8081 0.635897 13.926C0.461265 13.9601 0.311658 13.9241 0.187077 13.818C0.062359 13.7117 0 13.5775 0 13.4154C0 13.2482 0.0602393 13.1082 0.180718 12.9954C0.301197 12.8826 0.448684 12.8011 0.623179 12.7507C1.14708 12.6067 1.62126 12.4058 2.04574 12.148C2.47022 11.8902 3.08745 11.7613 3.89744 11.7613C4.3855 11.7613 4.79446 11.817 5.12431 11.9283C5.45402 12.0395 5.76643 12.1639 6.06154 12.3014C6.35665 12.4388 6.65306 12.5665 6.95077 12.6843C7.24848 12.8021 7.59822 12.861 8 12.861C8.40178 12.861 8.75152 12.8021 9.04923 12.6843C9.34694 12.5665 9.64335 12.4388 9.93846 12.3014C10.2336 12.1639 10.5494 12.0395 10.8859 11.9283C11.2226 11.817 11.6282 11.7613 12.1026 11.7613C12.9125 11.7613 13.5298 11.8902 13.9543 12.148C14.3787 12.4058 14.8529 12.6067 15.3768 12.7507C15.5513 12.8011 15.6988 12.8826 15.8193 12.9954C15.9398 13.1082 16 13.2482 16 13.4154C16 13.5775 15.9376 13.7117 15.8129 13.818C15.6883 13.9241 15.5387 13.9601 15.3641 13.926C14.7056 13.8081 14.1702 13.6077 13.7577 13.3247C13.3454 13.0418 12.7937 12.9003 12.1026 12.9003C11.7197 12.9003 11.3815 12.9559 11.088 13.0672C10.7945 13.1785 10.5024 13.3029 10.2115 13.4403C9.92062 13.5778 9.60342 13.7054 9.2599 13.8233C8.91651 13.9411 8.49655 14 8 14C7.50345 14 7.08349 13.9411 6.7401 13.8233C6.39658 13.7054 6.07938 13.5778 5.78851 13.4403C5.49764 13.3029 5.20889 13.1785 4.92226 13.0672C4.63562 12.9559 4.29402 12.9003 3.89744 12.9003ZM3.89744 9.6464C3.20629 9.6464 2.65456 9.78792 2.24226 10.071C1.82981 10.354 1.29436 10.5544 0.635897 10.6723C0.461265 10.7064 0.311658 10.6704 0.187077 10.5642C0.062359 10.4579 0 10.3238 0 10.1617C0 9.9945 0.0602393 9.85449 0.180718 9.74164C0.301197 9.62892 0.448684 9.54736 0.623179 9.49696C1.14708 9.35295 1.62126 9.15206 2.04574 8.89429C2.47022 8.63651 3.08745 8.50763 3.89744 8.50763C4.3855 8.50763 4.79446 8.56326 5.12431 8.67454C5.45402 8.78582 5.76643 8.91019 6.06154 9.04765C6.35665 9.18512 6.65306 9.31276 6.95077 9.43058C7.24848 9.54841 7.59822 9.60732 8 9.60732C8.40178 9.60732 8.75152 9.54841 9.04923 9.43058C9.34694 9.31276 9.64335 9.18512 9.93846 9.04765C10.2336 8.91019 10.5494 8.78582 10.8859 8.67454C11.2226 8.56326 11.6282 8.50763 12.1026 8.50763C12.9125 8.50763 13.5298 8.63651 13.9543 8.89429C14.3787 9.15206 14.8529 9.35295 15.3768 9.49696C15.5513 9.54736 15.6988 9.62892 15.8193 9.74164C15.9398 9.85449 16 9.9945 16 10.1617C16 10.3238 15.9376 10.4579 15.8129 10.5642C15.6883 10.6704 15.5387 10.7064 15.3641 10.6723C14.7056 10.5544 14.1702 10.354 13.7577 10.071C13.3454 9.78792 12.7937 9.6464 12.1026 9.6464C11.7112 9.6464 11.3688 9.70204 11.0753 9.81331C10.7818 9.92459 10.4896 10.049 10.1988 10.1864C9.9079 10.3239 9.59289 10.4515 9.25374 10.5694C8.91446 10.6872 8.49655 10.7461 8 10.7461C7.50345 10.7461 7.08349 10.6872 6.7401 10.5694C6.39658 10.4515 6.07938 10.3239 5.78851 10.1864C5.49764 10.049 5.20889 9.92459 4.92226 9.81331C4.63562 9.70204 4.29402 9.6464 3.89744 9.6464ZM3.89744 6.39268C3.20629 6.39268 2.65456 6.5342 2.24226 6.81724C1.82981 7.10015 1.29436 7.30052 0.635897 7.41834C0.461265 7.45264 0.311658 7.41664 0.187077 7.31034C0.062359 7.20416 0 7.07004 0 6.90797C0 6.74079 0.0602393 6.60077 0.180718 6.48792C0.301197 6.3752 0.448684 6.29364 0.623179 6.24324C1.14708 6.09923 1.62126 5.89834 2.04574 5.64057C2.47022 5.3828 3.08745 5.25391 3.89744 5.25391C4.3855 5.25391 4.79446 5.30955 5.12431 5.42083C5.45402 5.53211 5.76643 5.65648 6.06154 5.79394C6.35665 5.9314 6.65306 6.05904 6.95077 6.17687C7.24848 6.29469 7.59822 6.3536 8 6.3536C8.40178 6.3536 8.75152 6.29469 9.04923 6.17687C9.34694 6.05904 9.64335 5.9314 9.93846 5.79394C10.2336 5.65648 10.5494 5.53211 10.8859 5.42083C11.2226 5.30955 11.6282 5.25391 12.1026 5.25391C12.9125 5.25391 13.5298 5.3828 13.9543 5.64057C14.3787 5.89834 14.8529 6.09923 15.3768 6.24324C15.5513 6.29364 15.6988 6.3752 15.8193 6.48792C15.9398 6.60077 16 6.74079 16 6.90797C16 7.07004 15.9376 7.20416 15.8129 7.31034C15.6883 7.41664 15.5387 7.45264 15.3641 7.41834C14.7056 7.30052 14.1702 7.10015 13.7577 6.81724C13.3454 6.5342 12.7937 6.39268 12.1026 6.39268C11.7197 6.39268 11.3815 6.44832 11.088 6.5596C10.7945 6.67088 10.5024 6.79525 10.2115 6.93271C9.92062 7.07017 9.60342 7.19781 9.2599 7.31564C8.91651 7.43346 8.49655 7.49237 8 7.49237C7.50345 7.49237 7.08349 7.43346 6.7401 7.31564C6.39658 7.19781 6.07938 7.07017 5.78851 6.93271C5.49764 6.79525 5.20889 6.67088 4.92226 6.5596C4.63562 6.44832 4.29402 6.39268 3.89744 6.39268ZM3.89744 3.13897C3.20629 3.13897 2.65456 3.28049 2.24226 3.56353C1.82981 3.84644 1.29436 4.0468 0.635897 4.16463C0.461265 4.19893 0.311658 4.16292 0.187077 4.05662C0.062359 3.95045 0 3.81626 0 3.65405C0 3.48688 0.0602393 3.34693 0.180718 3.23421C0.301197 3.12136 0.448684 3.0398 0.623179 2.98953C1.14708 2.84552 1.62126 2.64463 2.04574 2.38686C2.47022 2.12895 3.08745 2 3.89744 2C4.3855 2 4.79446 2.05564 5.12431 2.16692C5.45402 2.2782 5.76643 2.40257 6.06154 2.54003C6.35665 2.67749 6.65306 2.80513 6.95077 2.92296C7.24848 3.04078 7.59822 3.09969 8 3.09969C8.40178 3.09969 8.75152 3.04078 9.04923 2.92296C9.34694 2.80513 9.64335 2.67749 9.93846 2.54003C10.2336 2.40257 10.5494 2.2782 10.8859 2.16692C11.2226 2.05564 11.6282 2 12.1026 2C12.9125 2 13.5298 2.12895 13.9543 2.38686C14.3787 2.64463 14.8529 2.84552 15.3768 2.98953C15.5513 3.0398 15.6988 3.12136 15.8193 3.23421C15.9398 3.34693 16 3.48688 16 3.65405C16 3.81626 15.9376 3.95045 15.8129 4.05662C15.6883 4.16292 15.5387 4.19893 15.3641 4.16463C14.7056 4.0468 14.1702 3.84644 13.7577 3.56353C13.3454 3.28049 12.7937 3.13897 12.1026 3.13897C11.7197 3.13897 11.3815 3.19461 11.088 3.30588C10.7945 3.41716 10.5024 3.54153 10.2115 3.67899C9.92062 3.81646 9.60342 3.9441 9.2599 4.06192C8.91651 4.17975 8.49655 4.23866 8 4.23866C7.50345 4.23866 7.08349 4.17975 6.7401 4.06192C6.39658 3.9441 6.07938 3.81646 5.78851 3.67899C5.49764 3.54153 5.20889 3.41716 4.92226 3.30588C4.63562 3.19461 4.29402 3.13897 3.89744 3.13897Z" fill="white"/>
</g>
</svg>
