<svg width="16" height="16" viewBox="0 0 16 16" fill="none" xmlns="http://www.w3.org/2000/svg">
<mask id="mask0_51_357" style="mask-type:alpha" maskUnits="userSpaceOnUse" x="0" y="0" width="16" height="16">
<rect width="16" height="16" fill="#D9D9D9"/>
</mask>
<g mask="url(#mask0_51_357)">
<path d="M2.98333 7.8859L6.33967 3.0539C6.40889 2.96246 6.48817 2.9039 6.5775 2.87824C6.66683 2.85268 6.75722 2.8544 6.84867 2.8834C6.94011 2.91251 7.016 2.96379 7.07633 3.03724C7.13656 3.11079 7.16667 3.20224 7.16667 3.31157V8.2309C7.16667 8.40268 7.10917 8.54601 6.99417 8.6609C6.87928 8.7759 6.73594 8.8334 6.56417 8.8334H3.47567C3.35511 8.8334 3.25017 8.80329 3.16083 8.74307C3.07161 8.68274 3.00133 8.60685 2.95 8.5154C2.89878 8.42396 2.87422 8.32185 2.87633 8.20907C2.87844 8.09618 2.91411 7.98846 2.98333 7.8859ZM4.2295 7.8334H6.16667V5.05124L4.2295 7.8334ZM9.341 8.8334C9.106 8.8334 8.94339 8.74624 8.85317 8.5719C8.76306 8.39746 8.74706 8.20896 8.80517 8.0064C8.90339 7.59707 8.98822 7.12679 9.05967 6.59557C9.131 6.06435 9.16667 5.53251 9.16667 5.00007C9.16667 4.44618 9.13206 3.89235 9.06283 3.33857C8.99361 2.78468 8.90983 2.28596 8.8115 1.8424C8.78928 1.74662 8.79317 1.66307 8.82317 1.59174C8.85306 1.5204 8.89917 1.46124 8.9615 1.41424C9.02394 1.3629 9.09639 1.33107 9.17883 1.31874C9.26128 1.30629 9.34272 1.32446 9.42317 1.37324C10.0427 1.70824 10.5951 2.12401 11.0802 2.62057C11.5652 3.11712 11.9948 3.66585 12.3692 4.26674C12.7418 4.86163 13.0504 5.48663 13.2948 6.14174C13.5393 6.79685 13.6957 7.4744 13.7642 8.1744C13.7864 8.35051 13.7355 8.50435 13.6115 8.6359C13.4876 8.76757 13.3376 8.8334 13.1615 8.8334H9.341ZM9.868 7.8334H12.7192C12.5432 6.85818 12.2092 5.95624 11.7173 5.12757C11.2254 4.29901 10.6594 3.5984 10.0192 3.02574C10.0628 3.34018 10.0983 3.66624 10.1257 4.0039C10.153 4.34146 10.1667 4.67351 10.1667 5.00007C10.1667 5.51374 10.1384 6.0099 10.082 6.48857C10.0257 6.96724 9.95433 7.41551 9.868 7.8334ZM6 12.7052C5.70689 12.7052 5.42656 12.648 5.159 12.5334C4.89144 12.4188 4.64017 12.2736 4.40517 12.0976C4.34272 12.0506 4.27794 12.0181 4.21083 12.0001C4.14383 11.9822 4.07567 11.9753 4.00633 11.9796C3.93711 11.9838 3.87067 11.9977 3.807 12.0212C3.74333 12.0448 3.68589 12.0822 3.63467 12.1334C3.55178 12.2095 3.46311 12.2762 3.36867 12.3334C3.27422 12.3906 3.17656 12.4406 3.07567 12.4834C2.81067 12.2808 2.57178 12.0531 2.359 11.8001C2.14622 11.5471 1.97444 11.2701 1.84367 10.9692C1.75478 10.7796 1.77572 10.5984 1.9065 10.4257C2.03717 10.2531 2.20511 10.1667 2.41033 10.1667H13.5897C13.7949 10.1667 13.9584 10.2513 14.0802 10.4206C14.2019 10.5898 14.2273 10.7727 14.1563 10.9692C14.0077 11.2659 13.8314 11.5418 13.6275 11.7969C13.4237 12.052 13.1893 12.2808 12.9243 12.4834C12.8278 12.4406 12.7301 12.3896 12.6313 12.3302C12.5327 12.2708 12.444 12.2052 12.3653 12.1334C12.3141 12.0822 12.2567 12.0448 12.193 12.0212C12.1293 11.9977 12.0629 11.9838 11.9937 11.9796C11.9243 11.9753 11.8562 11.9805 11.7892 11.9949C11.7221 12.0095 11.6573 12.0402 11.5948 12.0872C11.3598 12.2633 11.1086 12.4103 10.841 12.5282C10.5734 12.6462 10.2931 12.7052 10 12.7052C9.69833 12.7052 9.40922 12.6424 9.13267 12.5167C8.85622 12.3911 8.59833 12.2381 8.359 12.0577C8.30767 12.0151 8.25233 11.9837 8.193 11.9636C8.13356 11.9435 8.06922 11.9334 8 11.9334C7.93078 11.9334 7.86645 11.9435 7.807 11.9636C7.74767 11.9837 7.69233 12.0151 7.641 12.0577C7.40167 12.2381 7.14378 12.3911 6.86733 12.5167C6.59078 12.6424 6.30167 12.7052 6 12.7052ZM8 14.6476C7.665 14.8227 7.33083 14.953 6.9975 15.0386C6.66417 15.124 6.33167 15.1667 6 15.1667C5.66833 15.1667 5.33583 15.124 5.0025 15.0386C4.66917 14.953 4.335 14.8227 4 14.6476C3.665 14.8227 3.33083 14.953 2.9975 15.0386C2.66417 15.124 2.33167 15.1667 2 15.1667C1.85811 15.1667 1.73933 15.1188 1.64367 15.0231C1.54789 14.9274 1.5 14.8086 1.5 14.6667C1.5 14.5248 1.54789 14.4061 1.64367 14.3104C1.73933 14.2146 1.85811 14.1667 2 14.1667C2.30856 14.1667 2.60556 14.114 2.891 14.0084C3.17644 13.9028 3.45678 13.7834 3.732 13.6501C3.779 13.6278 3.82367 13.6122 3.866 13.6032C3.90833 13.5943 3.953 13.5899 4 13.5899C4.047 13.5899 4.09167 13.5943 4.134 13.6032C4.17633 13.6122 4.221 13.6278 4.268 13.6501C4.54322 13.7834 4.82356 13.9011 5.109 14.0032C5.39444 14.1055 5.69144 14.1566 6 14.1566C6.30856 14.1566 6.60556 14.1055 6.891 14.0032C7.17644 13.9011 7.45678 13.7834 7.732 13.6501C7.779 13.6278 7.82367 13.6122 7.866 13.6032C7.90833 13.5943 7.953 13.5899 8 13.5899C8.047 13.5899 8.09167 13.5943 8.134 13.6032C8.17633 13.6122 8.221 13.6278 8.268 13.6501C8.54322 13.7834 8.82356 13.9011 9.109 14.0032C9.39444 14.1055 9.69144 14.1566 10 14.1566C10.3086 14.1566 10.6056 14.1055 10.891 14.0032C11.1764 13.9011 11.4568 13.7834 11.732 13.6501C11.7679 13.6322 11.8572 13.6121 12 13.5899C12.018 13.5899 12.1073 13.61 12.268 13.6501C12.5432 13.7834 12.8236 13.9028 13.109 14.0084C13.3944 14.114 13.6914 14.1667 14 14.1667C14.1419 14.1667 14.2607 14.2146 14.3563 14.3104C14.4521 14.4061 14.5 14.5248 14.5 14.6667C14.5 14.8086 14.4521 14.9274 14.3563 15.0231C14.2607 15.1188 14.1419 15.1667 14 15.1667C13.6683 15.1667 13.3358 15.124 13.0025 15.0386C12.6692 14.953 12.335 14.8227 12 14.6476C11.665 14.8227 11.3308 14.953 10.9975 15.0386C10.6642 15.124 10.3317 15.1667 10 15.1667C9.66833 15.1667 9.33583 15.124 9.0025 15.0386C8.66917 14.953 8.335 14.8227 8 14.6476Z" fill="white"/>
</g>
</svg>
