<svg width="18" height="18" viewBox="0 0 18 18" fill="none" xmlns="http://www.w3.org/2000/svg">
<mask id="mask0_51_360" style="mask-type:alpha" maskUnits="userSpaceOnUse" x="0" y="0" width="18" height="18">
<rect width="18" height="18" fill="#D9D9D9"/>
</mask>
<g mask="url(#mask0_51_360)">
<path d="M9 3C8.7875 3 8.60938 2.92813 8.46563 2.78438C8.32188 2.64062 8.25 2.4625 8.25 2.25V0.75C8.25 0.5375 8.32188 0.359375 8.46563 0.215625C8.60938 0.071875 8.7875 0 9 0C9.2125 0 9.39062 0.071875 9.53438 0.215625C9.67813 0.359375 9.75 0.5375 9.75 0.75V2.25C9.75 2.4625 9.67813 2.64062 9.53438 2.78438C9.39062 2.92813 9.2125 3 9 3ZM12.7125 4.5375C12.575 4.4 12.5063 4.22813 12.5063 4.02188C12.5063 3.81563 12.575 3.6375 12.7125 3.4875L13.7625 2.41875C13.9125 2.26875 14.0906 2.19375 14.2969 2.19375C14.5031 2.19375 14.6812 2.26875 14.8312 2.41875C14.9688 2.55625 15.0375 2.73125 15.0375 2.94375C15.0375 3.15625 14.9688 3.33125 14.8312 3.46875L13.7625 4.5375C13.625 4.675 13.45 4.74375 13.2375 4.74375C13.025 4.74375 12.85 4.675 12.7125 4.5375ZM15 9C14.7875 9 14.6094 8.92813 14.4656 8.78438C14.3219 8.64062 14.25 8.4625 14.25 8.25C14.25 8.0375 14.3219 7.85938 14.4656 7.71563C14.6094 7.57188 14.7875 7.5 15 7.5H16.5C16.7125 7.5 16.8906 7.57188 17.0344 7.71563C17.1781 7.85938 17.25 8.0375 17.25 8.25C17.25 8.4625 17.1781 8.64062 17.0344 8.78438C16.8906 8.92813 16.7125 9 16.5 9H15ZM9 16.5C8.7875 16.5 8.60938 16.4281 8.46563 16.2844C8.32188 16.1406 8.25 15.9625 8.25 15.75V14.25C8.25 14.0375 8.32188 13.8594 8.46563 13.7156C8.60938 13.5719 8.7875 13.5 9 13.5C9.2125 13.5 9.39062 13.5719 9.53438 13.7156C9.67813 13.8594 9.75 14.0375 9.75 14.25V15.75C9.75 15.9625 9.67813 16.1406 9.53438 16.2844C9.39062 16.4281 9.2125 16.5 9 16.5ZM4.2375 4.5375L3.16875 3.4875C3.01875 3.3375 2.94375 3.15625 2.94375 2.94375C2.94375 2.73125 3.01875 2.55625 3.16875 2.41875C3.30625 2.28125 3.48125 2.2125 3.69375 2.2125C3.90625 2.2125 4.08125 2.28125 4.21875 2.41875L5.2875 3.4875C5.425 3.625 5.49375 3.8 5.49375 4.0125C5.49375 4.225 5.425 4.4 5.2875 4.5375C5.1375 4.675 4.9625 4.74375 4.7625 4.74375C4.5625 4.74375 4.3875 4.675 4.2375 4.5375ZM13.7625 14.0812L12.7125 13.0125C12.575 12.8625 12.5063 12.6844 12.5063 12.4781C12.5063 12.2719 12.575 12.1 12.7125 11.9625C12.85 11.825 13.0219 11.7563 13.2281 11.7563C13.4344 11.7563 13.6125 11.825 13.7625 11.9625L14.8312 13.0125C14.9812 13.15 15.0531 13.325 15.0469 13.5375C15.0406 13.75 14.9688 13.9312 14.8312 14.0812C14.6812 14.2312 14.5 14.3063 14.2875 14.3063C14.075 14.3063 13.9 14.2312 13.7625 14.0812ZM1.5 9C1.2875 9 1.10938 8.92813 0.965625 8.78438C0.821875 8.64062 0.75 8.4625 0.75 8.25C0.75 8.0375 0.821875 7.85938 0.965625 7.71563C1.10938 7.57188 1.2875 7.5 1.5 7.5H3C3.2125 7.5 3.39062 7.57188 3.53438 7.71563C3.67813 7.85938 3.75 8.0375 3.75 8.25C3.75 8.4625 3.67813 8.64062 3.53438 8.78438C3.39062 8.92813 3.2125 9 3 9H1.5ZM3.16875 14.0812C3.03125 13.9437 2.9625 13.7688 2.9625 13.5563C2.9625 13.3438 3.03125 13.1687 3.16875 13.0312L4.2375 11.9625C4.375 11.825 4.54688 11.7563 4.75313 11.7563C4.95937 11.7563 5.1375 11.825 5.2875 11.9625C5.4375 12.1125 5.5125 12.2906 5.5125 12.4969C5.5125 12.7031 5.4375 12.8813 5.2875 13.0312L4.2375 14.0812C4.0875 14.2312 3.90625 14.3063 3.69375 14.3063C3.48125 14.3063 3.30625 14.2312 3.16875 14.0812ZM9 12.75C7.75 12.75 6.6875 12.3125 5.8125 11.4375C4.9375 10.5625 4.5 9.5 4.5 8.25C4.5 7 4.9375 5.9375 5.8125 5.0625C6.6875 4.1875 7.75 3.75 9 3.75C10.25 3.75 11.3125 4.1875 12.1875 5.0625C13.0625 5.9375 13.5 7 13.5 8.25C13.5 9.5 13.0625 10.5625 12.1875 11.4375C11.3125 12.3125 10.25 12.75 9 12.75ZM9 11.25C9.825 11.25 10.5312 10.9563 11.1187 10.3687C11.7063 9.78125 12 9.075 12 8.25C12 7.425 11.7063 6.71875 11.1187 6.13125C10.5312 5.54375 9.825 5.25 9 5.25C8.175 5.25 7.46875 5.54375 6.88125 6.13125C6.29375 6.71875 6 7.425 6 8.25C6 9.075 6.29375 9.78125 6.88125 10.3687C7.46875 10.9563 8.175 11.25 9 11.25Z" fill="white"/>
</g>
</svg>
