<svg width="30" height="30" viewBox="0 0 30 30" fill="none" xmlns="http://www.w3.org/2000/svg">
<circle cx="15" cy="15" r="14" stroke="white" stroke-opacity="0.7" stroke-width="2"/>
<mask id="mask0_51_249" style="mask-type:alpha" maskUnits="userSpaceOnUse" x="5" y="5" width="20" height="20">
<rect x="5" y="5" width="20" height="20" fill="#D9D9D9"/>
<rect x="6" y="6" width="18" height="18" stroke="white" stroke-opacity="0.7" stroke-width="2"/>
</mask>
<g mask="url(#mask0_51_249)">
<mask id="path-4-inside-1_51_249" fill="white">
<path d="M18.4798 15.8334H9.16732C8.93121 15.8334 8.73329 15.7536 8.57357 15.5938C8.41385 15.4341 8.33398 15.2362 8.33398 15.0001C8.33398 14.764 8.41385 14.5661 8.57357 14.4063C8.73329 14.2466 8.93121 14.1668 9.16732 14.1668H18.4798L14.3965 10.0834C14.2298 9.91676 14.15 9.72231 14.1569 9.50009C14.1638 9.27787 14.2507 9.08342 14.4173 8.91676C14.584 8.76398 14.7784 8.68412 15.0007 8.67717C15.2229 8.67023 15.4173 8.75009 15.584 8.91676L21.084 14.4168C21.1673 14.5001 21.2263 14.5904 21.2611 14.6876C21.2958 14.7848 21.3132 14.889 21.3132 15.0001C21.3132 15.1112 21.2958 15.2154 21.2611 15.3126C21.2263 15.4098 21.1673 15.5001 21.084 15.5834L15.584 21.0834C15.4312 21.2362 15.2402 21.3126 15.0111 21.3126C14.7819 21.3126 14.584 21.2362 14.4173 21.0834C14.2507 20.9168 14.1673 20.7188 14.1673 20.4897C14.1673 20.2605 14.2507 20.0626 14.4173 19.8959L18.4798 15.8334Z"/>
</mask>
<path d="M18.4798 15.8334H9.16732C8.93121 15.8334 8.73329 15.7536 8.57357 15.5938C8.41385 15.4341 8.33398 15.2362 8.33398 15.0001C8.33398 14.764 8.41385 14.5661 8.57357 14.4063C8.73329 14.2466 8.93121 14.1668 9.16732 14.1668H18.4798L14.3965 10.0834C14.2298 9.91676 14.15 9.72231 14.1569 9.50009C14.1638 9.27787 14.2507 9.08342 14.4173 8.91676C14.584 8.76398 14.7784 8.68412 15.0007 8.67717C15.2229 8.67023 15.4173 8.75009 15.584 8.91676L21.084 14.4168C21.1673 14.5001 21.2263 14.5904 21.2611 14.6876C21.2958 14.7848 21.3132 14.889 21.3132 15.0001C21.3132 15.1112 21.2958 15.2154 21.2611 15.3126C21.2263 15.4098 21.1673 15.5001 21.084 15.5834L15.584 21.0834C15.4312 21.2362 15.2402 21.3126 15.0111 21.3126C14.7819 21.3126 14.584 21.2362 14.4173 21.0834C14.2507 20.9168 14.1673 20.7188 14.1673 20.4897C14.1673 20.2605 14.2507 20.0626 14.4173 19.8959L18.4798 15.8334Z" fill="white" fill-opacity="0.5"/>
<path d="M18.4798 15.8334L19.894 17.2476L23.3082 13.8334H18.4798V15.8334ZM18.4798 14.1668V16.1668H23.3082L19.894 12.7525L18.4798 14.1668ZM14.3965 10.0834L12.9823 11.4976L14.3965 10.0834ZM14.4173 8.91676L13.0659 7.44245L13.0338 7.47181L13.0031 7.50254L14.4173 8.91676ZM15.584 8.91676L14.1698 10.331V10.331L15.584 8.91676ZM21.084 14.4168L22.4982 13.0025L21.084 14.4168ZM14.4173 21.0834L13.0031 22.4976L13.0338 22.5284L13.0659 22.5577L14.4173 21.0834ZM14.4173 19.8959L15.8315 21.3101L14.4173 19.8959ZM18.4798 15.8334V13.8334H9.16732V15.8334V17.8334H18.4798V15.8334ZM9.16732 15.8334V13.8334C9.27844 13.8334 9.42724 13.8531 9.59019 13.9188C9.75489 13.9853 9.88883 14.0807 9.98778 14.1796L8.57357 15.5938L7.15935 17.0081C7.71266 17.5614 8.42754 17.8334 9.16732 17.8334V15.8334ZM8.57357 15.5938L9.98778 14.1796C10.0867 14.2786 10.1821 14.4125 10.2486 14.5772C10.3143 14.7402 10.334 14.889 10.334 15.0001H8.33398H6.33398C6.33398 15.7399 6.60605 16.4547 7.15935 17.0081L8.57357 15.5938ZM8.33398 15.0001H10.334C10.334 15.1112 10.3143 15.26 10.2486 15.423C10.1821 15.5877 10.0867 15.7216 9.98778 15.8206L8.57357 14.4063L7.15935 12.9921C6.60605 13.5454 6.33398 14.2603 6.33398 15.0001H8.33398ZM8.57357 14.4063L9.98778 15.8206C9.88883 15.9195 9.75489 16.0149 9.59018 16.0814C9.42724 16.1471 9.27844 16.1668 9.16732 16.1668V14.1668V12.1668C8.42754 12.1668 7.71266 12.4388 7.15935 12.9921L8.57357 14.4063ZM9.16732 14.1668V16.1668H18.4798V14.1668V12.1668H9.16732V14.1668ZM18.4798 14.1668L19.894 12.7525L15.8107 8.66921L14.3965 10.0834L12.9823 11.4976L17.0656 15.581L18.4798 14.1668ZM14.3965 10.0834L15.8107 8.66921C15.8918 8.75035 15.9895 8.87715 16.0616 9.05275C16.1348 9.23098 16.1607 9.40869 16.1559 9.56256L14.1569 9.50009L12.1579 9.43762C12.1326 10.2478 12.4515 10.9669 12.9823 11.4976L14.3965 10.0834ZM14.1569 9.50009L16.1559 9.56256C16.1516 9.69958 16.1207 9.85236 16.0535 10.0029C15.9872 10.1514 15.9026 10.26 15.8315 10.331L14.4173 8.91676L13.0031 7.50254C12.5004 8.00521 12.1817 8.67417 12.1579 9.43762L14.1569 9.50009ZM14.4173 8.91676L15.7688 10.3911C15.6917 10.4617 15.5845 10.5363 15.448 10.5923C15.311 10.6486 15.1776 10.6726 15.0631 10.6762L15.0007 8.67717L14.9382 6.67815C14.2285 6.70033 13.579 6.97211 13.0659 7.44245L14.4173 8.91676ZM15.0007 8.67717L15.0631 10.6762C14.9092 10.681 14.7315 10.6551 14.5533 10.5819C14.3777 10.5098 14.2509 10.4121 14.1698 10.331L15.584 8.91676L16.9982 7.50254C16.4675 6.9718 15.7484 6.65283 14.9382 6.67815L15.0007 8.67717ZM15.584 8.91676L14.1698 10.331L19.6698 15.831L21.084 14.4168L22.4982 13.0025L16.9982 7.50254L15.584 8.91676ZM21.084 14.4168L19.6698 15.831C19.5734 15.7346 19.4557 15.5789 19.3776 15.3603L21.2611 14.6876L23.1446 14.0149C22.997 13.6018 22.7612 13.2656 22.4982 13.0025L21.084 14.4168ZM21.2611 14.6876L19.3776 15.3603C19.3295 15.2257 19.3132 15.1007 19.3132 15.0001H21.3132H23.3132C23.3132 14.6773 23.2621 14.3439 23.1446 14.0149L21.2611 14.6876ZM21.3132 15.0001H19.3132C19.3132 14.8995 19.3295 14.7745 19.3776 14.6399L21.2611 15.3126L23.1446 15.9853C23.2621 15.6562 23.3132 15.3229 23.3132 15.0001H21.3132ZM21.2611 15.3126L19.3776 14.6399C19.4557 14.4213 19.5734 14.2656 19.6698 14.1692L21.084 15.5834L22.4982 16.9976C22.7613 16.7346 22.997 16.3983 23.1446 15.9853L21.2611 15.3126ZM21.084 15.5834L19.6698 14.1692L14.1698 19.6692L15.584 21.0834L16.9982 22.4976L22.4982 16.9976L21.084 15.5834ZM15.584 21.0834L14.1698 19.6692C14.2751 19.5639 14.4148 19.4658 14.5834 19.3983C14.7497 19.3318 14.9002 19.3126 15.0111 19.3126V21.3126V23.3126C15.735 23.3126 16.4458 23.05 16.9982 22.4976L15.584 21.0834ZM15.0111 21.3126V19.3126C15.1229 19.3126 15.2623 19.3321 15.4109 19.3895C15.56 19.447 15.6802 19.5279 15.7688 19.6091L14.4173 21.0834L13.0659 22.5577C13.6069 23.0537 14.289 23.3126 15.0111 23.3126V21.3126ZM14.4173 21.0834L15.8315 19.6692C15.9132 19.7509 16.005 19.8721 16.0731 20.0339C16.1417 20.1968 16.1673 20.3558 16.1673 20.4897H14.1673H12.1673C12.1673 21.266 12.4733 21.9679 13.0031 22.4976L14.4173 21.0834ZM14.1673 20.4897H16.1673C16.1673 20.6235 16.1417 20.7826 16.0731 20.9455C16.005 21.1073 15.9132 21.2284 15.8315 21.3101L14.4173 19.8959L13.0031 18.4817C12.4733 19.0115 12.1673 19.7134 12.1673 20.4897H14.1673ZM14.4173 19.8959L15.8315 21.3101L19.894 17.2476L18.4798 15.8334L17.0656 14.4192L13.0031 18.4817L14.4173 19.8959Z" fill="white" fill-opacity="0.7" mask="url(#path-4-inside-1_51_249)"/>
</g>
</svg>
