<svg width="24" height="24" viewBox="0 0 24 24" fill="none" xmlns="http://www.w3.org/2000/svg">
<mask id="mask0_51_274" style="mask-type:alpha" maskUnits="userSpaceOnUse" x="0" y="0" width="24" height="24">
<rect width="24" height="24" transform="matrix(1 -8.74228e-08 -8.74228e-08 -1 0 24)" fill="#D9D9D9"/>
</mask>
<g mask="url(#mask0_51_274)">
<path d="M11.775 10.525L8.15 14.15C8.1 14.2 8.0625 14.2542 8.0375 14.3125C8.0125 14.3708 8 14.4333 8 14.5C8 14.6333 8.04583 14.75 8.1375 14.85C8.22917 14.95 8.35 15 8.5 15L16.1 15C16.25 15 16.3708 14.95 16.4625 14.85C16.5542 14.75 16.6 14.6333 16.6 14.5C16.6 14.4667 16.55 14.35 16.45 14.15L12.825 10.525C12.7417 10.4417 12.6583 10.3833 12.575 10.35C12.4917 10.3167 12.4 10.3 12.3 10.3C12.2 10.3 12.1083 10.3167 12.025 10.35C11.9417 10.3833 11.8583 10.4417 11.775 10.525Z" fill="white" fill-opacity="0.5"/>
</g>
</svg>
