<svg width="72" height="72" viewBox="0 0 72 72" fill="none" xmlns="http://www.w3.org/2000/svg">
<mask id="mask0_51_173" style="mask-type:alpha" maskUnits="userSpaceOnUse" x="0" y="0" width="72" height="72">
<rect x="0.457031" width="71.0882" height="71.0882" fill="#D9D9D9"/>
</mask>
<g mask="url(#mask0_51_173)">
<path d="M15.3352 39.9412C15.7528 39.144 16.3307 38.5155 17.0687 38.0559C17.8062 37.5968 18.6336 37.3672 19.5509 37.3672C20.5076 37.3672 21.3866 37.6163 22.1878 38.1144C22.9895 38.613 23.5705 39.3207 23.9309 40.2374L25.4749 43.8718C25.8392 44.6617 26.5182 45.024 27.512 44.9589C28.5053 44.8932 29.1438 44.4682 29.4277 43.6837L35.6249 23.9123C36.2401 21.9603 37.3804 20.411 39.0461 19.2642C40.7112 18.1174 42.5573 17.544 44.5843 17.544C46.5708 17.544 48.391 18.105 50.0447 19.2272C51.6985 20.3493 52.8389 21.8559 53.4659 23.7472L64.5445 54.347C64.7005 54.8406 64.6502 55.2859 64.3935 55.6828C64.1372 56.0797 63.7384 56.2782 63.1968 56.2782C62.8873 56.2782 62.6034 56.1881 62.3452 56.0079C62.0875 55.8272 61.894 55.5927 61.7647 55.3044L50.629 24.6869C50.1961 23.3619 49.4175 22.3338 48.2935 21.6027C47.1694 20.8716 45.9258 20.506 44.5628 20.506C43.1993 20.506 41.9528 20.8839 40.8233 21.6397C39.6933 22.3955 38.9118 23.4359 38.4788 24.7609L32.2816 44.5323C31.9133 45.573 31.2915 46.4142 30.4162 47.056C29.541 47.6977 28.5452 48.0186 27.4291 48.0186C26.4244 48.0186 25.4944 47.7558 24.6388 47.23C23.7833 46.7037 23.1467 45.9699 22.7291 45.0285L21.0711 41.052C20.7675 40.4068 20.2454 40.0745 19.5049 40.0553C18.7644 40.0365 18.2234 40.35 17.8818 40.9957L10.4708 55.5036C10.3494 55.7381 10.1675 55.926 9.92506 56.0672C9.68218 56.2079 9.42744 56.2782 9.16086 56.2782C8.60253 56.2782 8.18488 56.056 7.90793 55.6117C7.63049 55.1674 7.62457 54.6985 7.89016 54.2048L15.3352 39.9412ZM19.6501 29.392C17.6394 29.392 15.9125 28.6745 14.4695 27.2394C13.0265 25.8038 12.305 24.0955 12.305 22.1144C12.305 20.0928 13.0265 18.3701 14.4695 16.9464C15.9125 15.5222 17.6394 14.8101 19.6501 14.8101C21.6603 14.8101 23.3691 15.5207 24.7766 16.942C26.1835 18.3627 26.887 20.0884 26.887 22.1188C26.887 24.1083 26.1835 25.8179 24.7766 27.2475C23.3691 28.6772 21.6603 29.392 19.6501 29.392ZM19.6442 26.43C20.8571 26.43 21.8738 26.0037 22.6943 25.1512C23.5148 24.2986 23.925 23.2725 23.925 22.0729C23.925 20.8728 23.5148 19.8558 22.6943 19.022C21.8738 18.1887 20.8571 17.7721 19.6442 17.7721C18.4312 17.7721 17.3985 18.187 16.5459 19.0169C15.6933 19.8467 15.267 20.8748 15.267 22.101C15.267 23.2819 15.6933 24.2986 16.5459 25.1512C17.3985 26.0037 18.4312 26.43 19.6442 26.43Z" fill="white"/>
</g>
</svg>
