<svg width="64" height="64" viewBox="0 0 64 64" fill="none" xmlns="http://www.w3.org/2000/svg">
<mask id="mask0_51_481" style="mask-type:alpha" maskUnits="userSpaceOnUse" x="0" y="0" width="64" height="64">
<rect width="64" height="64" fill="#D9D9D9"/>
</mask>
<g mask="url(#mask0_51_481)">
<path d="M32.2003 55.9999C28.8429 55.9999 25.6934 55.3657 22.7516 54.0973C19.8098 52.8288 17.2389 51.0946 15.0389 48.8946C12.8389 46.6946 11.1047 44.1237 9.83626 41.1819C8.56782 38.2402 7.93359 35.0906 7.93359 31.7333C7.93359 27.0426 9.17382 22.7348 11.6543 18.8099C14.1347 14.8855 17.486 11.9128 21.7083 9.89193C22.0225 9.77238 22.3336 9.72037 22.6416 9.73593C22.9491 9.75104 23.2225 9.83393 23.4616 9.9846C23.6807 10.1246 23.856 10.3357 23.9876 10.6179C24.1191 10.9002 24.1849 11.2464 24.1849 11.6566C24.3765 15.3726 25.1987 18.8964 26.6516 22.2279C28.1045 25.5595 30.1438 28.5382 32.7696 31.1639C35.3954 33.7897 38.3765 35.829 41.7129 37.2819C45.0498 38.7348 48.5763 39.557 52.2923 39.7486C52.7131 39.7486 53.0569 39.8093 53.3236 39.9306C53.5903 40.0519 53.7936 40.2222 53.9336 40.4413C54.0838 40.6804 54.1718 40.9588 54.1976 41.2766C54.2234 41.5948 54.1765 41.9059 54.0569 42.2099C52.0467 46.4322 49.074 49.7862 45.1389 52.2719C41.2038 54.7573 36.8909 55.9999 32.2003 55.9999ZM32.2003 53.3333C36.1114 53.3333 39.7336 52.3555 43.0669 50.3999C46.4003 48.4444 49.0225 45.7555 50.9336 42.3333C47.1114 41.9777 43.4891 41.0026 40.0669 39.4079C36.6447 37.8128 33.578 35.6597 30.8669 32.9486C28.1558 30.2375 26.0003 27.1795 24.4003 23.7746C22.8003 20.3693 21.8447 16.7555 21.5336 12.9333C18.1114 14.8444 15.4336 17.4777 13.5003 20.8333C11.5669 24.1888 10.6003 27.8222 10.6003 31.7333C10.6003 37.7333 12.7003 42.8333 16.9003 47.0333C21.1003 51.2333 26.2003 53.3333 32.2003 53.3333ZM37.7236 18.7486L34.6363 15.6613C34.2056 15.2306 33.9903 14.7282 33.9903 14.1539C33.9903 13.5793 34.2056 13.0766 34.6363 12.6459L37.7236 9.5586C38.1543 9.12793 38.6567 8.9126 39.2309 8.9126C39.8051 8.9126 40.3078 9.12793 40.7389 9.5586L43.8256 12.6459C44.2567 13.0766 44.4723 13.5793 44.4723 14.1539C44.4723 14.7282 44.2567 15.2306 43.8256 15.6613L40.7389 18.7486C40.3078 19.1793 39.8051 19.3946 39.2309 19.3946C38.6567 19.3946 38.1543 19.1793 37.7236 18.7486ZM51.6209 27.3126L50.0723 25.8153C49.778 25.5215 49.6309 25.1899 49.6309 24.8206C49.6309 24.4513 49.778 24.1195 50.0723 23.8253L51.6209 22.3279C51.9147 22.0342 52.2378 21.8873 52.5903 21.8873C52.9423 21.8873 53.2651 22.0342 53.5589 22.3279L55.0569 23.8253C55.3507 24.1195 55.4976 24.4513 55.4976 24.8206C55.4976 25.1899 55.3507 25.5215 55.0569 25.8153L53.5589 27.3126C53.2651 27.6068 52.9423 27.7539 52.5903 27.7539C52.2378 27.7539 51.9147 27.6068 51.6209 27.3126Z" fill="white"/>
</g>
</svg>
