<svg xmlns="http://www.w3.org/2000/svg" xmlns:xlink="http://www.w3.org/1999/xlink" width="309" height="309" viewBox="0 0 309 309">
  <defs>
    <clipPath id="clip-path">
      <rect id="사각형_74" data-name="사각형 74" width="202.057" height="222.495" fill="#fff"/>
    </clipPath>
  </defs>
  <g id="favicon" transform="translate(-2717 -5280)">
    <circle id="타원_1" data-name="타원 1" cx="145" cy="145" r="145" transform="translate(2736 5299)"/>
    <g id="favicon-2" data-name="favicon" transform="translate(2 -1)">
      <g id="favicon-3" data-name="favicon">
        <g id="그룹_25" data-name="그룹 25">
          <g id="그룹_21" data-name="그룹 21" transform="translate(2786.44 5334.333)">
            <g id="그룹_20" data-name="그룹 20" clip-path="url(#clip-path)">
              <path id="패스_17" data-name="패스 17" d="M27.662,184.582c-.28-2.789-2-4.847-3.8-7.09-3.772-4.691-.534-11.024-3.736-16.026-1.268-1.979-3.445-3.627-4.029-5.86-.362-1.385-.528-2.763-.988-4.138-.449-1.341-1.75-3.418-1.442-4.8.312-1.407,2.34-2.832,3.345-3.913,1.641-1.763,3.219-3.761,3.14-6.111-.076-2.221-1.545-4.091-3.148-5.747-1.654-1.707-3.85-2.913-3.414-5.291.468-2.555,1.708-4.962,1.656-7.592-.057-2.853-1.591-5.14-2.861-7.7-1.091-2.2-1.019-2.243.912-3.885,1.821-1.551,3.928-3,5.259-4.907,2.779-3.986.032-7.289-3.921-9.57A41.8,41.8,0,0,0,8.5,88.712a1.362,1.362,0,0,1-.354-.183,11.264,11.264,0,0,1,1.994-2.139c1.793-1.795,3.832-3.646,4.4-6.032a21.786,21.786,0,0,0,.112-4.648c.037-2.156.165-4.292.052-6.449-.232-4.426-8.372-4.45-8.139,0,.1,1.8.033,3.575-.018,5.372-.037,1.285.438,3.1.021,4.3-.579,1.665-2.779,3.109-4.015,4.458-3.092,3.377-3.792,7.234.262,10.25a39.086,39.086,0,0,0,5.563,3.145,23.917,23.917,0,0,0,2.7,1.465c.086.029.131.052.2.078-2.557,2.806-6.811,4.715-7.746,8.427-.613,2.434.665,4.886,1.824,7.052A14.6,14.6,0,0,1,7,117.24c.362,1.606-.33,3.2-.774,4.749-.653,2.283-1.363,4.794-.536,7.113.788,2.212,2.706,3.906,4.458,5.6,1.723,1.67,2.289,1.758.942,3.334-1.531,1.793-3.513,3.314-4.644,5.343-1.294,2.321-.9,4.652-.175,7.074.431,1.435,1.05,2.827,1.436,4.273a21.324,21.324,0,0,0,1.242,4.578c1.146,2.25,3.865,4.126,4.541,6.5.969,3.408-.011,7.2.838,10.66.694,2.824,3.06,4.7,4.616,7.156,1.8,2.84.211,7.489.354,10.64.2,4.429,8.339,4.45,8.137,0-.145-3.223.549-6.468.226-9.682M11.48,98.413c.389.193.084.207,0,0" transform="translate(0 8.637)" fill="#fff"/>
              <path id="패스_18" data-name="패스 18" d="M171.822,109.926a42.219,42.219,0,0,0-8.771-1.936c-1.335-.2-2.6-.469-3.9-.748a5.4,5.4,0,0,1-.589-.157,2.776,2.776,0,0,1-.543-.828c-1.5-2.891-.956-6.18-3.42-8.86a6.488,6.488,0,0,0-9.637.162,27.722,27.722,0,0,0-2.005,2.565,7.283,7.283,0,0,0-2.544-1.62c-2.934-1.037-5.154.232-7.146,1.652-3.995,2.851-10.117,7.08-9.169,11.4.409,1.86,2.079,3.434,2.539,5.27.465,1.858-1.363,3.612-2,5.374-1.592,4.409,2.631,6.841,6.931,9.539,2.065,1.295,3.427,1.763,2.615,3.62-.754,1.728-1.811,3.4-1.678,5.246.14,1.942,1.738,3.524,3.476,4.958a14.615,14.615,0,0,1,2.05,1.689c.648.8.513,1.624.858,2.5.693,1.763,2.328,3.227,3.236,4.916.8,1.485-.268,1.532-2.4,2.44a24.962,24.962,0,0,0-5.267,2.676c-2.212,1.684-2.9,4.185-4.217,6.224-1.139,1.762-2.6,3.316-2.8,5.289-.178,1.776,1.017,3.871.408,5.593-.658,1.865-3.528,3.93-5.178,5.476-2.322,2.177-5.044,4.058-7.634,6.071-.839.653-.309.614-1.851.53-1.175-.066-2.349-.116-3.524-.191a20.685,20.685,0,0,0-6.619.334c-2.544.679-4.194,2.252-5.856,3.675-1.614,1.38-4.03,2.167-5.414,3.647a12.244,12.244,0,0,0-2.365,4.43c-.207.572-1.172,2.152-1.486,3.1-.209-.059-.4-.113-.48-.145-1.188-.467-2.283-1.051-3.419-1.573a21.581,21.581,0,0,0-7.192-1.969c-3.27-.35-5.731-2-8.8-2.783a24.128,24.128,0,0,0-8.186-.257,21.44,21.44,0,0,1-4.119.234c-.225-.028-.424-.079-.5-.078a2.939,2.939,0,0,1-.487-.855c-.967-2.013-.731-4.32-.751-6.412-.035-3.643-8.174-3.651-8.137,0s-.274,8.279,3.482,11.182c3.912,3.024,9.377,1.217,14.3,1.336,2.546.061,4.57,1.362,6.8,2.118,2.451.834,5.087.744,7.45,1.493,4.158,1.316,7.728,4.574,12.865,3.565,4.414-.869,5.453-4.541,6.417-7.2a11.673,11.673,0,0,1,1.221-2.982c.47-.432,2.243-1.089,3.017-1.617,1.125-.766,2-1.687,3.027-2.513,1.727-1.392,2.563-1.234,5.229-1.063a27.6,27.6,0,0,0,6.979-.067c2.9-.561,4.815-2.382,6.77-3.849a75.245,75.245,0,0,0,7.406-6.373c1.741-1.7,4.061-3.54,4.851-5.591.777-2.02.028-4.069-.106-6.1-.126-1.916,1.8-3.689,2.838-5.431,1.174-1.965,1.5-3.332,4.092-4.464,4.047-1.765,8.482-3.5,8.166-7.3-.163-1.961-1.683-3.706-2.927-5.413s-1.11-3.565-2.472-5.215c-1.132-1.37-3.577-2.459-4.388-3.915s1.149-3.5,1.6-4.976c1.363-4.5-3.578-6.918-7.8-9.651-.724-.468-2.17-1.2-2.33-1.885-.143-.611.7-1.666,1.005-2.239.986-1.859,1.805-3.616,1.408-5.619a10.729,10.729,0,0,0-1.415-3.295c-.412-.709-1.29-1.64-1.252-2.418.042-.865,1.293-1.68,2-2.355a47.277,47.277,0,0,1,3.756-3.235c.017-.014.061-.044.1-.072.311.247.607.473.785.616a6.716,6.716,0,0,0,10.363-1.411l.014-.016.008.031a14.137,14.137,0,0,0,1.922,5.1c3.228,4.534,11.2,3.447,16.686,5.524,4.6,1.743,8.714-3.145,4.108-4.89m-13.341-.29c-.374-.159-.243-.192,0,0" transform="translate(6.006 12.487)" fill="#fff"/>
              <path id="패스_19" data-name="패스 19" d="M52.3,166.515c1.323-2.645,1.882-8.92,3.247-11.534a11.051,11.051,0,0,1,1.768-2.363,28.785,28.785,0,0,0,14.4,2.374,36.913,36.913,0,0,0,6.44-1.025c.011.031.025.059.037.088.145.368.015.057,0,0a3.869,3.869,0,0,1,.124.544c.018.124.062.392.119.834.269,2.064.806,4.272,2.739,5.414a10.946,10.946,0,0,0,4.74,1.1c0,.117-.006.233-.012.349-.126,1.919-.169,3.848,1.1,5.431,1.444,1.8,3.611,2.821,5.485,4.094a3.394,3.394,0,1,0,3.425-5.86c-.7-.472-1.419-.895-2.127-1.346-.371-.236-.725-.516-1.1-.74-.033-.019-.051-.033-.078-.051,0-.222,0-.442.017-.665a20.438,20.438,0,0,0,.1-2.367,5.447,5.447,0,0,0-2.587-4.664,11.79,11.79,0,0,0-4.932-1.038h-.017c-.012-.061-.021-.112-.029-.14a24.419,24.419,0,0,0-.421-2.7c-.046-.161-.111-.317-.169-.474a39.033,39.033,0,0,0,15.354-11.719c1.044-1.372.5-3.033-.636-4.184q-5.373-5.442-10.733-10.891a3.91,3.91,0,0,0-1.279-.87,10.026,10.026,0,0,0-.878-1.482,16.635,16.635,0,0,1,3.388-3.88c3.919-2.961-1.853-7.831-5.753-4.884a17.645,17.645,0,0,0-3.453,3.671c-.257-.163-.51-.329-.766-.487-3.593-2.213-7.374-4.638-11.493-6.082-5.633-1.977-12.124-.222-17.138,3.046a10.315,10.315,0,0,0-1.9-1.667,17.688,17.688,0,0,0-1.871-1.168c0-.181,0-.363.007-.544.052-2.151-.059-3.926-1.471-5.662-1.155-1.424-3.6-1.2-4.8,0a3.3,3.3,0,0,0-.5,4.031c0,.016,0,.032,0,.048l.02.02c.02.024.024.028.034.042a4.593,4.593,0,0,0,.44.657c.038.046-.338-.448-.494-.675.007.279.008.559,0,.838a16.419,16.419,0,0,0,.062,2.485,6.387,6.387,0,0,0,3.375,4.708c.523.334,1.384.768,1.721,1.045a2.723,2.723,0,0,1,.276.284,17.127,17.127,0,0,0-1.566,2.146,22.56,22.56,0,0,0-3.154,11.281c-.064,4.4,2.363,8.263,5.354,11.725a57.828,57.828,0,0,0,4.361,4.607,17.221,17.221,0,0,0-2.346,2.936c-1.635,2.706-2.07,9.111-3.453,11.881a3.282,3.282,0,0,0,1.458,4.724c1.7.863,4.711.475,5.568-1.24m40.145-2.789c-.359-.26-.006-.2,0,0M75.818,147.511a26.827,26.827,0,0,1-11.553.15,12.722,12.722,0,0,1-1.647-.55c1.249-1.551,2.365-3.172,3.551-4.767,1.017-1.368,2.122-2.61,3.031-3.962a13.929,13.929,0,0,0,.814,1.883c1.027,1.812,2.686,2.719,4.384,3.78.088.057.4.323.426.32.114.174.317.549.424.77.361.74.63,1.523,1.016,2.251-.148.037-.3.09-.447.124m-10.565-21.18c.076.059.118.087.156.113l-.023,0a1.247,1.247,0,0,0-.133-.115m14.891,1.652a3.677,3.677,0,0,0,3.124,2.365q4,4.056,8,8.116a33.887,33.887,0,0,1-8.55,6.384,41.717,41.717,0,0,0-2.348-4.359,8.77,8.77,0,0,0-2.378-2.2,15.062,15.062,0,0,1-1.993-1.2,2.2,2.2,0,0,1-.126-.251c-.519-1.235.2.528-.335-.737a14.7,14.7,0,0,0-1.482-3.027c-.555-.766-1.141-1.574-1.753-2.358a2.909,2.909,0,0,1,.262-.278c1.383-1.136,4.184-1.267,5.94-1.823a16.591,16.591,0,0,0,1.639-.633M63.515,116.892c3.612.292,7.194,3.249,10.088,4.895.354.2.717.4,1.08.614-.317.088-.649.176-1.011.267-2.571.649-5.165,1.4-7.08,3.071a7.84,7.84,0,0,0-.752.763c-.068-.011-.135-.027-.2-.038s-.121-.016-.165-.019c-.1-.155-.693-.748-.7-.751-.68-.744-1.457-1.448-2.092-2.234-.008-.187-.015-.372-.015-.559a14.407,14.407,0,0,0-.214-3.008,4.676,4.676,0,0,0-1.516-2.663,7.186,7.186,0,0,1,2.576-.337m-.889,6.518.027.043c.011.052.021.1.032.156-.025.078-.153,0-.059-.2m0-.012a.15.15,0,0,0,.008-.02c0,.012.006.026.008.038l-.016-.018m-5.015-.563c.081-.011.256.04.327,0a.557.557,0,0,1-.418.008l.092-.012m-7.453,12.245c-1.148-2.521-.672-5.377.1-7.934a12.588,12.588,0,0,1,1.591-3.4,13.162,13.162,0,0,0,3.9-.529l.14-.032a9.629,9.629,0,0,0,.238,2.15c.538,2.123,2.425,3.6,3.849,5.158a8.3,8.3,0,0,0,3.1,2.209c-.732,2.13-1.969,3.573-3.447,5.509-1.154,1.511-2.2,3.1-3.369,4.6-.06-.059-.127-.113-.187-.173-2.253-2.23-4.656-4.8-5.911-7.558" transform="translate(5.264 13.621)" fill="#fff"/>
              <path id="패스_20" data-name="패스 20" d="M76.42,85.179l.014.016.043.009-.014-.014-.043-.011" transform="translate(10.01 11.158)" fill="#fff"/>
              <path id="패스_21" data-name="패스 21" d="M44.241,85.744c.2-.067.389-.133.589-.189.413-.114.832-.2,1.253-.27-.024.01.61-.085.656-.089q.334-.032.668-.054a20.966,20.966,0,0,1,2.1-.04q.092,0,.183.01a3.3,3.3,0,0,0,.05.331,4.864,4.864,0,0,0,2.075,2.96,5.452,5.452,0,0,0,4.939.4c.243-.087.5-.2.757-.279.378.243,1.136.829,1.681,1.106a9.531,9.531,0,0,0,1.143.482l.351.1.273.035c.115.122.271.277.4.422,1.077,1.211,2.06,2.512,3.688,3.015a6.309,6.309,0,0,0,.818.132c.139.316.734.524,1.053.776,1.571,1.245,3.421,2.42,5.527,1.885,1.933-.491,3.126-2.192,4.147-3.865a8.764,8.764,0,0,0,1.595,2.286c1.734,1.675,3.835,1.331,6.025,1.379-.6-.014.477-.031.549-.024l.352.087c-.112-.123-.1-.121.042.011.122.032.129.036.015.014l.146.138a15.553,15.553,0,0,0,1.6,1.56c1.445,1.217,3.031,1.854,4.229,2.975,3.186,2.981,7.995-1.807,4.8-4.8a31.173,31.173,0,0,0-4.288-3.074,6.875,6.875,0,0,1-1.017-.936,9.775,9.775,0,0,0-2.42-1.908,10.1,10.1,0,0,0-5.564-.811c-.227-.422-.468-.839-.681-1.264-1.266-2.531-3.269-5.221-6.494-4.251-2.21.665-3.528,3.037-4.7,5.042-.387-.306-.789-.638-1.2-.908a6.575,6.575,0,0,0-1.395-.679,4.442,4.442,0,0,0-.708-.131c-.133-.148-.329-.3-.434-.417-.443-.5-.843-1.041-1.32-1.509a6.085,6.085,0,0,0-2.394-1.553,8.777,8.777,0,0,0-.908-.181q-.767-.037-.271-.088.405.107-.152-.164a6.465,6.465,0,0,0-5.605-1.586c-.14.027-.288.058-.439.092-.994-2.811-3.612-3.5-6.408-3.591-1-2.046-3.253-3.889-4.728-5.407.313-.307.623-.615.909-.948a7.977,7.977,0,0,0,1.953-3.923c.088-.527.155-1.354.219-1.87.206-.014.412-.035.618-.049a16.873,16.873,0,0,0,3.407-.425,5.489,5.489,0,0,0,2.977-2.159c.666-.822,1.765-1.69,2.542-2.656a5.931,5.931,0,0,0,1.43-4.176,16.323,16.323,0,0,0-.271-1.927c-.052-.292-.122-.581-.164-.875,0,0-.006-.052-.011-.1.153-.347.336-.745.466-1.113a21.126,21.126,0,0,0,.543-2.05c0-.014.01-.038.017-.06a13.6,13.6,0,0,0,5.369-.489c2.656-1.077,3.23-3.905,2.283-6.4a32.954,32.954,0,0,0-1.369-3.014c-.023-.044-.055-.122-.087-.2.328-.645.568-1.358.849-2,.054-.123.1-.252.157-.377.2,0,.406,0,.607.024,2,.185,4.239.771,6.106-.31a7.013,7.013,0,0,0,2.552-3.345c.214-.475.408-.946.654-1.4a3.872,3.872,0,0,0,.906-1.579c.567-2.122-.509-4.064-1.562-5.836,3.422-.766,7.8-2.005,6.577-6.163-.662-2.247-3.008-3.029-5.057-3.476-.831-.181-1.67-.325-2.5-.5-.1-.021-.206-.048-.309-.07a5.822,5.822,0,0,0,.009-2.457,4.71,4.71,0,0,0-.312-.96l.009-.051c.113-.5.236-.987.362-1.48a15.26,15.26,0,0,0,.607-3.3c.072-3.086-2.1-4.535-4.656-5.71A14.42,14.42,0,0,0,66.721.039a5.692,5.692,0,0,0-3.794,1c-.841.533-1.615,1.16-2.459,1.689l-.176,0a16.021,16.021,0,0,0-2.835.3A10.335,10.335,0,0,1,53.9,3.14a6.955,6.955,0,0,0-4.793.915,10.42,10.42,0,0,0-2.549,2.479c-.217-.063-.438-.116-.655-.184a11.8,11.8,0,0,0-3.283-.718A6.5,6.5,0,0,0,38.821,7,28.67,28.67,0,0,0,35.25,9.424a8.163,8.163,0,0,0-2.265,3.885c-.079.242-.149.486-.233.727-.044.127-.072.215-.1.286-.014.025-.026.046-.051.1a.861.861,0,0,0-.04.089c-.038.05-.079.1-.143.192a12.139,12.139,0,0,0-.725.991c-.662,1.141-.931,2.771-1.5,3.653a9.058,9.058,0,0,0-1.371,3.44c-.011.061-.032.161-.054.273a12.53,12.53,0,0,0-4.9.308c-2.894.96-3.534,3.934-2.553,6.535.146.387.318.765.484,1.143a11.547,11.547,0,0,0-2.592-.014c-3.42.444-4.818,3.345-4.677,6.541a19.357,19.357,0,0,0,.114,3.983c.133.624.356,1.218.529,1.831.041.144.094.318.138.492a.447.447,0,0,0-.052.031,7,7,0,0,0-1.008,1.417,8.353,8.353,0,0,0-.957,1.686,11.215,11.215,0,0,0-.509,4.963,6.68,6.68,0,0,0,.02,1.242.5.5,0,0,1,.011.078c-.227.428-.23.325-.576.729a8.172,8.172,0,0,0-2.1,3.685,3.486,3.486,0,0,0,2.369,4.173,3.422,3.422,0,0,0,4.173-2.369c.019-.1.029-.173.036-.227l0-.007c.028-.061.207-.31.268-.4.38-.492.8-.956,1.171-1.453a7.25,7.25,0,0,0,1.44-4.459c.012-.664-.058-1.328-.08-1.992a9.269,9.269,0,0,1,0-1.241l.011-.107c.437-1,1.369-1.793,1.857-2.783a6.949,6.949,0,0,0,.447-4.858c-.145-.622-.4-1.214-.545-1.834a.536.536,0,0,0-.06-.184c0-.072,0-.166-.009-.3.028.7.123-.916.129-1.116.008-.244.014-.5.009-.758.21.017.421.027.632.05,2.311.236,4.715.254,6.413-1.595,1.733-1.889,1.134-4.222.275-6.312a7,7,0,0,0,3.909-.6,5.437,5.437,0,0,0,2.453-3.269,16.738,16.738,0,0,0,.4-1.857,6.875,6.875,0,0,1,.157-.727,1.979,1.979,0,0,0,.055-.2c.02-.006.068-.051.178-.208a12,12,0,0,0,1.616-3.713c-.017.061-.353.671.114-.245-.176.345.055-.072.1-.143a10.983,10.983,0,0,0,1.378-2.428c.231-.589.389-1.2.607-1.791.021-.06.182-.637.057-.182.154-.554.2-.236.027-.077.875-.8,2.095-1.262,3.065-2,.226.069.457.127.682.2a13.8,13.8,0,0,0,3.394.794,5.182,5.182,0,0,0,3.67-1.33,10.85,10.85,0,0,0,1.379-1.413c.17-.2.33-.4.5-.6.1-.116.208-.226.318-.334.183.036.646.045.736.054.44.045,1.411.25,2.062.259,1.527.019,2.988-.568,4.51-.607a7.4,7.4,0,0,0,3.638-.805c.923-.5,1.712-1.2,2.589-1.762.152.059.333.128.37.14.525.216,1.039.464,1.544.724.05.026.1.054.146.08-.015.064-.026.13-.042.195-.234.961-.5,1.909-.655,2.889-.139.886-.382,2.642.2,3.549a6.815,6.815,0,0,0-.416,2.417,4.327,4.327,0,0,0,2.194,3.861,4.433,4.433,0,0,0-1.241,5.037,16.129,16.129,0,0,0,1.38,2.738c.2.342.409.681.608,1.026.061.106.119.214.179.321-.252.475-.424.993-.656,1.479-.033.07-.071.139-.109.208-.333-.028-.665-.061-1-.1a19.053,19.053,0,0,0-2.811-.239,5.8,5.8,0,0,0-3.427,1.035c-1.3.966-1.81,2.506-2.426,3.938-.53,1.233-1.374,2.317-1.436,3.7a6.913,6.913,0,0,0,.707,3.073c.11.258.232.51.351.763a15.28,15.28,0,0,0-2.152.121c-3.21.452-4.2,2.916-4.9,5.759-.307,1.249-.984,2.231-1.052,3.658a9.959,9.959,0,0,0,.189,2.031c.046.292.1.58.154.87.01.054.034.249.057.417-.364.343-.844.939-.994,1.078a12.427,12.427,0,0,0-1.389,1.522c-.034.006-.067.01-.094.012-.452.031-.9.063-1.357.093a13.859,13.859,0,0,0-3.3.467c-3.207,1.026-3.472,4.037-3.844,6.916a2.335,2.335,0,0,1-.166.455,13.948,13.948,0,0,1-1.1,1.137,8.1,8.1,0,0,0-2.363,3.488c-.572,2.186.935,4.094,2.3,5.6.5.555,1.029,1.094,1.554,1.632a8.632,8.632,0,0,0-1.632.634,5.3,5.3,0,0,0-2.5,3.6c-.541,1.889-1.586,5.762.31,7.287a3.451,3.451,0,0,0,5.671-1.5c.2-.544.224-1.188.38-1.749.076-.274.166-.541.256-.81a.174.174,0,0,1,.011-.027c.115-.217.248-.426.37-.639.023-.023.058-.061.09-.1m31.013,4.291h0c-.009-.007-.017-.009-.026-.017a.254.254,0,0,0,.026.017m-8.338-2.8a1.3,1.3,0,0,1-.526-.129l.526.129M61.288,90.3l-.02-.012c.469.061.477.066.02.012M56.314,83.79c.032.385.027.372-.014-.024a.252.252,0,0,1,.014.024M76.985,18.352c.064-.06.119-.1,0,0M74.83,23.768c-.007-.01-.011-.02-.017-.031-.024-.087-.06-.184-.079-.265.034.009.087.111.1.3m-53.564,13c-.067-.526.08-.146,0,0m7.258-12.58c-.08-.063-.037-.159.064-.266-.035.156-.062.269-.064.266M42.479,12.457c-.192.044-.181-.027.018-.017-.016.01-.012.011-.018.017m4.663-5.769a.479.479,0,0,0,.076.032L47.136,6.7l.007-.008M65.8,6.777c-.362-.006-.323-.093,0,0m7.382,8.3-.028-.01c-.074-.058-.058-.055.028.01m-.058-.023c-.293-.13-.493-.328,0,0M71.641,28.421a4.735,4.735,0,0,0-.932,1.214c.032-.277.244-.619.932-1.214m-.929,3.247c-.032,0-.064,0-.1,0,.523-.165.369.042.1,0m-4.93,6.394c-.173,0-.3-.031,0,0m-4.941,8.309a.448.448,0,0,1-.1-.33,1.1,1.1,0,0,0,.1.33M49.722,59.237c.46-.118.232-.044,0,0m-.071.018h0l-.02,0,.021,0m-1.577,5.974c.017.035-.015.106-.066.188.026-.127.051-.218.066-.188m-3.8,20.485c.182-.088.459-.153-.019.02l.019-.02m-.066.036.015-.008-.011.008h0m-.252-12.027c-.018.11-.048.18-.1.175-.14-.009-.036-.083.1-.175m-.171,12.755c.063-.158.25-.469,0,0m.258-8.144-.077.016-.084.021a.235.235,0,0,1,.239-.081c-.026.015-.052.031-.078.044m.036-6.236a.38.38,0,0,1-.025-.04c.093.1.157.17.025.04" transform="translate(1.319 0)" fill="#fff"/>
              <path id="패스_22" data-name="패스 22" d="M186.736,103.164a18.778,18.778,0,0,0-1.635-.992c-.029-.016-.057-.034-.085-.051.061-.167.117-.336.179-.5a10.871,10.871,0,0,0,.737-2.826c.2-2.121-1.091-4.186-1.929-6.06a6.549,6.549,0,0,0-3.927-3.945c-.568-.223-1.151-.394-1.735-.575q-.348-.109-.693-.226l-.016-.021c.083,0-.028-.1-.12-.149-.119-.145-.235-.286-.3-.357a5.253,5.253,0,0,0-.639-.63,13.645,13.645,0,0,0-2.429-1.509c-.029-.016-.088-.055-.156-.1.054-.655.1-1.518.116-1.633.233-2.228-.793-3.715-1.641-5.656-.9-2.063-1.926-3.876-4.151-4.677a8.068,8.068,0,0,0-1.754-.369l0-.009c.793-2.467,2.267-5.717.4-8.048-1.361-1.7-3.525-1.782-5.5-1.328-.713.164-1.4.418-2.1.633-.309.095-.631.163-.935.267a.8.8,0,0,0-.113.046,1.417,1.417,0,0,0-.158-.033,10.505,10.505,0,0,0-3.531.269c-.131.025-.3.048-.468.078-1.353-.931-2.806-1.989-4.521-2a5.183,5.183,0,0,0-4.458,3.033c-.292.541-.52,1.114-.8,1.661-.011.023-.043.07-.068.11a14.433,14.433,0,0,0-2.493.128c-.133.017-.387.055-.64.1a1.221,1.221,0,0,0-.1-.068c-1.6-.9-3.221-1.89-5.129-1.654-2.9.359-3.808,2.959-4.457,5.449-1.71-.8-3.591-1.247-5.343-.21a6.559,6.559,0,0,0-2.514,3.41,13.245,13.245,0,0,0-1.761-1.065,5.216,5.216,0,0,0-3.012-.582c-.127.016-.305.051-.474.075l-.078-.014c-.4-.07-.05-.019,0-.006-.249-.067-.5-.122-.753-.187-2.2-.561-4.124-.745-6.18.4-1.642.915-2.668,2.1-4.34,2.59-1.894.553-4.328,1-5.437,2.834a5.785,5.785,0,0,0-.58,3.74c.173,1.443.487,2.852.776,4.274.02.1.038.2.058.3-.078.024-.167.049-.236.068a6.777,6.777,0,0,0-2.893,1.664c-3.134,3.005,1.572,7.742,4.726,4.855.043-.007.085-.015.145-.023a8.814,8.814,0,0,0,1.076-.235,7.5,7.5,0,0,0,2.181-.947,4.553,4.553,0,0,0,1.978-4.051,30.105,30.105,0,0,0-.908-5.562,15.929,15.929,0,0,0,4.049-1.642c.62-.377,1.173-.855,1.756-1.283a7.848,7.848,0,0,0,.964-.716c.34.041.9.249,1.441.378a9.3,9.3,0,0,0,2.679.32l.235-.032c.38.239.757.48,1.121.746a9.64,9.64,0,0,0,3.327,1.818c3.375.852,4.886-1.773,6.008-4.322a7.6,7.6,0,0,0,3.546,1.059c3.169-.027,4.2-2.873,4.884-5.442a8.689,8.689,0,0,0,1.531.657c1.508.448,3.144.024,4.676-.02,2.213-.062,4.11-.52,5.452-2.412a10.074,10.074,0,0,0,.854-1.527,6.267,6.267,0,0,0,3.582,1.221c.993-.032,1.932-.442,2.912-.516.611-.046,1.212.085,1.824.044a7.8,7.8,0,0,0,1.261-.2,17.859,17.859,0,0,0-.621,2.44,4.762,4.762,0,0,0,1.018,4.3c1.3,1.362,3.181,1.622,4.953,1.814.032,0,.105.015.176.025s.145.04.241.069c.111.232.244.461.355.692a26.615,26.615,0,0,0,1.137,2.46c.027.044.043.071.064.107-.018.293-.019.767.015.362-.193,2.309-.581,4.367,1.141,6.285a11.684,11.684,0,0,0,3.6,2.4c-.021-.033-.04-.062-.079-.113.028.037.054.077.083.114l.085.043a.758.758,0,0,0-.077-.032,7.425,7.425,0,0,0,.774.978,7.123,7.123,0,0,0,2.495,1.443c.571.221,1.158.388,1.743.571.191.059.379.124.568.188.01.037.015.063.028.109a14.715,14.715,0,0,0,.826,1.849c.138.31.278.618.409.93.051.121.1.242.148.363,0-.075.074-.105.028.071l.007.017-.008-.009a1.649,1.649,0,0,1-.076.214c-.156.371-.276.768-.416,1.145a9.818,9.818,0,0,0-.539,1.893,5.512,5.512,0,0,0,2.5,5.654c.093.066.191.12.285.182-.025.025-.055.045-.08.071a5.452,5.452,0,0,0-1.253,2.142c-.447-.015-.869-.019-1.015-.029a6.806,6.806,0,0,0-2.688.326c-1.816.632-3.145,2.082-4.824,2.962a3.394,3.394,0,1,0,3.425,5.86,17.262,17.262,0,0,0,2.183-1.442c.413-.3.843-.575,1.261-.866l.1-.07a.764.764,0,0,1,.154-.006c1.982.152,3.921.492,5.714-.63a4.675,4.675,0,0,0,1.941-2.787,3.978,3.978,0,0,0,.192-1.009c.127-.107.242-.212.191-.178.355-.279.723-.543,1.069-.832a5.426,5.426,0,0,0,1.805-2.488c.683-2.25-.562-4.134-2.333-5.4M102.042,88.784c-.031,0-.02-.092.009-.216,0,.084-.007.216-.009.216m1.393,4.88c-.166.077-.359.059,0,0M107.7,81.434c-.007-.14,0-.245.031-.252a.747.747,0,0,1-.031.252m17.485-5.566h.027c.081.052.09.08-.027,0m4.932.909c.014-.029.021-.049.021-.049-.1-.243.653-.326-.021.049m3.068-4.358.017,0a.467.467,0,0,0,.047.021.226.226,0,0,1-.064-.019m.113.027-.071-.033c.534-.064.28.043.071.033m8.093-4.518.035,0c.055.055.028.044-.035,0m3.515-.4c.214-.138.157-.064,0,0m4.1,1.954c-.26,0-.311-.215,0,0m2.1-.328a1.834,1.834,0,0,0,.3-.535.551.551,0,0,1-.3.535m12.228.914a1.071,1.071,0,0,0,.389-.118.329.329,0,0,1-.389.118m2.7,4.7.012.051c-.018.137-.04.12-.012-.051m.016-.009c0-.02,0-.038,0-.059l0-.018c0,.025,0,.057,0,.077m7.245,10.061a.191.191,0,0,1,.171.063.361.361,0,0,0-.171-.063m4.174,3.111c.023.008.027.006.045.011l0,0-.05-.016m3.235,21.925a.22.22,0,0,1,.2.071.488.488,0,0,0-.2-.071m3.577-8.176.023.014h0l-.024-.015m.036.021h0a1.633,1.633,0,0,1,.195.119c-.064-.04-.128-.081-.193-.118m.411,1.364a.577.577,0,0,0,.033-.1c-.02.153-.2.378-.033.1" transform="translate(12.798 8.221)" fill="#fff"/>
              <path id="패스_23" data-name="패스 23" d="M163.5,88.553l.008.011h0l-.008-.011h0" transform="translate(21.417 11.6)" fill="#fff"/>
              <path id="패스_24" data-name="패스 24" d="M169.686,94.251a.115.115,0,0,0,.026.079l0-.008c-.01-.024-.02-.048-.028-.071" transform="translate(22.228 12.346)" fill="#fff"/>
              <path id="패스_25" data-name="패스 25" d="M163.515,88.566c-.32-.128.19.294,0,0" transform="translate(21.405 11.598)" fill="#fff"/>
              <path id="패스_26" data-name="패스 26" d="M40.6,108.516v-.045c-.094-.1-.074-.062,0,.045" transform="translate(5.31 14.201)" fill="#fff"/>
            </g>
          </g>
          <rect id="사각형_75" data-name="사각형 75" width="309" height="309" transform="translate(2715 5281)" fill="none"/>
        </g>
      </g>
    </g>
  </g>
</svg>
