<svg width="18" height="18" viewBox="0 0 18 18" fill="none" xmlns="http://www.w3.org/2000/svg">
<mask id="mask0_39_1818" style="mask-type:alpha" maskUnits="userSpaceOnUse" x="0" y="0" width="18" height="18">
<rect width="18" height="18" fill="#D9D9D9"/>
</mask>
<g mask="url(#mask0_39_1818)">
<path d="M12.8091 9.37515H4.125C4.01825 9.37515 3.92906 9.33934 3.85744 9.26771C3.78581 9.19609 3.75 9.1069 3.75 9.00015C3.75 8.8934 3.78581 8.80421 3.85744 8.73259C3.92906 8.66096 4.01825 8.62515 4.125 8.62515H12.8091L8.73038 4.54628C8.65725 4.47328 8.619 4.38721 8.61563 4.28809C8.61225 4.18909 8.65194 4.09821 8.73469 4.01546C8.81731 3.93571 8.90575 3.89509 9 3.89359C9.09425 3.89221 9.18269 3.93284 9.26531 4.01546L13.8259 8.57603C13.8914 8.64153 13.9373 8.7084 13.9637 8.77665C13.9902 8.8449 14.0034 8.9194 14.0034 9.00015C14.0034 9.0809 13.9902 9.1554 13.9637 9.22365C13.9373 9.2919 13.8914 9.35878 13.8259 9.42428L9.26531 13.9848C9.19519 14.055 9.10988 14.0925 9.00938 14.0973C8.90887 14.1021 8.81731 14.0646 8.73469 13.9848C8.65194 13.9021 8.61056 13.8129 8.61056 13.7173C8.61056 13.6215 8.65194 13.5323 8.73469 13.4497L12.8091 9.37515Z" fill="#4578E5"/>
</g>
</svg>
