<svg width="29" height="29" viewBox="0 0 29 29" fill="none" xmlns="http://www.w3.org/2000/svg">
<mask id="mask0_39_1748" style="mask-type:alpha" maskUnits="userSpaceOnUse" x="0" y="0" width="29" height="29">
<rect width="29" height="29" fill="#D9D9D9"/>
</mask>
<g mask="url(#mask0_39_1748)">
<path d="M19.3367 10.1493L8.58255 20.9035C8.36102 21.125 8.07908 21.2358 7.73672 21.2358C7.39436 21.2358 7.11241 21.125 6.89089 20.9035C6.66936 20.682 6.55859 20.4 6.55859 20.0577C6.55859 19.7153 6.66936 19.4334 6.89089 19.2118L17.6451 8.45768H8.46172C8.11936 8.45768 7.83238 8.34188 7.60078 8.11029C7.36918 7.87869 7.25339 7.59171 7.25339 7.24935C7.25339 6.90699 7.36918 6.62001 7.60078 6.38841C7.83238 6.15681 8.11936 6.04102 8.46172 6.04102H20.5451C20.8874 6.04102 21.1744 6.15681 21.406 6.38841C21.6376 6.62001 21.7534 6.90699 21.7534 7.24935V19.3327C21.7534 19.675 21.6376 19.962 21.406 20.1936C21.1744 20.4252 20.8874 20.541 20.5451 20.541C20.2027 20.541 19.9157 20.4252 19.6841 20.1936C19.4525 19.962 19.3367 19.675 19.3367 19.3327V10.1493Z" fill="white"/>
</g>
</svg>
