<svg width="12" height="12" viewBox="0 0 12 12" fill="none" xmlns="http://www.w3.org/2000/svg">
<mask id="mask0_45_1546" style="mask-type:alpha" maskUnits="userSpaceOnUse" x="0" y="0" width="12" height="12">
<rect x="0.666016" y="0.666992" width="10.6667" height="10.6667" fill="#D9D9D9"/>
</mask>
<g mask="url(#mask0_45_1546)">
<path d="M8.25701 6.22199H3.11089C3.04763 6.22199 2.99478 6.20076 2.95234 6.15832C2.90989 6.11587 2.88867 6.06302 2.88867 5.99976C2.88867 5.9365 2.90989 5.88365 2.95234 5.84121C2.99478 5.79876 3.04763 5.77754 3.11089 5.77754H8.25701L5.84001 3.36043C5.79667 3.31717 5.77401 3.26617 5.77201 3.20743C5.77001 3.14876 5.79352 3.09491 5.84256 3.04588C5.89152 2.99862 5.94393 2.97454 5.99978 2.97365C6.05563 2.97284 6.10804 2.99691 6.15701 3.04588L8.85956 5.74843C8.89838 5.78725 8.9256 5.82687 8.94123 5.86732C8.95693 5.90776 8.96478 5.95191 8.96478 5.99976C8.96478 6.04762 8.95693 6.09176 8.94123 6.13221C8.9256 6.17265 8.89838 6.21228 8.85956 6.2511L6.15701 8.95365C6.11545 8.99521 6.06489 9.01743 6.00534 9.02032C5.94578 9.02313 5.89152 9.00091 5.84256 8.95365C5.79352 8.90461 5.76901 8.85176 5.76901 8.7951C5.76901 8.73836 5.79352 8.6855 5.84256 8.63654L8.25701 6.22199Z" fill="white"/>
</g>
</svg>
