<svg width="115" height="39" viewBox="0 0 115 39" fill="none" xmlns="http://www.w3.org/2000/svg">
<g clip-path="url(#clip0_39_1516)">
<path d="M33.6408 29.6544C32.855 29.3674 32.7061 29.176 32.7061 28.8468C32.7061 28.5175 32.9322 28.2558 33.4698 28.2558C33.8641 28.2558 34.126 28.3881 34.4128 28.6301L34.694 28.2783C34.3632 28.0082 34.0268 27.8506 33.4974 27.8506C32.764 27.8506 32.2677 28.2333 32.2677 28.8749C32.2677 29.4546 32.5544 29.736 33.4037 30.0455C34.1233 30.3101 34.3411 30.5211 34.3411 30.8926C34.3411 31.3175 34.0158 31.582 33.4946 31.582C33.0893 31.582 32.7474 31.3907 32.4497 31.1008L32.1602 31.4329C32.469 31.7537 32.946 31.9901 33.4809 31.9901C34.2997 31.9901 34.7823 31.5004 34.7823 30.8729C34.7823 30.2453 34.5148 29.978 33.6435 29.6572L33.6408 29.6544Z" fill="#121B60"/>
<path d="M36.5643 28.8552C36.181 28.8552 35.8336 28.9509 35.5744 29.0944L35.7344 29.4434C35.9742 29.2999 36.2279 29.2126 36.5367 29.2126C36.9668 29.2126 37.1764 29.4293 37.1764 29.8796V30.2341C37.0027 30.1356 36.7352 30.0597 36.4402 30.0597C35.8584 30.0597 35.3125 30.3467 35.3125 31.0221C35.3125 31.7481 35.795 31.9845 36.2527 31.9845C36.6773 31.9845 36.9668 31.7819 37.1764 31.5539V31.9226H37.5955V29.8233C37.5955 29.1254 37.1984 28.8496 36.5643 28.8496V28.8552ZM37.1736 31.1881C36.9944 31.4385 36.7076 31.6383 36.3271 31.6383C35.966 31.6383 35.7233 31.4442 35.7233 30.9967C35.7233 30.6197 35.9825 30.4058 36.4154 30.4058C36.7738 30.4058 36.9806 30.4733 37.1736 30.5803V31.1909V31.1881Z" fill="#121B60"/>
<path d="M41.8245 30.1635V31.9251H42.2436V30.0932C42.2436 29.2152 41.8686 28.855 41.2675 28.855C40.7878 28.855 40.5479 29.0829 40.3742 29.37C40.2336 29.0829 39.9827 28.855 39.5663 28.855C39.2189 28.855 38.9708 29.0266 38.8191 29.2855V28.9197H38.3945V31.9279H38.8191V30.1663C38.8191 29.4994 39.07 29.2264 39.4754 29.2264C39.8807 29.2264 40.1095 29.4769 40.1095 30.1663V31.9279H40.5314V30.1663C40.5314 29.4994 40.7878 29.2264 41.1876 29.2264C41.6122 29.2264 41.8217 29.4769 41.8217 30.1663L41.8245 30.1635Z" fill="#121B60"/>
<path d="M43.9339 30.1751C43.4348 29.9444 43.2859 29.8459 43.2859 29.5898C43.2859 29.3703 43.4624 29.2184 43.774 29.2184C44.0855 29.2184 44.2785 29.3028 44.5074 29.4885L44.7417 29.1705C44.5184 28.982 44.2041 28.8525 43.8015 28.8525C43.2639 28.8525 42.8806 29.1621 42.8806 29.618C42.8806 30.0992 43.126 30.2821 43.7188 30.541C44.2399 30.7689 44.4136 30.9068 44.4136 31.1544C44.4136 31.4471 44.2234 31.6188 43.8181 31.6188C43.5258 31.6188 43.2501 31.4978 43.0157 31.2867L42.7676 31.5991C43.0488 31.8298 43.4017 31.9846 43.807 31.9846C44.3171 31.9846 44.8162 31.7285 44.8162 31.1347C44.8162 30.5973 44.4908 30.4312 43.9311 30.1723L43.9339 30.1751Z" fill="#121B60"/>
<path d="M47.2743 30.6758C47.2743 31.3343 46.9517 31.6129 46.5464 31.6129C46.0721 31.6129 45.8488 31.323 45.8488 30.6758V28.917H45.4297V30.7489C45.4297 31.6129 45.8405 31.9871 46.4609 31.9871C46.8331 31.9871 47.1061 31.8098 47.2743 31.5566V31.9252H47.6961V28.917H47.2743V30.6758Z" fill="#121B60"/>
<path d="M50.6754 31.9251V30.0932C50.6754 29.2264 50.2646 28.855 49.6415 28.855C49.272 28.855 48.9963 29.0323 48.8309 29.2855V28.9197H48.4062V31.9279H48.8309V30.1663C48.8309 29.5078 49.1479 29.2264 49.556 29.2264C50.0275 29.2264 50.2536 29.5191 50.2536 30.1663V31.9279H50.6754V31.9251Z" fill="#121B60"/>
<path d="M52.0007 32.7022L52.1358 33.0286C53.2304 32.9948 53.6274 32.5587 53.6274 31.6525V28.9144H53.2055V29.2521C52.9988 29.0101 52.7451 28.8525 52.3756 28.8525C51.758 28.8525 51.2617 29.4013 51.2617 30.4678C51.2617 31.5343 51.7304 31.9846 52.3177 31.9846C52.7175 31.9846 52.9988 31.782 53.2055 31.554V31.7088C53.2055 32.4095 52.9822 32.674 51.9979 32.6994L52.0007 32.7022ZM52.428 31.6131C51.962 31.6131 51.6808 31.2192 51.6808 30.4622C51.6808 29.6545 51.9207 29.224 52.4115 29.224C52.7616 29.224 53.0456 29.4238 53.2083 29.6742V31.1798C53.0015 31.4443 52.7423 31.6131 52.428 31.6131Z" fill="#121B60"/>
<path d="M58.277 29.8909C58.277 28.5148 57.516 27.9126 56.4848 27.9126H55.4453V31.9254H56.4076C57.4581 31.9254 58.277 31.3457 58.277 29.8909ZM55.8837 28.3178H56.4517C57.3561 28.3178 57.8386 28.8806 57.8386 29.9049C57.8386 31.0587 57.3092 31.5174 56.4627 31.5174H55.8837V28.3178Z" fill="#121B60"/>
<path d="M59.3984 29.2885V28.917H58.9766V31.9252H59.3984V30.158C59.3984 29.5839 59.63 29.2491 60.0408 29.2491C60.2366 29.2491 60.3634 29.2941 60.482 29.3644L60.5868 28.9311C60.4875 28.886 60.3469 28.8579 60.1263 28.8579C59.8092 28.8579 59.5308 29.0521 59.3984 29.2913V29.2885Z" fill="#121B60"/>
<path d="M63.107 31.6382L62.9084 31.3287C62.6382 31.5116 62.437 31.6157 62.0923 31.6157C61.6125 31.6157 61.312 31.2076 61.2734 30.5689H63.2365C63.2503 30.4985 63.2558 30.4366 63.2558 30.3353C63.2558 29.477 62.8367 28.8579 62.0675 28.8579C61.3672 28.8579 60.8516 29.4517 60.8516 30.4056C60.8516 31.5904 61.5078 31.99 62.0482 31.99C62.4921 31.99 62.7513 31.8689 63.107 31.641V31.6382ZM62.0675 29.2266C62.5831 29.2266 62.8312 29.6346 62.8643 30.2171H61.2734C61.323 29.5445 61.6291 29.2266 62.0675 29.2266Z" fill="#121B60"/>
<path d="M64.6614 31.9874C65.0832 31.9874 65.3727 31.7848 65.5795 31.5568V31.9255H66.0014V29.8262C66.0014 29.1283 65.6043 28.8525 64.9702 28.8525C64.5869 28.8525 64.2395 28.9482 63.9803 29.0917L64.1375 29.4407C64.3801 29.2972 64.631 29.2099 64.9398 29.2099C65.3727 29.2099 65.5795 29.4266 65.5795 29.8769V30.2314C65.4058 30.1329 65.1411 30.057 64.8461 30.057C64.2616 30.057 63.7129 30.344 63.7129 31.0194C63.7129 31.7454 64.1982 31.9818 64.6586 31.9818L64.6614 31.9874ZM64.824 30.4031C65.1825 30.4031 65.392 30.4706 65.5823 30.5776V31.1882C65.4031 31.4387 65.1163 31.6385 64.7358 31.6385C64.3774 31.6385 64.132 31.4443 64.132 30.9969C64.132 30.6198 64.3939 30.4059 64.824 30.4059V30.4031Z" fill="#121B60"/>
<path d="M70.2314 30.1635V31.9251H70.6533V30.0932C70.6533 29.2152 70.2783 28.855 69.6772 28.855C69.2002 28.855 68.9576 29.0829 68.7867 29.37C68.646 29.0829 68.3951 28.855 67.9788 28.855C67.6286 28.855 67.3832 29.0266 67.2316 29.2855V28.9197H66.8125V31.9279H67.2316V30.1663C67.2316 29.4994 67.4853 29.2264 67.8906 29.2264C68.2959 29.2264 68.5275 29.4769 68.5275 30.1663V31.9279H68.9466V30.1663C68.9466 29.4994 69.203 29.2264 69.6055 29.2264C70.0301 29.2264 70.2397 29.4769 70.2397 30.1663L70.2314 30.1635Z" fill="#121B60"/>
<path d="M33.6408 35.6233C32.8522 35.3362 32.7088 35.1477 32.7088 34.8156C32.7088 34.4836 32.9349 34.2275 33.4726 34.2275C33.8669 34.2275 34.1316 34.3569 34.4155 34.5989L34.6968 34.25C34.3659 33.9827 34.0268 33.8223 33.5002 33.8223C32.764 33.8223 32.2704 34.1993 32.2704 34.8466C32.2704 35.4263 32.5572 35.7049 33.4064 36.0144C34.126 36.2818 34.3439 36.49 34.3439 36.8643C34.3439 37.2864 34.0185 37.5509 33.4946 37.5509C33.0893 37.5509 32.7474 37.3595 32.4497 37.0697L32.1602 37.4017C32.469 37.7225 32.946 37.9561 33.4809 37.9561C34.2997 37.9561 34.7795 37.4693 34.7795 36.8389C34.7795 36.2086 34.512 35.9441 33.6435 35.6233H33.6408Z" fill="#121B60"/>
<path d="M36.5697 35.1956C36.8674 35.1956 37.0632 35.3025 37.2755 35.4995L37.5292 35.1787C37.2976 34.9704 36.9915 34.8213 36.5972 34.8213C35.9796 34.8213 35.3262 35.2912 35.3262 36.4028C35.3262 37.4524 35.919 37.9533 36.5669 37.9533C36.9805 37.9533 37.2672 37.7929 37.5154 37.534L37.2617 37.2611C37.0605 37.4609 36.8702 37.5791 36.5835 37.5791C36.0623 37.5791 35.7508 37.1035 35.7508 36.3634C35.7508 35.6233 36.1065 35.1899 36.5669 35.1899L36.5697 35.1956Z" fill="#121B60"/>
<path d="M39.329 34.8239C38.9595 34.8239 38.681 35.0012 38.5128 35.2545V33.8418H38.0938V37.8997H38.5128V36.1381C38.5128 35.4796 38.8354 35.1982 39.2435 35.1982C39.7177 35.1982 39.9411 35.488 39.9411 36.1381V37.8997H40.3629V36.0621C40.3629 35.1982 39.9521 34.8239 39.329 34.8239Z" fill="#121B60"/>
<path d="M42.2427 34.8237C41.5258 34.8237 40.9551 35.3725 40.9551 36.394C40.9551 37.4155 41.5038 37.9586 42.2206 37.9586C42.9375 37.9586 43.5138 37.393 43.5138 36.3715C43.5138 35.35 42.9596 34.8237 42.2427 34.8237ZM42.2344 37.5843C41.7216 37.5843 41.3769 37.1735 41.3769 36.3827C41.3769 35.592 41.7216 35.198 42.2344 35.198C42.7473 35.198 43.0919 35.592 43.0919 36.3827C43.0919 37.1735 42.7445 37.5843 42.2344 37.5843Z" fill="#121B60"/>
<path d="M44.5703 33.8389H44.1484V37.8967H44.5703V33.8389Z" fill="#121B60"/>
<path d="M46.4971 34.8237C46.1138 34.8237 45.7664 34.9222 45.51 35.0657L45.6671 35.4175C45.9098 35.274 46.1634 35.1867 46.4722 35.1867C46.9024 35.1867 47.1119 35.4062 47.1119 35.8509V36.2082C46.9382 36.1098 46.6735 36.0338 46.3785 36.0338C45.794 36.0338 45.248 36.3208 45.248 36.999C45.248 37.725 45.7306 37.9586 46.191 37.9586C46.6129 37.9586 46.9024 37.7588 47.1119 37.5309V37.8995H47.5338V35.803C47.5338 35.0995 47.134 34.8265 46.4998 34.8265L46.4971 34.8237ZM47.1092 37.1566C46.9327 37.4042 46.6404 37.6068 46.2627 37.6068C45.9043 37.6068 45.6616 37.4127 45.6616 36.9652C45.6616 36.5853 45.9208 36.3771 46.3537 36.3771C46.7121 36.3771 46.9189 36.439 47.1092 36.5487V37.1566Z" fill="#121B60"/>
<path d="M48.7558 35.2602V34.8831H48.334V37.8941H48.7558V36.1269C48.7558 35.5556 48.9819 35.2151 49.3955 35.2151C49.594 35.2151 49.7209 35.2602 49.8394 35.3305L49.9469 34.8943C49.8449 34.8493 49.7071 34.8184 49.4865 34.8184C49.1722 34.8184 48.8882 35.0125 48.7586 35.2574L48.7558 35.2602Z" fill="#121B60"/>
<path d="M51.5616 36.1463C51.0626 35.9156 50.9109 35.8115 50.9109 35.561C50.9109 35.3443 51.0901 35.1896 51.399 35.1896C51.7078 35.1896 51.9063 35.2768 52.1351 35.4597L52.3695 35.1445C52.1434 34.956 51.8318 34.8237 51.4265 34.8237C50.8916 34.8237 50.5029 35.1333 50.5029 35.592C50.5029 36.0507 50.751 36.2561 51.3411 36.5122C51.8622 36.7401 52.0359 36.8808 52.0359 37.1256C52.0359 37.4211 51.8456 37.5899 51.4431 37.5899C51.148 37.5899 50.8751 37.4689 50.638 37.2579L50.3926 37.5731C50.6738 37.8038 51.0267 37.9558 51.432 37.9558C51.9421 37.9558 52.4412 37.6969 52.4412 37.1087C52.4412 36.5684 52.1158 36.4052 51.5589 36.1463H51.5616Z" fill="#121B60"/>
<path d="M54.3669 34.8239C53.9919 34.8239 53.7189 35.0012 53.5508 35.2545V33.8418H53.1289V37.8997H53.5508V36.1381C53.5508 35.4796 53.8706 35.1982 54.2814 35.1982C54.7529 35.1982 54.9762 35.488 54.9762 36.1381V37.8997H55.3981V36.0621C55.3981 35.1982 54.99 34.8239 54.3669 34.8239Z" fill="#121B60"/>
<path d="M56.6496 34.8828H56.2305V37.8939H56.6496V34.8828Z" fill="#121B60"/>
<path d="M56.4486 33.7349C56.2777 33.7349 56.1426 33.8728 56.1426 34.0472C56.1426 34.2217 56.2777 34.3511 56.4486 34.3511C56.6058 34.3511 56.7409 34.2104 56.7409 34.0472C56.7409 33.8728 56.6058 33.7349 56.4486 33.7349Z" fill="#121B60"/>
<path d="M58.8077 34.8237C58.4107 34.8237 58.1294 35.0263 57.9199 35.2543V34.8856H57.498V39.0026H57.9199V37.559C58.1267 37.7982 58.3804 37.9586 58.7526 37.9586C59.3674 37.9586 59.8637 37.407 59.8637 36.3433C59.8637 35.2796 59.395 34.8237 58.8077 34.8237ZM58.7167 37.5843C58.3693 37.5843 58.0826 37.3845 57.9199 37.1313V35.6286C58.1267 35.3668 58.3859 35.1952 58.7002 35.1952C59.1689 35.1952 59.4501 35.5892 59.4501 36.3461C59.4501 37.1538 59.2075 37.5815 58.7195 37.5815L58.7167 37.5843Z" fill="#121B60"/>
<path d="M62.0946 34.289H63.964V33.8838H61.6562V37.8966H62.0946V36.0253H63.1727V35.6201H62.0946V34.289Z" fill="#121B60"/>
<path d="M65.2435 34.8237C64.5266 34.8237 63.9531 35.3725 63.9531 36.394C63.9531 37.4155 64.5046 37.9586 65.2214 37.9586C65.9383 37.9586 66.5146 37.393 66.5146 36.3715C66.5146 35.35 65.9659 34.8237 65.2435 34.8237ZM65.2352 37.5843C64.7224 37.5843 64.3832 37.1735 64.3832 36.3827C64.3832 35.592 64.7251 35.198 65.2352 35.198C65.7453 35.198 66.0955 35.592 66.0955 36.3827C66.0955 37.1735 65.7481 37.5843 65.2352 37.5843Z" fill="#121B60"/>
<path d="M68.8387 36.6444C68.8387 37.3029 68.5216 37.5843 68.1108 37.5843C67.6393 37.5843 67.4132 37.2945 67.4132 36.6444V34.8828H66.9941V36.7176C66.9941 37.5815 67.405 37.9558 68.0281 37.9558C68.3948 37.9558 68.6705 37.7813 68.8387 37.528V37.8967H69.2633V34.8856H68.8387V36.6472V36.6444Z" fill="#121B60"/>
<path d="M71.204 34.8241C70.8345 34.8241 70.5588 35.0014 70.3906 35.2547V34.886H69.9688V37.8971H70.3906V36.1355C70.3906 35.477 70.7104 35.1956 71.1213 35.1956C71.5927 35.1956 71.8161 35.4854 71.8161 36.1355V37.8971H72.2379V36.0595C72.2379 35.1956 71.8271 34.8213 71.204 34.8213V34.8241Z" fill="#121B60"/>
<path d="M74.7719 35.2262C74.5624 34.9842 74.3115 34.821 73.9393 34.821C73.3217 34.821 72.8281 35.3697 72.8281 36.4391C72.8281 37.5084 73.2941 37.9558 73.8841 37.9558C74.2839 37.9558 74.5624 37.756 74.7692 37.5281V37.8967H75.191V33.8389H74.7692V35.2262H74.7719ZM74.7719 37.151C74.5624 37.4127 74.306 37.5844 73.9917 37.5844C73.5257 37.5844 73.2445 37.1904 73.2445 36.4334C73.2445 35.623 73.4843 35.1952 73.9751 35.1952C74.3225 35.1952 74.6065 35.395 74.7719 35.6483V37.1482V37.151Z" fill="#121B60"/>
<path d="M76.9791 34.8237C76.5986 34.8237 76.2512 34.9222 75.992 35.0657L76.1465 35.4175C76.3891 35.274 76.6428 35.1867 76.9516 35.1867C77.3817 35.1867 77.5885 35.4062 77.5885 35.8509V36.2082C77.4148 36.1098 77.1501 36.0338 76.8523 36.0338C76.2705 36.0338 75.7246 36.3208 75.7246 36.999C75.7246 37.725 76.2099 37.9586 76.6703 37.9586C77.0922 37.9586 77.3817 37.7588 77.5885 37.5309V37.8995H78.0103V35.803C78.0103 35.0995 77.6133 34.8265 76.9764 34.8265L76.9791 34.8237ZM77.5912 37.1566C77.412 37.4042 77.128 37.6068 76.742 37.6068C76.3863 37.6068 76.1465 37.4127 76.1465 36.9652C76.1465 36.5853 76.4029 36.3771 76.8358 36.3771C77.1942 36.3771 77.4037 36.439 77.5912 36.5487V37.1566Z" fill="#121B60"/>
<path d="M79.355 33.8389H78.9304V34.8829H78.5664V35.2459H78.9304V37.2748C78.9304 37.7729 79.1289 37.953 79.4956 37.953C79.7162 37.953 79.8733 37.9192 80.036 37.8517L80.0663 37.4803C79.9312 37.5365 79.8209 37.5647 79.65 37.5647C79.4267 37.5647 79.355 37.4718 79.355 37.2045V35.2459H80.0856V34.8829H79.355V33.8389Z" fill="#121B60"/>
<path d="M81.042 33.7349C80.8683 33.7349 80.7305 33.8728 80.7305 34.0472C80.7305 34.2217 80.8683 34.3511 81.042 34.3511C81.1992 34.3511 81.3315 34.2104 81.3315 34.0472C81.3315 33.8728 81.1964 33.7349 81.042 33.7349Z" fill="#121B60"/>
<path d="M81.2441 34.8828H80.8223V37.8939H81.2441V34.8828Z" fill="#121B60"/>
<path d="M83.1693 34.8237C82.4524 34.8237 81.8789 35.3725 81.8789 36.394C81.8789 37.4155 82.4276 37.9586 83.1472 37.9586C83.8668 37.9586 84.4376 37.393 84.4376 36.3715C84.4376 35.35 83.8862 34.8237 83.1693 34.8237ZM83.1583 37.5843C82.6482 37.5843 82.3035 37.1735 82.3035 36.3827C82.3035 35.592 82.6482 35.198 83.1583 35.198C83.6683 35.198 84.0185 35.592 84.0185 36.3827C84.0185 37.1735 83.6711 37.5843 83.1583 37.5843Z" fill="#121B60"/>
<path d="M86.2809 34.8241C85.9115 34.8241 85.6358 35.0014 85.4648 35.2547V34.886H85.043V37.8971H85.4648V36.1355C85.4648 35.477 85.7847 35.1956 86.1955 35.1956C86.667 35.1956 86.893 35.4854 86.893 36.1355V37.8971H87.3121V36.0595C87.3121 35.1956 86.9013 34.8213 86.2809 34.8213V34.8241Z" fill="#121B60"/>
<path d="M48.381 20.0137C46.6881 20.0165 45.293 21.3672 45.293 23.0613C45.293 24.7554 46.6881 26.092 48.381 26.0977C50.0905 26.092 51.4718 24.7385 51.4718 23.0613C51.4718 21.3841 50.0905 20.0165 48.381 20.0137ZM48.3397 24.7075C47.4546 24.7075 46.7874 23.9702 46.7874 23.0613C46.7874 22.1524 47.5015 21.401 48.3838 21.401C49.2661 21.401 49.9554 22.1383 49.9554 23.0613C49.9554 23.9843 49.233 24.7075 48.3424 24.7075H48.3397Z" fill="#121B60"/>
<path d="M34.2119 17.917C34.6834 18.3926 35.2238 18.8091 35.756 19.0764L35.8111 19.1074L36.7237 18.0071L36.6355 17.9564C35.7697 17.478 35.0915 16.873 34.6476 16.1104C34.2064 15.359 33.9803 14.4867 33.9803 13.4427V12.4634H32.3481V13.3386C32.3481 14.4698 32.0972 15.359 31.6257 16.1385C31.099 17.0025 30.3188 17.6975 29.3207 18.3419L29.2324 18.3982L30.2223 19.4451L30.2774 19.4141C30.8674 19.0877 31.4933 18.584 32.0365 18.0211C32.508 17.5287 32.916 17.0025 33.1642 16.5044C33.4041 16.994 33.7708 17.4921 34.2119 17.9198V17.917Z" fill="#121B60"/>
<path d="M32.4453 25.3775H39.2777V20.6133H32.4453V25.3775ZM33.9811 21.9584H37.7419V24.0324H33.9811V21.9584Z" fill="#121B60"/>
<path d="M55.2246 25.3775H62.9503V20.6133H55.2246V25.3775ZM56.7438 21.9584H61.4338V24.0324H56.7438V21.9584Z" fill="#121B60"/>
<path d="M39.3044 12.1821H37.7852V20.0671H39.3044V16.5777H41.0828V15.1763H39.3044V12.1821Z" fill="#121B60"/>
<path d="M70.8021 18.3197C71.3012 18.7615 71.8719 19.133 72.4096 19.3722L72.4647 19.3975L73.2863 18.2635L73.1981 18.2184C72.4151 17.8104 71.7175 17.3039 71.2157 16.6848C70.7056 16.0544 70.4023 15.2946 70.4023 14.3801V14.1127H72.6632V12.7563H66.5257V14.1127H68.7838V14.4392C68.7838 15.2721 68.5136 16.0488 68.0642 16.7214C67.5376 17.529 66.7683 18.179 66.0211 18.6011L65.9219 18.6546L66.931 19.7211L66.9862 19.693C67.5293 19.3778 68.1304 18.9022 68.6432 18.3676C69.0541 17.9286 69.4235 17.4643 69.6496 16.9999C69.9226 17.4502 70.3417 17.9004 70.8049 18.3197H70.8021Z" fill="#121B60"/>
<path d="M81.791 21.9892H87.3137V25.3745H88.8467V20.644H81.791V21.9892Z" fill="#121B60"/>
<path d="M85.6008 16.5665C85.6008 15.8207 85.2727 15.1341 84.7875 14.6107H86.3039V13.2684H83.4089V11.791H81.7628V13.2684H78.7988V14.6107H80.3484C79.8741 15.1341 79.546 15.8151 79.546 16.5665C79.546 18.2296 80.8888 19.5803 82.5679 19.5859C84.247 19.5803 85.5981 18.2296 85.6008 16.5665ZM81.0101 16.5046C81.0101 15.5844 81.7711 14.8049 82.5679 14.8049C83.3647 14.8049 84.123 15.5872 84.1257 16.5046C84.1257 17.4107 83.3647 18.193 82.5679 18.1958C81.7683 18.193 81.0129 17.4107 81.0101 16.5046Z" fill="#121B60"/>
<path d="M88.8465 12.1821H87.3301V20.0953H88.8465V17.0758H90.6304V15.6744H88.8465V12.1821Z" fill="#121B60"/>
<path d="M75.9774 12.1821H74.4609V20.0953H75.9774V16.5777H77.7585V15.1763H75.9774V12.1821Z" fill="#121B60"/>
<path d="M50.2373 14.5291H47.8496V15.9164H50.2373V20.3457H51.7566V12.1821H50.2373V14.5291Z" fill="#121B60"/>
<path d="M46.379 18.1224C46.8532 18.5952 47.4074 19.0117 47.9368 19.2931L47.9947 19.3269L48.9073 18.2266L48.8191 18.1759C47.9533 17.7116 47.2888 17.1094 46.8422 16.358C46.39 15.6123 46.1639 14.7062 46.1639 13.6622V12.4634H44.5289V13.5609C44.5289 14.6921 44.2807 15.5785 43.8203 16.344C43.2964 17.2219 42.4996 17.9226 41.5015 18.5614L41.416 18.6177L42.4114 19.6674L42.461 19.6336C43.0483 19.3043 43.6604 18.8288 44.2035 18.2857C44.6943 17.7876 45.1024 17.2445 45.3505 16.7239C45.5849 17.1994 45.9433 17.6835 46.379 18.1253V18.1224Z" fill="#121B60"/>
<path d="M72.7217 20.0137C71.0288 20.0165 69.6336 21.3672 69.6309 23.0613C69.6336 24.7385 71.026 26.092 72.7217 26.0977C74.4284 26.092 75.8125 24.7385 75.8125 23.0613C75.8125 21.3841 74.4284 20.0165 72.7217 20.0137ZM72.6776 24.7075C71.7953 24.7075 71.1225 23.9702 71.1225 23.0613C71.1225 22.1524 71.8339 21.401 72.7217 21.401C73.6095 21.401 74.2905 22.1383 74.2933 23.0613C74.2933 23.9674 73.5681 24.7075 72.6776 24.7075Z" fill="#121B60"/>
<path d="M57.0749 16.7042H58.5941V12.6772H54.4941V14.0167H57.0749V16.7042Z" fill="#121B60"/>
<path d="M61.6346 16.7042H63.1566V12.6772H59.0566V14.0167H61.6346V16.7042Z" fill="#121B60"/>
<path d="M100.36 15.7475H99.083V12.4016H97.6465V25.0367H99.083V17.2671H100.36V25.3744H101.848V12.1821H100.36V15.7475Z" fill="#121B60"/>
<path d="M95.5395 17.4953C95.1976 16.7327 95.057 15.8801 95.057 14.8332V14.3352H96.7802V12.9141H91.7732V14.3352H93.5516V14.8614C93.5516 15.8519 93.4247 16.6624 93.1187 17.4137C92.763 18.2777 92.1647 19.0543 91.2107 19.8873L91.1445 19.9492L92.0875 20.9032L92.1454 20.8581C92.6196 20.5008 93.1159 19.983 93.5295 19.4483C93.8797 18.9981 94.1747 18.5309 94.3594 18.1201C94.5497 18.5197 94.8474 18.9784 95.1949 19.4061C95.5974 19.907 96.0523 20.3826 96.488 20.6668L96.5459 20.7062L97.34 19.7381L97.2765 19.6791C96.4218 18.9193 95.8924 18.2411 95.545 17.4925L95.5395 17.4953Z" fill="#121B60"/>
<path d="M53.2227 18.5784H58.2656V20.0811H59.9116V18.5784H65.0345V17.2305H53.2227V18.5784Z" fill="#121B60"/>
<path d="M110.499 18.1481H105.365V14.1606H109.274V12.7563H103.826V19.5101H110.499V18.1481Z" fill="#121B60"/>
<path d="M107.594 21.1704H106.059V25.3746H113.241V23.9901H107.594V21.1704Z" fill="#121B60"/>
<path d="M113.206 15.8347V12.1792H111.689V21.913H113.206V17.2361H115.001V15.8347H113.206Z" fill="#121B60"/>
<path d="M32.2077 8.11011L28.2732 6.447L32.2077 4.7839L31.5074 3.06451L27.5756 4.72761L29.2051 0.711956L27.5177 0L25.891 4.01566L24.2615 0L22.5741 0.711956L24.2036 4.72761L20.2718 3.06451L19.5742 4.7839L23.506 6.447L19.5742 8.11011L20.2718 9.8295L24.2036 8.16639L22.5741 12.182L24.2615 12.894L25.891 8.88116L27.5177 12.894L29.2051 12.1792L27.5756 8.16639L31.5074 9.8295L32.2077 8.11011Z" fill="#4578E5"/>
<path d="M6.75045 19.3129H9.36703V12.1821H0.419922V14.5853H6.75045V19.3129Z" fill="#4578E5"/>
<path d="M16.9575 19.3129H19.5741V12.1821H10.627V14.5853H16.9575V19.3129Z" fill="#4578E5"/>
<path d="M0 23.0023H16.9568V26.6747H19.5734V20.5991H0V23.0023Z" fill="#4578E5"/>
<path d="M6.33008 37.8968H19.5729V27.9097H6.33008V37.8968ZM8.9439 30.3157H16.9563V35.4964H8.9439V30.3157Z" fill="#4578E5"/>
</g>
<defs>
<clipPath id="clip0_39_1516">
<rect width="115" height="39" fill="white"/>
</clipPath>
</defs>
</svg>
