<svg width="32" height="32" viewBox="0 0 32 32" fill="none" xmlns="http://www.w3.org/2000/svg">
<mask id="mask0_39_1646" style="mask-type:alpha" maskUnits="userSpaceOnUse" x="0" y="0" width="32" height="32">
<rect width="32" height="32" fill="#D9D9D9"/>
</mask>
<g mask="url(#mask0_39_1646)">
<path d="M22.771 16.6669H7.33268C7.1429 16.6669 6.98435 16.6033 6.85702 16.4759C6.72968 16.3486 6.66602 16.19 6.66602 16.0003C6.66602 15.8105 6.72968 15.6519 6.85702 15.5246C6.98435 15.3973 7.1429 15.3336 7.33268 15.3336H22.771L15.52 8.08227C15.39 7.95249 15.322 7.79949 15.316 7.62327C15.31 7.44727 15.3806 7.28571 15.5277 7.1386C15.6746 6.99682 15.8318 6.9246 15.9993 6.92194C16.1669 6.91949 16.3241 6.99171 16.471 7.1386L24.5787 15.2463C24.6951 15.3627 24.7768 15.4816 24.8237 15.6029C24.8708 15.7243 24.8943 15.8567 24.8943 16.0003C24.8943 16.1438 24.8708 16.2763 24.8237 16.3976C24.7768 16.5189 24.6951 16.6378 24.5787 16.7543L16.471 24.8619C16.3463 24.9866 16.1947 25.0533 16.016 25.0619C15.8373 25.0704 15.6746 25.0037 15.5277 24.8619C15.3806 24.7148 15.307 24.5563 15.307 24.3863C15.307 24.216 15.3806 24.0575 15.5277 23.9106L22.771 16.6669Z" fill="white"/>
</g>
</svg>
