<svg width="21" height="21" viewBox="0 0 21 21" fill="none" xmlns="http://www.w3.org/2000/svg">
<mask id="mask0_45_1611" style="mask-type:alpha" maskUnits="userSpaceOnUse" x="0" y="0" width="21" height="21">
<rect x="0.554688" y="0.304688" width="19.9353" height="19.9353" fill="#D9D9D9"/>
</mask>
<g mask="url(#mask0_45_1611)">
<path d="M14.742 10.6881H5.1243C5.00608 10.6881 4.9073 10.6485 4.82797 10.5691C4.74865 10.4898 4.70898 10.391 4.70898 10.2728C4.70898 10.1546 4.74865 10.0558 4.82797 9.97649C4.9073 9.89716 5.00608 9.8575 5.1243 9.8575H14.742L10.2248 5.34009C10.1438 5.25924 10.1015 5.16392 10.0977 5.05414C10.094 4.9445 10.138 4.84385 10.2296 4.7522C10.3211 4.66388 10.4191 4.61889 10.5234 4.61722C10.6278 4.6157 10.7258 4.66069 10.8173 4.7522L15.8682 9.8031C15.9407 9.87564 15.9916 9.9497 16.0208 10.0253C16.0501 10.1009 16.0648 10.1834 16.0648 10.2728C16.0648 10.3623 16.0501 10.4448 16.0208 10.5203C15.9916 10.5959 15.9407 10.67 15.8682 10.7425L10.8173 15.7934C10.7396 15.8711 10.6451 15.9126 10.5338 15.918C10.4225 15.9233 10.3211 15.8818 10.2296 15.7934C10.138 15.7018 10.0921 15.603 10.0921 15.4971C10.0921 15.3911 10.138 15.2923 10.2296 15.2008L14.742 10.6881Z" fill="white"/>
</g>
</svg>
