<svg width="42" height="42" viewBox="0 0 42 42" fill="none" xmlns="http://www.w3.org/2000/svg">
<mask id="mask0_39_1721" style="mask-type:alpha" maskUnits="userSpaceOnUse" x="0" y="0" width="42" height="42">
<rect x="0.851562" y="41.1484" width="40.2963" height="40.2963" transform="rotate(-90 0.851562 41.1484)" fill="#D9D9D9"/>
</mask>
<g mask="url(#mask0_39_1721)">
<path d="M21.8399 12.4735L21.8399 31.9144C21.8399 32.1534 21.7597 32.353 21.5994 32.5134C21.4391 32.6737 21.2394 32.7539 21.0004 32.7539C20.7614 32.7539 20.5618 32.6737 20.4014 32.5134C20.2411 32.353 20.1609 32.1534 20.1609 31.9144L20.1609 12.4735L11.0296 21.6044C10.8662 21.7681 10.6735 21.8538 10.4516 21.8613C10.23 21.8689 10.0265 21.78 9.84127 21.5948C9.66274 21.4098 9.57179 21.2118 9.56843 21.0008C9.56536 20.7898 9.6563 20.5918 9.84127 20.4069L20.0509 10.1972C20.1976 10.0506 20.3473 9.94774 20.5001 9.88869C20.6529 9.82937 20.8196 9.79971 21.0004 9.79971C21.1812 9.79971 21.348 9.82937 21.5008 9.88869C21.6535 9.94774 21.8033 10.0506 21.9499 10.1972L32.1595 20.4069C32.3165 20.5639 32.4005 20.7548 32.4114 20.9798C32.422 21.2048 32.3381 21.4098 32.1595 21.5948C31.9743 21.78 31.7746 21.8726 31.5606 21.8726C31.3462 21.8726 31.1465 21.78 30.9616 21.5948L21.8399 12.4735Z" fill="#4578E5"/>
</g>
</svg>
