<svg width="36" height="36" viewBox="0 0 36 36" fill="none" xmlns="http://www.w3.org/2000/svg">
<mask id="mask0_96_13" style="mask-type:alpha" maskUnits="userSpaceOnUse" x="6" y="6" width="24" height="24">
<rect x="6" y="6" width="24" height="24" fill="#D9D9D9"/>
</mask>
<g mask="url(#mask0_96_13)">
<path d="M18 27.5C16.6975 27.5 15.4683 27.2503 14.3125 26.751C13.1567 26.2517 12.1487 25.5718 11.2885 24.7115C10.4282 23.8513 9.74833 22.8433 9.249 21.6875C8.74967 20.5317 8.5 19.3025 8.5 18C8.5 16.6872 8.74967 15.4554 9.249 14.3047C9.74833 13.1541 10.4282 12.1487 11.2885 11.2885C12.1487 10.4282 13.1567 9.74833 14.3125 9.249C15.4683 8.74967 16.6975 8.5 18 8.5C19.3128 8.5 20.5446 8.74967 21.6953 9.249C22.8459 9.74833 23.8513 10.4282 24.7115 11.2885C25.5718 12.1487 26.2517 13.1541 26.751 14.3047C27.2503 15.4554 27.5 16.6872 27.5 18C27.5 19.3025 27.2503 20.5317 26.751 21.6875C26.2517 22.8433 25.5718 23.8513 24.7115 24.7115C23.8513 25.5718 22.8459 26.2517 21.6953 26.751C20.5446 27.2503 19.3128 27.5 18 27.5ZM18 25.9788C18.5103 25.3019 18.9398 24.6192 19.2885 23.9307C19.6372 23.2422 19.9212 22.4897 20.1405 21.673H15.8595C16.0917 22.5153 16.3789 23.2808 16.7213 23.9693C17.0634 24.6578 17.4897 25.3276 18 25.9788ZM16.0635 25.7038C15.6802 25.1538 15.3359 24.5285 15.0308 23.828C14.7256 23.1273 14.4884 22.409 14.3192 21.673H10.927C11.4552 22.7115 12.1635 23.584 13.052 24.2905C13.9405 24.9968 14.9443 25.4679 16.0635 25.7038ZM19.9365 25.7038C21.0557 25.4679 22.0595 24.9968 22.948 24.2905C23.8365 23.584 24.5448 22.7115 25.073 21.673H21.6807C21.4794 22.4153 21.2262 23.1368 20.921 23.8375C20.616 24.5382 20.2878 25.1603 19.9365 25.7038ZM10.298 20.173H14.0155C13.9527 19.8013 13.9071 19.4369 13.8787 19.0798C13.8506 18.7228 13.8365 18.3628 13.8365 18C13.8365 17.6372 13.8506 17.2772 13.8787 16.9202C13.9071 16.5631 13.9527 16.1987 14.0155 15.827H10.298C10.2018 16.1667 10.1282 16.5198 10.077 16.8865C10.0257 17.2532 10 17.6243 10 18C10 18.3757 10.0257 18.7468 10.077 19.1135C10.1282 19.4802 10.2018 19.8333 10.298 20.173ZM15.5152 20.173H20.4848C20.5474 19.8013 20.5929 19.4402 20.6212 19.0895C20.6494 18.7388 20.6635 18.3757 20.6635 18C20.6635 17.6243 20.6494 17.2612 20.6212 16.9105C20.5929 16.5598 20.5474 16.1987 20.4848 15.827H15.5152C15.4526 16.1987 15.4071 16.5598 15.3787 16.9105C15.3506 17.2612 15.3365 17.6243 15.3365 18C15.3365 18.3757 15.3506 18.7388 15.3787 19.0895C15.4071 19.4402 15.4526 19.8013 15.5152 20.173ZM21.9845 20.173H25.702C25.7982 19.8333 25.8718 19.4802 25.923 19.1135C25.9743 18.7468 26 18.3757 26 18C26 17.6243 25.9743 17.2532 25.923 16.8865C25.8718 16.5198 25.7982 16.1667 25.702 15.827H21.9845C22.0473 16.1987 22.0929 16.5631 22.1212 16.9202C22.1494 17.2772 22.1635 17.6372 22.1635 18C22.1635 18.3628 22.1494 18.7228 22.1212 19.0798C22.0929 19.4369 22.0473 19.8013 21.9845 20.173ZM21.6807 14.327H25.073C24.5385 13.2757 23.835 12.4032 22.9625 11.7095C22.09 11.016 21.0813 10.5417 19.9365 10.2865C20.3198 10.8685 20.6608 11.5051 20.9595 12.1962C21.2583 12.8872 21.4987 13.5975 21.6807 14.327ZM15.8595 14.327H20.1405C19.9083 13.491 19.6163 12.7208 19.2645 12.0163C18.9125 11.3118 18.491 10.6467 18 10.0212C17.509 10.6467 17.0875 11.3118 16.7355 12.0163C16.3837 12.7208 16.0917 13.491 15.8595 14.327ZM10.927 14.327H14.3192C14.5012 13.5975 14.7417 12.8872 15.0405 12.1962C15.3392 11.5051 15.6802 10.8685 16.0635 10.2865C14.9122 10.5417 13.9019 11.0177 13.0328 11.7145C12.1634 12.4112 11.4615 13.282 10.927 14.327Z" fill="white"/>
</g>
</svg>
