<svg width="9" height="13" viewBox="0 0 9 13" fill="none" xmlns="http://www.w3.org/2000/svg">
<path d="M1.44947 12.9584C1.22961 12.9584 1.03723 12.8896 0.87234 12.7519C0.707447 12.6142 0.625 12.4327 0.625 12.2074V0.792717C0.625 0.567426 0.707447 0.385942 0.87234 0.248265C1.03723 0.110587 1.22961 0.041748 1.44947 0.041748C1.50443 0.041748 1.69681 0.116845 2.0266 0.267039L8.00399 5.71156C8.1414 5.83673 8.23759 5.96189 8.29255 6.08705C8.34752 6.21221 8.375 6.34989 8.375 6.50008C8.375 6.65028 8.34752 6.78795 8.29255 6.91311C8.23759 7.03828 8.1414 7.16344 8.00399 7.2886L2.0266 12.7331C1.94415 12.8082 1.85483 12.8645 1.75864 12.9021C1.66246 12.9396 1.5594 12.9584 1.44947 12.9584Z" fill="white"/>
</svg>
