<svg width="9" height="13" viewBox="0 0 9 13" fill="none" xmlns="http://www.w3.org/2000/svg">
<path d="M2.35394 6.50448L7.8049 11.511C7.9903 11.6813 8.07992 11.8799 8.07374 12.107C8.06756 12.334 7.97176 12.5327 7.78636 12.703C7.60095 12.8733 7.38464 12.9584 7.13743 12.9584C6.89022 12.9584 6.67392 12.8733 6.48851 12.703L0.777984 7.47512C0.629659 7.33889 0.518415 7.18563 0.444252 7.01534C0.370089 6.84505 0.333008 6.67477 0.333008 6.50448C0.333008 6.33419 0.370089 6.1639 0.444252 5.99361C0.518415 5.82332 0.629659 5.67006 0.777984 5.53383L6.48851 0.288941C6.67392 0.118653 6.89331 0.0363464 7.1467 0.0420227C7.40009 0.047699 7.61949 0.135681 7.8049 0.30597C7.9903 0.476259 8.08301 0.674929 8.08301 0.90198C8.08301 1.12903 7.9903 1.3277 7.8049 1.49799L2.35394 6.50448Z" fill="white"/>
</svg>
