<svg width="10" height="11" viewBox="0 0 10 11" fill="none" xmlns="http://www.w3.org/2000/svg">
<path d="M7.86871 10.6666C7.4543 10.6666 7.09954 10.522 6.80443 10.233C6.50932 9.94387 6.36176 9.59635 6.36176 9.19039V1.80944C6.36176 1.40349 6.50932 1.05597 6.80443 0.766883C7.09954 0.477796 7.4543 0.333252 7.86871 0.333252C8.28312 0.333252 8.63788 0.477796 8.93299 0.766883C9.2281 1.05597 9.37565 1.40349 9.37565 1.80944V9.19039C9.37565 9.59635 9.2281 9.94387 8.93299 10.233C8.63788 10.522 8.28312 10.6666 7.86871 10.6666ZM1.84093 10.6666C1.42652 10.6666 1.07176 10.522 0.776649 10.233C0.481539 9.94387 0.333984 9.59635 0.333984 9.19039V1.80944C0.333984 1.40349 0.481539 1.05597 0.776649 0.766883C1.07176 0.477796 1.42652 0.333252 1.84093 0.333252C2.25534 0.333252 2.6101 0.477796 2.90521 0.766883C3.20032 1.05597 3.34787 1.40349 3.34787 1.80944V9.19039C3.34787 9.59635 3.20032 9.94387 2.90521 10.233C2.6101 10.522 2.25534 10.6666 1.84093 10.6666Z" fill="white"/>
</svg>
