<svg width="158" height="25" viewBox="0 0 158 25" fill="none" xmlns="http://www.w3.org/2000/svg">
<g clip-path="url(#clip0_32_1766)">
<path d="M157.867 12.6775L153.238 12.6184V15.7656C153.238 19.814 152.53 22.7839 152.191 23.6704C151.97 23.9216 151.454 24.0693 151.145 23.9807C150.953 23.2715 150.555 21.0699 150.555 17.4056V3.25078C150.555 2.65976 148.889 1.43341 148.27 1.24133C148.108 1.18222 148.638 0.561656 148.801 0.561656C150.068 0.561656 153.4 1.32998 153.327 1.92099C153.268 2.31993 153.238 2.79274 153.238 3.30988V11.4068L156.747 10.0179C157.057 9.89972 158.442 12.6775 157.882 12.6775M148.255 14.2141C148.742 14.8938 147.429 17.775 146.958 17.0953C146.279 16.1349 144.422 13.2981 142.756 11.4068C140.53 14.5244 137.758 17.0362 135.266 18.366C134.957 18.3365 134.588 17.8784 134.588 17.5977C137.67 14.8495 141.149 10.0327 142.608 5.6444C142.697 5.39322 141.65 4.62489 141.193 4.34416C141.046 4.25551 141.68 3.7827 141.842 3.7827C142.682 3.7827 145.012 4.7431 145.572 5.14203C145.881 5.36367 145.911 5.51142 145.763 5.88081C145.144 7.49133 144.319 9.02797 143.39 10.4464C145.483 11.8944 147.798 13.564 148.255 14.2141ZM133.291 12.9435L128.632 12.8548V15.7656C128.632 19.814 127.983 22.7839 127.615 23.6704C127.394 23.9216 126.878 24.0693 126.598 23.9807C126.377 23.2715 126.008 21.0699 126.008 17.4056V3.25078C126.008 2.65976 124.342 1.49251 123.723 1.24133C123.575 1.18222 124.091 0.561656 124.254 0.561656C125.521 0.561656 128.78 1.32998 128.721 1.92099C128.691 2.31993 128.632 2.79274 128.632 3.30988V11.658L132.156 10.2987C132.495 10.1509 133.881 12.9287 133.291 12.9287M118.15 14.3323C119.447 14.3323 120.406 13.431 120.406 12.0422C120.406 10.6533 119.506 9.72241 118.15 9.72241C116.794 9.72241 115.894 10.6533 115.894 12.0422C115.894 13.431 116.794 14.3323 118.15 14.3323ZM113.742 2.52679C113.712 2.40858 113.86 2.02442 114.022 2.0392C114.951 2.2165 115.894 2.37903 117.074 2.52679L119.949 2.83707C120.199 2.86662 121.305 4.38849 120.568 4.38849H116.219C115.481 4.38849 113.786 2.77797 113.727 2.52679M110.852 5.96946C110.823 5.88081 111 5.57052 111.073 5.60007C111.56 5.77738 113.285 5.8217 114.921 5.79215L120.804 5.73305C122.499 5.7035 123 4.8613 123.266 4.8613C123.546 4.8613 124.622 6.35362 124.622 7.04806C124.622 7.16627 124.504 7.24014 124.312 7.24014C124.032 7.24014 122.396 7.15149 121.099 7.15149L114.774 7.18104C113.757 7.18104 113.078 7.40267 112.769 7.68341C111.973 7.46177 110.985 6.26497 110.882 5.95468M124.902 17.5534C122.366 18.7206 117.501 19.4003 114.169 19.814C113.27 19.9322 112.725 20.0948 112.194 20.405C111.339 20.1834 110.1 18.9275 109.982 18.4547C110.012 18.3069 110.13 18.174 110.204 18.0853C111.132 18.0853 112.489 18.1148 114.125 18.0262C115.142 17.9671 116.101 17.908 116.971 17.8341L116.808 15.3962C114.656 15.0268 113.329 13.7561 113.329 11.9978C113.329 10.077 114.995 8.77679 117.619 8.62903C117.649 8.51083 117.678 8.43695 117.678 8.31875C117.678 8.09712 117.619 7.83116 117.31 7.60953C117.31 7.07761 119.005 7.60953 119.005 7.89026C119.005 8.00846 118.858 8.3483 118.784 8.62903C121.349 8.80634 122.971 10.1066 122.971 11.9978C122.971 13.7561 121.585 15.0268 119.462 15.3962L119.344 17.5977C122.027 17.2874 123.841 16.8589 125.05 16.46C125.3 16.3713 125.197 17.3909 124.887 17.5386M92.7774 3.76792L92.7479 8.49605H99.3232L99.4854 3.76792H92.7626H92.7774ZM88.5167 2.71887C88.4872 2.57111 88.8852 2.0983 89.0769 2.0983C89.5634 2.0983 91.2441 2.1574 92.3498 2.34948H98.6156C99.4117 2.34948 99.8245 2.23128 100.134 1.95055C100.473 1.83234 102.67 2.17218 102.626 2.54156L101.697 8.2301C102.095 8.59948 102.626 9.33825 102.626 9.73719C102.626 9.85539 102.508 9.92927 102.316 9.92927C102.036 9.92927 100.989 9.89972 99.4117 9.89972H92.4678C92.2908 10.21 92.0697 10.4907 91.8191 10.7862C91.5684 11.0374 91.1114 11.1556 90.7723 11.067C90.4922 10.3873 90.2563 9.08707 90.0647 6.73778L89.814 3.79747C89.7845 3.51674 88.9884 2.89617 88.5167 2.71887ZM104.159 22.8134C104.159 22.9316 104.07 23.0055 103.849 23.0055H100.945L92.3056 23.0351C89.9025 23.0351 89.4307 22.2076 89.4307 20.5971V18.1887C89.4307 17.7602 88.5314 17.0215 88.0154 16.9476C87.8532 16.918 88.4135 16.2088 88.6346 16.2088C89.6224 16.2088 91.0967 16.4305 91.8338 16.7112C91.9812 16.7703 92.2024 16.8589 92.1434 17.1692C92.0844 17.5386 92.0844 18.0705 92.0844 18.5286V20.6267C92.0844 21.4984 92.394 21.6166 93.1607 21.6166L100.414 21.5871C101.947 21.5871 102.449 20.7301 102.64 20.7301C103.038 20.7301 104.159 22.1485 104.159 22.7987M106.901 13.6527C106.901 13.8004 106.783 13.8743 106.591 13.8743H97.6425V15.5144C97.6425 17.184 97.0233 18.632 96.5958 19.2821C96.3746 19.5333 95.8881 19.6515 95.5785 19.5628C95.3279 18.7945 94.9593 17.775 94.9593 15.9133V13.8743H88.9442C87.9269 13.8743 87.2488 14.155 86.9392 14.4358C86.1431 14.2141 84.5361 12.9582 84.5361 12.6775C84.5361 12.5593 84.6835 12.249 84.7572 12.2786C85.2437 12.4559 86.9686 12.4706 88.6051 12.4706L102.449 12.4411C104.203 12.4411 104.793 11.4511 105.014 11.4511C105.324 11.4511 106.901 12.9582 106.901 13.6379M67.4637 6.4866C67.4637 8.30397 68.6432 9.51556 70.4271 9.51556C72.211 9.51556 73.5673 8.30397 73.5673 6.4866C73.5673 4.66922 72.2994 3.45764 70.4566 3.45764C68.6137 3.45764 67.4637 4.684 67.4637 6.4866ZM64.7805 6.57525C64.7805 4.03388 66.8151 2.33471 69.9553 2.1574C69.9848 2.06875 70.0143 1.99487 70.0143 1.90622C70.0143 1.65504 69.9553 1.3743 69.5867 1.10835C69.5867 0.546881 71.4738 1.10835 71.4738 1.41863C71.4738 1.53683 71.3264 1.87667 71.2527 2.1574C74.2455 2.37903 76.2211 4.0782 76.2211 6.57525C76.2211 9.20527 73.9359 10.934 70.5155 10.934C67.0952 10.934 64.7805 9.20527 64.7805 6.57525ZM81.6759 14.3028C81.6759 14.421 81.558 14.4949 81.3663 14.4949H75.2333V15.8542C75.2333 19.681 74.5551 22.6509 74.1865 23.5226C73.9654 23.7738 73.4494 23.892 73.1693 23.8329C72.9481 23.1237 72.5501 20.9222 72.5501 17.4943V14.4949L68.2304 14.5244V15.3814C68.2304 19.1787 67.5522 22.1485 67.2131 23.0203C66.992 23.2715 66.476 23.3897 66.1664 23.3306C65.9747 22.6213 65.5767 20.4198 65.5767 17.0215V14.5244H63.719C62.7018 14.5244 62.0236 14.8052 61.714 15.0859C60.9179 14.8643 59.3109 13.6083 59.3109 13.2981C59.3109 13.2094 59.4583 12.8991 59.5321 12.9287C60.0186 13.0912 61.7435 13.1208 63.38 13.1208L77.2236 13.0617C78.978 13.0617 79.5677 12.0717 79.7888 12.0717C80.0984 12.0717 81.6759 13.5936 81.6759 14.2732M42.4597 5.34889C42.4597 6.90031 43.6244 8.00846 45.3641 8.00846C47.1038 8.00846 48.2685 6.90031 48.2685 5.34889C48.2685 3.79747 47.1038 2.74842 45.3641 2.74842C43.6244 2.74842 42.4597 3.82702 42.4597 5.34889ZM39.7765 5.46709C39.7765 3.23601 41.7226 1.61071 44.7449 1.41863C44.7744 1.27088 44.8334 1.16745 44.8334 1.01969C44.8334 0.768512 44.7449 0.502554 44.4058 0.251372C44.4058 -0.339644 46.2929 0.251372 46.2929 0.532105C46.2929 0.70941 46.1012 1.09357 45.9833 1.40385C48.9761 1.59593 50.9812 3.22123 50.9812 5.45232C50.9812 7.80161 48.696 9.47123 45.3641 9.47123C42.0322 9.47123 39.7765 7.80161 39.7765 5.45232M53.1631 23.2715C53.1631 23.4192 53.0452 23.4635 52.8535 23.4635H41.87C39.9829 23.4635 39.3195 22.8134 39.2753 21.3359L39.2163 19.4446C39.2163 19.1639 38.4791 18.7945 38.0074 18.5877C37.9779 18.4399 38.4054 17.9671 38.6266 17.9671C39.1573 17.9671 41.1771 18.0853 41.8995 18.3365H49.0498L49.0793 16.0463H41.929C41.0592 16.0463 40.4842 16.2679 40.1746 16.5634C39.1573 16.4157 38.3317 15.0859 38.317 14.8938C38.2875 14.7461 38.4349 14.4653 38.5676 14.4949C39.4669 14.6574 40.6021 14.6574 42.2386 14.6574H48.0915C48.8877 14.6574 49.3005 14.5687 49.6101 14.2585C49.9491 14.2289 52.2048 14.4801 52.1311 14.8495L51.4234 18.1887C51.9542 18.5877 52.2933 19.2673 52.2933 19.4299C52.2933 19.5776 52.2048 19.681 52.0721 19.681C51.8215 19.681 50.2145 19.6515 48.9024 19.6515H41.8995V20.8926C41.8995 21.853 42.1796 22.0451 43.4475 22.0451H49.6395C51.394 22.0451 51.6446 21.3063 51.8362 21.3063C52.2343 21.3063 53.1631 22.6361 53.1631 23.2271M56.3918 12.3229C56.3918 12.4411 56.2739 12.515 56.0822 12.515H52.1016L38.4497 12.5445C37.4619 12.5445 36.7837 12.8253 36.4741 13.0764C35.6485 12.8548 34.189 11.6284 34.071 11.3182C34.0415 11.2295 34.2184 10.9192 34.2922 10.9488C34.7787 11.1261 36.4889 11.1556 38.1401 11.1556L51.9542 11.0965C53.6791 11.0965 54.2688 10.1066 54.5195 10.1066C54.8291 10.1066 56.3771 11.6284 56.3771 12.3081M25.1958 12.2638C25.1958 12.515 25.0041 12.515 24.3259 12.7218C24.0458 12.8105 23.8984 13.2537 23.6772 13.963C23.1907 15.4553 21.6427 17.8637 18.4288 17.8637C15.2148 17.8637 13.5194 15.1154 13.4014 14.9677C13.2392 14.7461 12.9739 14.5392 12.7527 14.5392C12.6053 14.5392 12.5021 14.5983 12.4136 14.6574C11.249 15.4553 9.98106 16.3566 9.98106 18.4251C9.98106 19.7845 11.1163 21.3359 13.0328 21.3359C14.6693 21.3359 15.7455 19.7845 16.0846 18.7059C16.2026 18.3365 16.1731 18.1887 16.3647 18.1887C16.6154 18.1887 16.7038 18.7502 17.0429 18.7502C17.323 18.7502 17.2346 18.6024 17.6032 18.6024C17.9422 18.6024 18.0307 19.0605 18.3108 19.0605C18.7089 19.0605 19.2396 18.7206 19.505 18.7206C19.5935 18.7206 19.7261 18.7206 19.7261 18.8093C19.7261 18.957 19.4755 19.09 19.2396 19.2969C18.7531 19.7254 18.3993 19.9766 18.0307 20.5971C16.7333 22.7987 15.2295 23.1976 14.4629 23.434C14.1828 23.5226 13.9027 23.6556 13.7847 23.9216C13.3572 24.882 13.1066 25.0002 12.9886 25.0002C12.8412 25.0002 12.797 24.8377 12.7675 24.4683C12.738 24.0693 12.5168 23.6113 11.7502 23.4783C9.80414 23.1089 7.40105 21.129 7.40105 18.0114C7.40105 15.2041 9.52403 14.1107 10.6003 13.0321C10.7477 12.8844 10.8509 12.7218 10.8509 12.4706V12.382C10.8509 12.249 10.8214 12.0717 10.6445 11.8501C9.56826 10.4907 8.7574 9.58943 7.2831 9.58943C5.67612 9.58943 4.2608 10.9192 4.2608 12.84C4.2608 14.9086 5.27806 15.6178 6.29533 15.869C6.63441 15.9576 6.75236 15.9872 6.75236 16.0906C6.75236 16.3122 6.53121 16.2679 6.53121 16.6078C6.53121 16.8589 6.72287 16.8294 6.72287 17.2283C6.72287 17.5091 6.47224 17.5977 6.47224 18.0262C6.47224 18.366 6.63441 18.4842 6.63441 18.6763C6.63441 18.9275 6.78184 18.8979 6.78184 19.4446C6.78184 19.5924 6.84082 19.6958 6.72287 19.6958C6.60493 19.6958 6.47224 19.5037 6.29533 19.2378C5.89727 18.6468 5.46972 18.2774 5.16012 18.041C2.69805 16.2531 2.60959 15.47 1.99039 14.2437C1.84296 13.963 1.79873 13.4754 1.50387 13.3424C0.604555 12.8844 -0.0146484 12.7514 -0.0146484 12.0126C-0.0146484 11.6728 0.383411 12.0126 1.00261 12.0126C1.3417 12.0126 1.73976 12.0717 1.93142 11.3625C2.35896 9.85539 4.12812 7.447 7.23887 7.447C10.5413 7.447 12.1778 10.1952 12.2957 10.343C12.5168 10.6533 12.7232 10.7715 12.9444 10.7715C13.0918 10.7715 13.195 10.7715 13.4456 10.5498C15.5391 8.68813 15.7013 7.86071 15.7013 6.78211C15.7013 5.42277 14.6251 3.8418 12.7085 3.8418C10.7919 3.8418 9.87786 5.36367 9.62723 6.50137C9.53877 6.87076 9.4798 7.06284 9.31763 7.06284C9.067 7.06284 9.067 6.723 8.78688 6.723C8.32985 6.723 8.28562 6.91508 8.04974 6.91508C7.74013 6.91508 7.74013 6.35362 7.2831 6.35362C7.16516 6.35362 6.91453 6.50137 6.75236 6.50137C6.32481 6.50137 6.29533 6.59002 6.10367 6.59002C5.88252 6.59002 5.64664 6.47182 5.64664 6.30929C5.64664 6.14676 5.79407 6.02856 6.23635 5.80693C6.82607 5.49664 7.37156 5.27501 7.65168 4.63967C8.52151 2.68932 10.4528 2.06875 11.19 1.78802C11.4701 1.66981 11.6175 1.56638 11.7502 1.30043C12.3399 0.221821 12.6053 0.103618 12.7675 0.103618C12.9296 0.103618 12.9149 0.384351 12.9886 0.724186C13.0771 1.12312 13.0771 1.43341 13.7258 1.59594C15.5686 2.08352 18.2666 3.7827 18.2666 6.88553C18.2666 9.98837 15.2148 11.9535 15.0674 12.0717C14.7283 12.3229 14.6103 12.5297 14.6103 12.7218C14.6103 12.8696 14.6988 13.0321 14.7873 13.2094C15.5244 14.687 16.7923 15.6474 18.2666 15.6474C20.021 15.6474 21.3773 14.0073 21.3773 12.3081C21.3773 10.6089 20.2421 9.58943 19.2544 9.27915C18.8858 9.16095 18.7236 9.16095 18.7236 8.96887C18.7236 8.74724 18.9742 8.82111 18.9742 8.48128C18.9742 8.2301 18.8563 8.2892 18.8563 7.89026C18.8563 7.60953 19.1954 7.52088 19.1954 7.09239C19.1954 6.75255 19.0332 6.63435 19.0332 6.44227C19.0332 6.19109 18.9448 6.22064 18.9448 5.67395C18.9448 5.5262 18.8858 5.42277 19.0037 5.42277C19.1512 5.42277 19.2838 5.61485 19.4608 5.88081C19.8588 6.47182 20.1684 6.92986 20.478 7.12194C22.7042 8.54038 23.1907 9.44168 23.7067 10.7124C23.8247 10.9931 23.9279 11.4807 24.267 11.6728C24.5471 11.8501 25.1663 12.0422 25.1663 12.2638" fill="#333333"/>
</g>
<defs>
<clipPath id="clip0_32_1766">
<rect width="158" height="25" fill="white"/>
</clipPath>
</defs>
</svg>
