<svg width="103" height="36" viewBox="0 0 103 36" fill="none" xmlns="http://www.w3.org/2000/svg">
<g clip-path="url(#clip0_29_1325)">
<path d="M81.9937 8.80371C81.9937 9.10998 82.0359 9.42738 82.152 9.72807C82.664 11.0645 83.9676 11.8886 85.6249 11.1926C86.0208 11.0255 96.9831 6.36473 96.9831 6.36473C96.9831 6.36473 92.6657 17.9137 92.5021 18.3425C91.874 19.9963 92.6288 21.4942 93.9114 21.9954C94.1964 22.1067 94.4919 22.1624 94.7822 22.1568C95.8325 22.1513 96.7562 21.4998 97.2101 20.1968C97.2787 20.0019 102.678 4.36009 102.794 3.98701C102.863 3.76427 102.99 3.24084 102.99 2.87889C102.99 2.10487 102.72 1.37541 102.198 0.82413C101.686 0.278422 101 0 100.277 0C99.923 0 99.638 0.0668213 99.2052 0.211601C98.9466 0.300696 85.0285 5.76334 83.8409 6.23109C82.6534 6.69884 81.9936 7.70116 81.9989 8.80371" fill="#EC2129"/>
<path d="M55.9151 17.6241V17.29H47.4756V19.5675H52.3789C51.1016 23.833 46.5361 26.3388 46.5361 26.3388L47.7554 28.1374C47.7554 28.1374 55.9151 24.5847 55.9151 17.6186V17.6241Z" fill="white"/>
<path d="M53.2495 32.7477V28.3208H50.2568V33.3101C50.2568 34.8693 51.4338 35.9941 53.0489 35.9941H62.3223V33.7222H54.2945C53.5661 33.7222 53.26 33.4159 53.2442 32.7477H53.2495Z" fill="white"/>
<path d="M55.5771 21.4883V23.7658H59.1398V29.2563H62.1324V17.0503H59.1398V21.4883H55.5771Z" fill="white"/>
<path d="M81.3654 26.1992H84.358V16.9556H81.3654V19.8345H78.2461V22.0841H81.3654V26.1992Z" fill="white"/>
<path d="M14.24 28.1484H2.8501V33.3104C2.8501 34.8696 4.02709 35.9944 5.64216 35.9944H14.905V28.8501C14.905 28.4603 14.6042 28.1484 14.24 28.1484ZM11.9124 33.7225H6.88776C6.1594 33.7225 5.848 33.4218 5.83744 32.748V30.4315H11.9124V33.7225Z" fill="white"/>
<path d="M15.1056 17.3231V17.2173H2.6865V19.4948H11.9758C11.9758 19.6451 11.9758 19.8345 11.9758 20.0182C11.9758 22.1342 11.8755 23.5263 11.8227 24.0943H0V26.3718H18.2143V24.0943H14.4881C14.6675 23.3816 15.1109 21.1765 15.1109 17.3231H15.1056Z" fill="white"/>
<path d="M33.7052 29.2954C36.1912 28.7219 38.0279 26.7562 38.0279 24.4286C38.0279 23.1757 37.4948 22.0286 36.6187 21.1432H39.796V18.8657H33.7052V16.7163H30.7179V18.8657H24.6271V21.1432H27.8044C26.9283 22.0286 26.3952 23.1701 26.3952 24.4286C26.3952 26.7618 28.232 28.7219 30.7232 29.2954V31.6008H23.1123V33.8783H41.3214V31.6008H33.7105V29.2954H33.7052ZM29.467 24.3562C29.467 22.8026 30.6968 21.533 32.2063 21.533C33.7158 21.533 34.9456 22.7971 34.9456 24.3562C34.9456 25.9154 33.7158 27.1794 32.2063 27.1794C30.6968 27.1794 29.467 25.9154 29.467 24.3562Z" fill="white"/>
<path d="M75.6444 26.0045H78.542C78.4206 25.2639 77.3597 19.2834 74.5993 17.2119H71.2584L68.688 26.0769H71.6912L73.4012 19.6954C74.8421 21.4773 75.5441 25.4198 75.6391 26.0045H75.6444Z" fill="white"/>
<path d="M76.2404 33.8002C75.4804 33.8002 75.3432 33.5942 75.3432 32.9148V32.6308H84.3633V27.842C84.3633 27.4299 84.0782 27.1069 83.6718 27.1069H72.4033V29.3009H81.4973V30.4758H72.4825V33.3102C72.4825 34.9529 73.6014 35.9942 75.2745 35.9942H84.5585V33.8002H76.2404Z" fill="white"/>
</g>
<defs>
<clipPath id="clip0_29_1325">
<rect width="103" height="36" fill="white"/>
</clipPath>
</defs>
</svg>
