<svg width="83" height="29" viewBox="0 0 83 29" fill="none" xmlns="http://www.w3.org/2000/svg">
<g clip-path="url(#clip0_21_830)">
<path d="M66.0723 7.09188C66.0723 7.33859 66.1063 7.59428 66.1999 7.8365C66.6124 8.91307 67.6629 9.57695 68.9984 9.01624C69.3174 8.88167 78.1512 5.12715 78.1512 5.12715C78.1512 5.12715 74.6721 14.4305 74.5403 14.7759C74.0341 16.1081 74.6423 17.3148 75.6758 17.7185C75.9055 17.8082 76.1437 17.8531 76.3776 17.8486C77.224 17.8441 77.9683 17.3193 78.3341 16.2696C78.3894 16.1126 82.7403 3.5123 82.8339 3.21176C82.8892 3.03233 82.9913 2.61067 82.9913 2.3191C82.9913 1.69559 82.7743 1.10797 82.3533 0.663882C81.9407 0.224285 81.3878 0 80.8051 0C80.5202 0 80.2905 0.0538283 79.9418 0.170456C79.7333 0.242227 68.5178 4.64269 67.5609 5.01949C66.6039 5.39629 66.0723 6.20371 66.0765 7.09188" fill="#EC2129"/>
<path d="M45.0578 14.1971V13.928H38.2571V15.7626H42.2082C41.179 19.1987 37.5 21.2172 37.5 21.2172L38.4825 22.6661C38.4825 22.6661 45.0578 19.8042 45.0578 14.1926V14.1971Z" fill="white"/>
<path d="M42.9101 26.3803V22.8142H40.4985V26.8334C40.4985 28.0894 41.447 28.9955 42.7484 28.9955H50.2212V27.1653H43.7522C43.1653 27.1653 42.9186 26.9186 42.9058 26.3803H42.9101Z" fill="white"/>
<path d="M44.7856 17.3102V19.1449H47.6565V23.5677H50.068V13.7351H47.6565V17.3102H44.7856Z" fill="white"/>
<path d="M65.5663 21.1052H67.9779V13.6589H65.5663V15.978H63.0527V17.7903H65.5663V21.1052Z" fill="white"/>
<path d="M11.4751 22.6753H2.29688V26.8335C2.29688 28.0895 3.24532 28.9956 4.54679 28.9956H12.011V23.2405C12.011 22.9265 11.7686 22.6753 11.4751 22.6753ZM9.59951 27.1655H5.55053C4.96359 27.1655 4.71266 26.9232 4.70415 26.3805V24.5144H9.59951V27.1655Z" fill="white"/>
<path d="M12.1725 13.9551V13.8699H2.16485V15.7045H9.65037C9.65037 15.8256 9.65037 15.9781 9.65037 16.1262C9.65037 17.8307 9.56956 18.9522 9.52703 19.4097H0V21.2444H14.6776V19.4097H11.6749C11.8195 18.8355 12.1767 17.0592 12.1767 13.9551H12.1725Z" fill="white"/>
<path d="M27.1606 23.5992C29.1638 23.1372 30.6439 21.5538 30.6439 19.6787C30.6439 18.6695 30.2143 17.7454 29.5083 17.0322H32.0687V15.1975H27.1606V13.4661H24.7533V15.1975H19.8452V17.0322H22.4056C21.6995 17.7454 21.27 18.665 21.27 19.6787C21.27 21.5583 22.7501 23.1372 24.7575 23.5992V25.4563H18.6245V27.291H33.2978V25.4563H27.1648V23.5992H27.1606ZM23.7453 19.6204C23.7453 18.3689 24.7363 17.3462 25.9527 17.3462C27.1691 17.3462 28.16 18.3644 28.16 19.6204C28.16 20.8764 27.1691 21.8947 25.9527 21.8947C24.7363 21.8947 23.7453 20.8764 23.7453 19.6204Z" fill="white"/>
<path d="M60.9562 20.9481H63.2912C63.1934 20.3515 62.3385 15.5339 60.1141 13.8652H57.4219L55.3506 21.0065H57.7706L59.1486 15.8659C60.3097 17.3013 60.8754 20.4771 60.952 20.9481H60.9562Z" fill="white"/>
<path d="M61.4368 27.2282C60.8243 27.2282 60.7137 27.0623 60.7137 26.515V26.2862H67.9823V22.4285C67.9823 22.0966 67.7527 21.8364 67.4252 21.8364H58.3447V23.6038H65.6729V24.5503H58.4085V26.8335C58.4085 28.1568 59.3102 28.9956 60.6584 28.9956H68.1397V27.2282H61.4368Z" fill="white"/>
</g>
<defs>
<clipPath id="clip0_21_830">
<rect width="83" height="29" fill="white"/>
</clipPath>
</defs>
</svg>
