<svg xmlns="http://www.w3.org/2000/svg" xmlns:xlink="http://www.w3.org/1999/xlink" width="107" height="28.337" viewBox="0 0 107 28.337">
  <defs>
    <clipPath id="clip-path">
      <rect id="사각형_33" data-name="사각형 33" width="107" height="28.337" fill="#021a63"/>
    </clipPath>
  </defs>
  <g id="logo" transform="translate(-330 -36)">
    <g id="logo-2" data-name="logo" transform="translate(330 36)">
      <g id="그룹_2" data-name="그룹 2" clip-path="url(#clip-path)">
        <path id="패스_1" data-name="패스 1" d="M372.3,175.873v2.908a.842.842,0,0,1-.125.126h-3.786a6.414,6.414,0,0,1,2.54,3.2c.649,2.485-1.112,4.427-3.1,5.549-4.253,2.405-12.045,2.339-16.076-.54-2.364-1.689-3.281-4.369-1.255-6.818a11.657,11.657,0,0,1,1.579-1.392h-4.243v-3.034ZM354.6,181.3a2.172,2.172,0,0,0,.278,3.33c2.2,1.762,7.589,1.783,9.985.45,1.634-.91,2.334-2.582.733-3.975-2.207-1.919-8.935-1.968-11,.195" transform="translate(-318.883 -161.038)" fill="#021a63"/>
        <path id="패스_2" data-name="패스 2" d="M1008.145,29.661h3.744V24.814a.841.841,0,0,1,.125-.126h4.243a.839.839,0,0,1,.125.126v12.9a.839.839,0,0,1-.125.126h-4.243a.841.841,0,0,1-.125-.126V32.7h-3.619a11.847,11.847,0,0,0-.526,1.153c-2.8,5.235-12.066,5.31-15.006.169-2.038-3.565.166-7.247,3.593-8.7,4.063-1.717,9.884-.526,11.712,3.9a1.136,1.136,0,0,1,.1.444m-8.589-2a3.556,3.556,0,0,0-1.338,6.62c3.224,1.838,7.286-1.54,5.251-4.9a3.887,3.887,0,0,0-3.913-1.721" transform="translate(-909.383 -22.496)" fill="#021a63"/>
        <path id="패스_3" data-name="패스 3" d="M370.645,0V2.444h9.485V5.563h-3l.566.817c1.3,2.147.308,4.229-1.537,5.575-2.983,2.176-8.022,2.459-11.511,1.659-3.782-.867-8.139-3.9-4.824-8.051h-3V2.444h9.4V0Zm-3.6,5.587c-1.65.149-4.8,1.218-3.872,3.453.811,1.943,4.851,2.2,6.594,2,1.65-.188,4.983-1.192,3.967-3.514-.878-2.006-4.87-2.105-6.689-1.941" transform="translate(-327.129)" fill="#021a63"/>
        <path id="패스_4" data-name="패스 4" d="M1038.93,197.858v2.191h11.981v-2.191h4.41V207.8H1035.56a2.1,2.1,0,0,1-.583-.252,2.051,2.051,0,0,1-.457-.633v-9.061Zm11.981,5.226H1038.93v1.6h11.981Z" transform="translate(-948.404 -181.169)" fill="#021a63"/>
        <path id="패스_5" data-name="패스 5" d="M17.889,29.979v3.034h-6.24a11.262,11.262,0,0,0,1.962,6.231,8.06,8.06,0,0,0,2.122,1.9c.557.367,1.163.626,1.718.959.068.041.139-.027.106.143L15.688,44.4c-.191.168-.43.028-.627-.048a12.2,12.2,0,0,1-5.508-4.871c-.134-.249-.159-.593-.4-.732a.673.673,0,0,1-.066.313,12.093,12.093,0,0,1-3.569,3.633,15.663,15.663,0,0,1-3.482,1.843L0,42.117a11.953,11.953,0,0,0,5.027-3.632,10.427,10.427,0,0,0,1.8-5.472H.582V29.979Z" transform="translate(0 -27.45)" fill="#021a63"/>
        <path id="패스_6" data-name="패스 6" d="M693.289,29.979a5.152,5.152,0,0,1,.67.165c1.3.418,1.169,1.972,1.027,3.071a26.467,26.467,0,0,1-1.154,4.647A27.663,27.663,0,0,1,684.2,51.547l-3.52-2.1a.3.3,0,0,0,.206-.086,25.661,25.661,0,0,0,8.616-11.756,15.652,15.652,0,0,0,1-4.511h-9.236V29.979Z" transform="translate(-624.022 -27.45)" fill="#021a63"/>
        <path id="패스_7" data-name="패스 7" d="M896.913,24.982V49.468a.839.839,0,0,1-.125.126h-4.2V24.982Z" transform="translate(-818.285 -22.875)" fill="#021a63"/>
        <path id="패스_8" data-name="패스 8" d="M43.39,218.843v5.395H59.947v3.034H39.854c-.274,0-.874-.65-.874-.885v-7.544Z" transform="translate(-35.735 -200.384)" fill="#021a63"/>
        <rect id="사각형_32" data-name="사각형 32" width="4.41" height="17.195" transform="translate(19.802 2.107)" fill="#021a63"/>
      </g>
    </g>
  </g>
</svg>
