<svg width="123" height="37" viewBox="0 0 123 37" fill="none" xmlns="http://www.w3.org/2000/svg">
<path d="M14.994 26.396L14.658 31.373C14.63 31.625 14.539 31.807 14.385 31.919C14.231 32.031 14.021 32.087 13.755 32.087H5.313C4.641 32.087 4.046 31.947 3.528 31.667C3.024 31.387 2.772 30.848 2.772 30.05V24.674H13.671C14.161 24.674 14.511 24.814 14.721 25.094C14.945 25.36 15.036 25.794 14.994 26.396ZM17.01 20.579V22.511H0.84V20.579H11.928C12.04 19.837 12.138 19.067 12.222 18.269C12.32 17.457 12.369 16.82 12.369 16.358C12.369 16.064 12.32 15.882 12.222 15.812C12.124 15.728 11.949 15.686 11.697 15.686H2.898V13.754H13.146C13.58 13.754 13.944 13.859 14.238 14.069C14.546 14.279 14.707 14.65 14.721 15.182C14.721 15.868 14.665 16.715 14.553 17.723C14.441 18.731 14.301 19.683 14.133 20.579H17.01ZM5.775 30.176H12.537V26.585H5.166V29.525C5.166 29.777 5.208 29.945 5.292 30.029C5.39 30.127 5.551 30.176 5.775 30.176ZM31.5968 20.243C31.5968 21.391 31.2328 22.329 30.5048 23.057C29.7908 23.771 28.8878 24.226 27.7958 24.422V26.963H34.8518V28.895H18.6608V26.963H25.3178V24.422C24.2398 24.212 23.3508 23.75 22.6508 23.036C21.9508 22.308 21.6008 21.377 21.6008 20.243C21.6008 19.767 21.6638 19.319 21.7898 18.899C21.9298 18.479 22.1258 18.101 22.3778 17.765H20.0888V15.812H25.1918C25.2478 15.672 25.2898 15.518 25.3178 15.35C25.3598 15.168 25.3808 14.979 25.3808 14.783C25.3808 14.699 25.3598 14.58 25.3178 14.426C25.2898 14.272 25.2338 13.999 25.1498 13.607L27.5858 12.977C27.6278 13.187 27.6698 13.39 27.7118 13.586C27.7538 13.768 27.7748 13.957 27.7748 14.153C27.7748 14.433 27.7398 14.72 27.6698 15.014C27.5998 15.294 27.4948 15.56 27.3548 15.812H33.0668V17.765H30.7988C31.0508 18.101 31.2468 18.479 31.3868 18.899C31.5268 19.319 31.5968 19.767 31.5968 20.243ZM29.1818 20.243C29.1818 19.641 28.9718 19.088 28.5518 18.584C28.1318 18.08 27.4738 17.828 26.5778 17.828C25.6398 17.828 24.9748 18.08 24.5828 18.584C24.2048 19.088 24.0158 19.641 24.0158 20.243C24.0158 20.831 24.2118 21.377 24.6038 21.881C24.9958 22.371 25.6538 22.616 26.5778 22.616C27.4738 22.616 28.1318 22.371 28.5518 21.881C28.9718 21.377 29.1818 20.831 29.1818 20.243ZM50.4046 13.964V19.655C49.8586 19.963 49.1656 20.243 48.3256 20.495C47.4996 20.747 46.7086 20.873 45.9526 20.873H41.1016C40.3456 20.873 39.7366 20.733 39.2746 20.453C38.8126 20.159 38.5816 19.641 38.5816 18.899V13.964H50.4046ZM46.1206 27.446H43.7266V24.401H36.5236V22.469H52.6936V24.401H46.1206V27.446ZM38.3716 25.913H40.8076V29.399C40.8076 29.567 40.8426 29.7 40.9126 29.798C40.9826 29.91 41.1366 29.966 41.3746 29.966H46.3726C47.1706 29.966 47.9196 29.91 48.6196 29.798C49.3336 29.686 50.0336 29.525 50.7196 29.315L51.2236 31.079C50.5796 31.331 49.8516 31.527 49.0396 31.667C48.2416 31.807 47.3666 31.877 46.4146 31.877H40.4716C39.7996 31.877 39.2816 31.716 38.9176 31.394C38.5536 31.072 38.3716 30.617 38.3716 30.029V25.913ZM40.9756 15.833V18.5C40.9756 18.696 41.0176 18.836 41.1016 18.92C41.1856 18.99 41.3326 19.025 41.5426 19.025H45.6796C46.0716 19.025 46.4566 18.983 46.8346 18.899C47.2126 18.815 47.6046 18.682 48.0106 18.5V15.833H40.9756ZM64.4454 20.138C64.4454 21.132 64.1304 21.993 63.5004 22.721C62.8844 23.435 62.0724 23.904 61.0644 24.128V26.648H61.3374C62.4294 26.648 63.4094 26.543 64.2774 26.333C65.1454 26.109 66.0204 25.724 66.9024 25.178V14.006H69.3174V20.621H72.2784V22.637H69.3174V30.743H66.9024V27.278C66.1884 27.712 65.3764 28.041 64.4664 28.265C63.5564 28.475 62.5134 28.58 61.3374 28.58H54.1134V26.648H58.6494V24.149C57.5994 23.939 56.7454 23.47 56.0874 22.742C55.4434 22.014 55.1214 21.146 55.1214 20.138C55.1214 19.718 55.1844 19.319 55.3104 18.941C55.4364 18.563 55.6184 18.206 55.8564 17.87H53.9244V15.917H58.4604C58.5864 15.735 58.6704 15.546 58.7124 15.35C58.7544 15.154 58.7754 14.958 58.7754 14.762C58.7614 14.58 58.7264 14.398 58.6704 14.216C58.6284 14.02 58.5794 13.824 58.5234 13.628L60.9174 12.977C60.9314 13.061 60.9524 13.145 60.9804 13.229C61.0084 13.299 61.0364 13.376 61.0644 13.46C61.0784 13.53 61.0924 13.607 61.1064 13.691C61.1344 13.775 61.1554 13.866 61.1694 13.964C61.2114 14.384 61.1904 14.748 61.1064 15.056C61.0364 15.364 60.9034 15.651 60.7074 15.917H65.5584V17.87H63.7104C63.9344 18.206 64.1094 18.563 64.2354 18.941C64.3754 19.319 64.4454 19.718 64.4454 20.138ZM62.0934 20.138C62.0934 19.536 61.8904 19.018 61.4844 18.584C61.0784 18.15 60.5184 17.933 59.8044 17.933C59.0764 17.933 58.5024 18.15 58.0824 18.584C57.6764 19.018 57.4734 19.536 57.4734 20.138C57.4734 20.81 57.6764 21.349 58.0824 21.755C58.5024 22.161 59.0764 22.364 59.8044 22.364C60.5184 22.364 61.0784 22.161 61.4844 21.755C61.8904 21.349 62.0934 20.81 62.0934 20.138ZM85.123 30.323H82.897V14.006H85.123V20.075H87.328V14.006H89.575V30.743H87.328V22.133H85.123V30.323ZM73.804 27.299L72.418 25.598C74.14 24.128 75.421 22.721 76.261 21.377C77.115 20.019 77.682 18.668 77.962 17.324C78.004 17.114 77.997 16.96 77.941 16.862C77.885 16.75 77.752 16.694 77.542 16.694H73.153V14.72H78.97C79.53 14.72 79.908 14.867 80.104 15.161C80.314 15.441 80.412 15.833 80.398 16.337C80.356 17.247 80.181 18.15 79.873 19.046C79.579 19.942 79.187 20.81 78.697 21.65C78.991 21.72 79.264 21.825 79.516 21.965C79.768 22.105 79.992 22.301 80.188 22.553C80.328 22.763 80.482 23.001 80.65 23.267C80.832 23.519 81.014 23.792 81.196 24.086C81.392 24.38 81.588 24.695 81.784 25.031C81.994 25.353 82.204 25.682 82.414 26.018L80.692 27.278C80.23 26.522 79.845 25.906 79.537 25.43C79.243 24.94 78.956 24.499 78.676 24.107C78.606 24.037 78.536 23.96 78.466 23.876C78.41 23.792 78.34 23.715 78.256 23.645C78.172 23.575 78.081 23.505 77.983 23.435C77.885 23.365 77.773 23.309 77.647 23.267C77.101 24.023 76.499 24.737 75.841 25.409C75.197 26.081 74.518 26.711 73.804 27.299ZM98.1776 23.162H94.8176C93.9916 23.162 93.3686 22.98 92.9486 22.616C92.5286 22.238 92.3186 21.65 92.3186 20.852V14.09H101.16V16.022H94.6916V20.621C94.6916 20.831 94.7266 20.985 94.7966 21.083C94.8806 21.181 95.0206 21.23 95.2166 21.23H98.1146C98.4926 21.23 98.9266 21.209 99.4166 21.167C99.9206 21.125 100.432 21.048 100.95 20.936C101.482 20.824 102.007 20.67 102.525 20.474C103.057 20.278 103.554 20.026 104.016 19.718V13.796H106.41V18.563H109.329V20.474H106.41V26.018H104.016V21.881C103.12 22.343 102.154 22.672 101.118 22.868C100.082 23.064 99.1016 23.162 98.1776 23.162ZM96.8756 29.357C96.8756 29.553 96.8966 29.7 96.9386 29.798C96.9946 29.896 97.1206 29.945 97.3166 29.945H102.315C103.155 29.945 103.89 29.903 104.52 29.819C105.164 29.735 105.885 29.581 106.683 29.357L107.187 31.142C106.263 31.436 105.465 31.632 104.793 31.73C104.135 31.828 103.393 31.877 102.567 31.877H96.6236C95.8956 31.877 95.3566 31.723 95.0066 31.415C94.6566 31.121 94.4816 30.687 94.4816 30.113V25.304H96.8756V29.357Z" fill="black"/>
<path d="M105 6.80453C105 7.04124 105.034 7.28657 105.128 7.51898C105.543 8.55193 106.6 9.18891 107.943 8.65092C108.264 8.5218 117.148 4.9194 117.148 4.9194C117.148 4.9194 113.649 13.8458 113.516 14.1772C113.007 15.4554 113.619 16.6132 114.659 17.0006C114.89 17.0866 115.129 17.1297 115.364 17.1254C116.216 17.1211 116.964 16.6175 117.332 15.6104C117.388 15.4597 121.763 3.36998 121.858 3.08162C121.913 2.90946 122.016 2.50489 122.016 2.22514C122.016 1.62689 121.798 1.06307 121.374 0.636983C120.959 0.215197 120.403 0 119.817 0C119.531 0 119.3 0.0516473 118.949 0.16355C118.739 0.232413 107.46 4.45458 106.497 4.81611C105.535 5.17764 105 5.95235 105.004 6.80453" fill="#ED1C24"/>
</svg>
