<svg width="1420" height="159" viewBox="0 0 1420 159" fill="none" xmlns="http://www.w3.org/2000/svg">
<g clip-path="url(#clip0_27_243)">
<path d="M345.698 72.9388C342.018 53.6696 327.359 41.1979 314.956 32.4499C256.796 -8.57089 200.357 3.54621 163.027 16.2544C153.235 19.5644 146.825 21.9879 139.941 27.8395C107.597 10.0481 75.3714 14.7176 63.4426 17.4365C49.4366 8.62949 27.7749 -3.01475 15.312 0.70904C10.9797 2.00941 7.59689 4.9648 5.87582 9.04324C-5.57818 35.9964 2.61173 62.8904 6.3506 72.5841C-6.46839 115.201 11.039 141.327 11.7512 142.45C14.7779 146.824 20.772 147.947 25.1637 144.991C29.6147 142.036 30.8016 136.007 27.8936 131.574C27.3595 130.746 14.2438 110.236 25.9352 75.1849C26.7067 72.8206 26.5286 70.2198 25.5197 67.9737C25.401 67.7373 14.1844 43.3849 22.6711 19.5053C29.0212 20.6284 43.7987 27.7804 56.2616 36.0555C58.7542 37.7105 61.8996 38.0652 64.7482 37.1786C67.5375 36.2328 133.65 15.5451 173.294 91.8533C176.143 97.2912 181.187 99.1235 184.273 100.128C187.775 113.605 182.196 122.589 176.677 127.85C165.223 138.785 145.52 142.745 130.802 137.13C123.146 134.174 113.71 127.259 112.582 110.945C111.454 95.5771 117.449 86.4745 127.241 72.9388C130.386 68.5648 129.377 62.5358 125.045 59.4031C120.653 56.2704 114.6 57.2752 111.454 61.5901C101.662 75.1849 91.5138 89.1934 93.1755 112.364C94.6592 132.697 105.816 148.36 123.858 155.276C130.564 157.877 137.923 159.059 145.282 159.059C161.721 159.059 178.635 152.971 190.208 141.858C204.095 128.618 208.428 110.058 201.959 91.0849C199.704 84.4057 193.532 82.5733 190.564 81.6867C190.327 81.6276 190.089 81.5685 189.852 81.5094C180.06 63.0087 168.724 49.473 156.914 39.6611C160 37.947 163.621 36.6466 169.259 34.7551C202.612 23.4655 252.76 12.5306 303.621 48.409C309.377 52.4875 313.888 56.2704 317.389 59.9942C311.573 63.0087 307.3 70.3971 307.122 79.2042C306.885 90.7893 313.769 100.306 322.434 100.483C323.68 100.483 324.867 100.306 326.054 99.951C325.223 106.926 323.858 113.191 322.078 115.378C311.098 129.032 274.956 132.874 254.659 132.165C249.318 131.869 244.748 136.125 244.57 141.504C244.392 146.883 248.546 151.375 253.947 151.552C254.837 151.552 256.736 151.67 259.407 151.67C275.49 151.67 319.585 149.602 337.33 127.554C347.122 115.437 347.359 81.9823 345.698 73.057V72.9388Z" fill="#517B63"/>
<path d="M498.991 27.8989C502.492 27.8989 505.697 28.5491 508.664 29.9086C511.632 31.209 514.184 33.0413 516.32 35.3465C518.457 37.6517 520.118 40.3707 521.305 43.3852C522.492 46.4588 523.086 49.7097 523.086 53.1971C523.086 56.6844 522.492 59.9354 521.305 63.0681C520.118 66.2008 518.457 68.8606 516.32 71.1067C514.184 73.3528 511.632 75.1852 508.664 76.4855C505.697 77.7859 502.433 78.4952 498.991 78.4952H437.032C433.531 78.4952 430.326 77.845 427.359 76.4855C424.392 75.1852 421.84 73.3528 419.703 71.1067C417.567 68.8606 415.905 66.1417 414.718 63.0681C413.531 59.9945 412.938 56.6844 412.938 53.1971C412.938 49.7097 413.531 46.4588 414.718 43.3852C415.905 40.3116 417.567 37.6517 419.703 35.3465C421.84 33.0413 424.392 31.209 427.359 29.9086C430.326 28.6082 433.59 27.8989 437.032 27.8989H498.991ZM523.145 105.803H502.492V135.298H485.104V105.803H451.276V135.298H433.887V105.803H412.997V90.435H523.205V105.803H523.145ZM496.854 63.3045C499.762 63.3045 501.958 62.3588 503.501 60.4082C505.044 58.4577 505.816 56.0342 505.816 53.138C505.816 50.2417 505.044 47.8183 503.501 45.8086C501.958 43.7989 499.762 42.8532 496.854 42.8532H439.11C436.202 42.8532 434.006 43.858 432.463 45.8086C430.92 47.8183 430.148 50.2417 430.148 53.138C430.148 56.0342 430.92 58.4577 432.463 60.4082C434.006 62.3588 436.202 63.3045 439.11 63.3045H496.854Z" fill="#517B63"/>
<path d="M542.255 42.8532V27.8398H603.086V71.0477C603.086 78.377 601.661 85.4109 598.872 92.09C596.083 98.7692 591.988 104.68 586.706 109.763C581.424 114.847 575.015 118.866 567.477 121.821C560 124.777 551.572 126.254 542.314 126.136V111.005C548.308 110.65 553.946 109.586 559.228 107.813C564.51 106.039 569.139 103.439 573.056 100.129C576.973 96.8187 580.059 92.7993 582.314 88.0707C584.569 83.3421 585.756 77.7859 585.756 71.5205V42.7941H542.374L542.255 42.8532ZM633.946 27.899H651.216V135.298H633.946V27.899Z" fill="#517B63"/>
<path d="M779.347 52.4286V67.442H732.819V73.4119H779.347V88.4253H669.139V73.4119H715.43V67.442H681.721C679.703 67.442 677.982 67.0874 676.439 66.319C674.896 65.5506 673.59 64.5457 672.581 63.3045C671.572 62.0041 670.801 60.5855 670.267 58.9896C669.733 57.3937 669.495 55.6796 669.495 53.9654V27.958H779.347V42.9714H686.825V49.6506C686.825 51.542 687.715 52.4877 689.555 52.4877H779.347V52.4286ZM758.219 94.6907C761.721 94.6907 764.747 95.2227 767.359 96.2866C769.97 97.3506 772.166 98.8283 773.946 100.602C775.727 102.375 777.092 104.562 777.982 107.044C778.872 109.527 779.347 112.128 779.347 114.846C779.347 117.565 778.872 120.284 777.982 122.767C777.092 125.249 775.727 127.436 773.946 129.269C772.166 131.101 769.97 132.579 767.359 133.643C764.747 134.707 761.721 135.239 758.219 135.239H690.148C686.765 135.239 683.739 134.707 681.187 133.643C678.635 132.579 676.439 131.101 674.718 129.269C672.997 127.436 671.632 125.249 670.742 122.767C669.851 120.284 669.377 117.625 669.377 114.846C669.377 112.068 669.851 109.527 670.742 107.044C671.632 104.562 672.997 102.434 674.718 100.602C676.439 98.7692 678.635 97.3506 681.187 96.2866C683.739 95.2227 686.765 94.6907 690.148 94.6907H758.219ZM755.133 120.462C757.448 120.462 759.169 119.989 760.237 118.984C761.305 117.979 761.839 116.62 761.839 114.906C761.839 113.191 761.305 111.95 760.237 111.064C759.169 110.177 757.448 109.704 755.133 109.704H693.412C690.979 109.704 689.258 110.177 688.249 111.064C687.24 111.95 686.706 113.251 686.706 114.906C686.706 116.62 687.24 117.979 688.249 118.984C689.258 119.989 690.979 120.462 693.412 120.462H755.133Z" fill="#517B63"/>
<path d="M890.208 104.975V103.261C890.208 101.665 889.911 100.661 889.377 100.188C888.843 99.7149 888.012 99.4193 886.825 99.4193H797.27V86.2974H843.561V80.0911H797.27V66.8509H907.478V80.0911H860.95V86.2974H894.777C899.229 86.2974 902.493 87.4796 904.451 89.8439C906.409 92.2082 907.418 95.6365 907.418 100.07V117.033H814.481V118.393C814.481 119.989 814.777 120.994 815.312 121.467C815.846 121.939 816.677 122.235 817.863 122.235H907.418V135.357H809.911C805.46 135.357 802.196 134.175 800.237 131.81C798.279 129.446 797.27 126.077 797.27 121.585V104.975H890.208ZM907.478 61.2357H809.852C807.834 61.2357 806.113 60.8811 804.57 60.1127C803.027 59.3443 801.721 58.3394 800.712 57.0982C799.703 55.7978 798.932 54.3792 798.398 52.7833C797.864 51.1874 797.626 49.4732 797.626 47.7591V27.958H907.478V61.2948V61.2357ZM890.208 48.0547V41.0208H814.956V45.2175C814.956 47.1089 815.846 48.0547 817.685 48.0547H890.208Z" fill="#517B63"/>
<path d="M925.4 128.382V113.014H971.691V94.1588H940.119C938.101 94.1588 936.38 93.8041 934.837 93.0357C933.294 92.2673 931.988 91.2625 930.979 90.0212C929.97 88.7209 929.199 87.3023 928.665 85.7064C928.13 84.1105 927.893 82.3963 927.893 80.6822V27.8989H945.163V45.6313H1015.85V27.8989H1033.12V94.1588H989.08V113.014H1035.61V128.382H925.4ZM1015.85 79.0272V60.7038H945.163V76.19C945.163 78.0815 946.053 79.0272 947.893 79.0272H1015.79H1015.85Z" fill="#517B63"/>
<path d="M1053.53 48.3501V33.455H1099.17V23.6431H1115.85V33.455H1163.74V48.3501H1053.53ZM1138.34 53.9063C1142.14 53.9063 1145.52 54.4973 1148.43 55.6795C1151.33 56.8617 1153.71 58.4576 1155.55 60.4672C1157.39 62.4769 1158.81 64.723 1159.76 67.3237C1160.71 69.9245 1161.19 72.6434 1161.19 75.4215C1161.19 78.1996 1160.71 80.9185 1159.76 83.5193C1158.81 86.12 1157.39 88.4252 1155.55 90.4349C1153.71 92.4446 1151.28 94.0996 1148.43 95.2817C1145.52 96.4639 1142.14 97.055 1138.34 97.055H1117.21V112.896H1163.74V128.264H1053.53V112.896H1099.82V97.055H1079.05C1075.13 97.055 1071.75 96.4639 1068.9 95.2817C1066.05 94.0996 1063.68 92.5037 1061.72 90.4349C1059.76 88.3661 1058.4 86.12 1057.45 83.5193C1056.5 80.9185 1056.02 78.1996 1056.02 75.4215C1056.02 72.6434 1056.5 69.9245 1057.45 67.3237C1058.4 64.723 1059.82 62.4178 1061.72 60.4672C1063.62 58.5167 1065.99 56.9208 1068.9 55.6795C1071.81 54.4382 1075.13 53.9063 1079.05 53.9063H1138.4H1138.34ZM1135.13 82.1598C1138.52 82.1598 1140.83 81.5096 1142.08 80.091C1143.32 78.6724 1143.92 77.1947 1143.92 75.4215C1143.92 73.6483 1143.32 72.2888 1142.08 70.9293C1140.83 69.5698 1138.52 68.8605 1135.13 68.8605H1082.14C1078.81 68.8605 1076.56 69.5698 1075.37 70.9293C1074.18 72.2888 1073.59 73.8256 1073.59 75.4215C1073.59 77.1356 1074.18 78.7315 1075.37 80.091C1076.56 81.4505 1078.81 82.1598 1082.14 82.1598H1135.13Z" fill="#517B63"/>
<path d="M1209.02 65.196C1208.43 67.0874 1207.3 69.2744 1205.58 71.6387C1203.86 74.0621 1201.72 76.3083 1199.05 78.4361C1196.56 80.564 1193.65 82.4555 1190.21 84.0514C1186.77 85.6473 1183.14 86.6521 1179.11 87.0659V71.5796C1184.98 70.1019 1190.03 66.7328 1194.3 61.5313C1198.52 56.2707 1200.65 48.8822 1200.65 39.3659V27.8398H1217.33V39.3659C1217.33 48.764 1219.41 56.1525 1223.56 61.5313C1227.77 66.7328 1232.88 70.1019 1238.87 71.5796V87.0659C1234.9 86.6521 1231.22 85.6473 1227.77 84.0514C1224.33 82.4555 1221.42 80.564 1218.93 78.4361C1216.2 76.3083 1214.01 74.003 1212.28 71.6387C1210.56 69.2744 1209.5 67.0874 1208.96 65.196H1209.02ZM1276.44 119.93V27.899H1293.12V135.298H1196.44C1194.42 135.298 1192.7 134.943 1191.16 134.175C1189.61 133.406 1188.31 132.402 1187.3 131.16C1186.29 129.86 1185.46 128.441 1184.93 126.845C1184.39 125.25 1184.09 123.594 1184.09 121.821V96.7004H1201.48V117.152C1201.48 118.038 1201.66 118.748 1202.02 119.28C1202.37 119.812 1203.09 120.048 1204.09 120.048H1276.38L1276.44 119.93ZM1232.64 43.8581H1250.92V27.899H1267.6V99.3603H1250.92V59.2261H1232.64V43.8581Z" fill="#517B63"/>
<path d="M1377.09 109.763V125.131H1323.2C1321.19 125.131 1319.47 124.777 1317.92 124.008C1316.38 123.24 1315.07 122.235 1314.07 120.994C1313.06 119.693 1312.28 118.275 1311.75 116.679C1311.22 115.083 1310.98 113.428 1310.98 111.655V27.8989H1375.79V43.267H1328.25V68.3878H1371.93V83.2829H1328.25V106.926C1328.25 108.818 1329.14 109.763 1330.98 109.763H1377.03H1377.09ZM1378.93 62.0632H1402.67V27.8989H1419.94V135.298H1402.67V77.0766H1378.93V62.0632Z" fill="#517B63"/>
</g>
<defs>
<clipPath id="clip0_27_243">
<rect width="1420" height="159" fill="white"/>
</clipPath>
</defs>
</svg>
