<svg width="238" height="30" viewBox="0 0 238 30" fill="none" xmlns="http://www.w3.org/2000/svg">
<path d="M64.1816 13.3459C63.4985 9.82035 60.7769 7.53847 58.4741 5.93792C47.6759 -1.5674 37.1974 0.649588 30.2668 2.97472C28.4487 3.58034 27.2587 4.02374 25.9806 5.09438C19.9755 1.83919 13.9925 2.69354 11.7777 3.19101C9.17739 1.57964 5.15564 -0.550831 2.84176 0.130488C2.03741 0.368409 1.40936 0.909137 1.08982 1.65534C-1.03674 6.58679 0.483809 11.5074 1.17797 13.281C-1.20202 21.0783 2.04843 25.8584 2.18065 26.0638C2.7426 26.8641 3.85546 27.0696 4.67083 26.5289C5.49722 25.9881 5.71759 24.8851 5.17768 24.074C5.07851 23.9226 2.64343 20.1699 4.81407 13.7569C4.95731 13.3243 4.92426 12.8484 4.73694 12.4375C4.7149 12.3942 2.63241 7.93861 4.20805 3.56952C5.38703 3.775 8.13063 5.08357 10.4445 6.59761C10.9073 6.90041 11.4913 6.9653 12.0202 6.80308C12.538 6.63005 24.8126 2.84495 32.173 16.8066C32.7018 17.8015 33.6384 18.1368 34.2114 18.3206C34.8615 20.7863 33.8257 22.4301 32.801 23.3926C30.6744 25.3933 27.0163 26.1179 24.2837 25.0905C22.8623 24.5498 21.1104 23.2845 20.901 20.2997C20.6917 17.4879 21.8046 15.8224 23.6226 13.3459C24.2066 12.5456 24.0193 11.4425 23.2149 10.8694C22.3996 10.2962 21.2757 10.48 20.6917 11.2695C18.8736 13.7569 16.9895 16.3199 17.298 20.5592C17.5735 24.2794 19.6449 27.1453 22.9946 28.4106C24.2396 28.8865 25.6059 29.1027 26.9722 29.1027C30.0243 29.1027 33.1646 27.9888 35.3132 25.9557C37.8915 23.5332 38.6959 20.1375 37.4949 16.666C37.0762 15.4439 35.9303 15.1087 35.3793 14.9465C35.3353 14.9356 35.2912 14.9248 35.2471 14.914C33.4291 11.5291 31.3245 9.05252 29.1319 7.2573C29.7048 6.94367 30.3769 6.70575 31.4237 6.35969C37.6161 4.2941 46.9267 2.2934 56.3695 8.85785C57.4383 9.60406 58.2757 10.2962 58.9258 10.9775C57.846 11.5291 57.0527 12.8809 57.0196 14.4922C56.9755 16.6119 58.2537 18.3531 59.8624 18.3855C60.0938 18.3855 60.3141 18.3531 60.5345 18.2882C60.3803 19.5643 60.1268 20.7106 59.7963 21.1108C57.7579 23.6089 51.0476 24.3119 47.2793 24.1821C46.2876 24.128 45.4392 24.9067 45.4061 25.8908C45.3731 26.8749 46.1444 27.6968 47.1471 27.7293C47.3123 27.7293 47.6649 27.7509 48.1608 27.7509C51.1468 27.7509 59.3335 27.3724 62.628 23.3386C64.4461 21.1216 64.4901 15.0005 64.1816 13.3675V13.3459Z" fill="white"/>
<path d="M84.7273 4.33496C85.1379 4.33496 85.5138 4.4101 85.8617 4.56721C86.2097 4.71749 86.509 4.92925 86.7595 5.19566C87.0101 5.46206 87.205 5.77628 87.3442 6.12466C87.4834 6.47987 87.5529 6.85557 87.5529 7.25859C87.5529 7.66162 87.4834 8.03732 87.3442 8.39935C87.205 8.76139 87.0101 9.06878 86.7595 9.32836C86.509 9.58793 86.2097 9.79969 85.8617 9.94997C85.5138 10.1002 85.131 10.1822 84.7273 10.1822H77.4614C77.0508 10.1822 76.6749 10.1071 76.327 9.94997C75.979 9.79969 75.6797 9.58793 75.4291 9.32836C75.1786 9.06878 74.9837 8.75456 74.8445 8.39935C74.7053 8.04415 74.6357 7.66162 74.6357 7.25859C74.6357 6.85557 74.7053 6.47987 74.8445 6.12466C74.9837 5.76945 75.1786 5.46206 75.4291 5.19566C75.6797 4.92925 75.979 4.71749 76.327 4.56721C76.6749 4.41693 77.0577 4.33496 77.4614 4.33496H84.7273ZM87.5599 13.3381H85.1379V16.7467H83.0987V13.3381H79.1317V16.7467H77.0925V13.3381H74.6427V11.5621H87.5669V13.3381H87.5599ZM84.4768 8.42668C84.8178 8.42668 85.0753 8.31738 85.2562 8.09196C85.4372 7.86654 85.5277 7.58647 85.5277 7.25176C85.5277 6.91705 85.4372 6.63698 85.2562 6.40473C85.0753 6.17248 84.8178 6.06318 84.4768 6.06318H77.705C77.3639 6.06318 77.1064 6.17931 76.9255 6.40473C76.7445 6.63698 76.6541 6.91705 76.6541 7.25176C76.6541 7.58647 76.7445 7.86654 76.9255 8.09196C77.1064 8.31738 77.3639 8.42668 77.705 8.42668H84.4768Z" fill="white"/>
<path d="M89.8008 6.06318V4.32812H96.9345V9.32152C96.9345 10.1686 96.7674 10.9814 96.4403 11.7533C96.1132 12.5252 95.633 13.2083 95.0136 13.7958C94.3942 14.3832 93.6425 14.8477 92.7587 15.1893C91.8817 15.5308 90.8935 15.7016 89.8077 15.6879V13.9392C90.5107 13.8982 91.1718 13.7753 91.7913 13.5703C92.4107 13.3654 92.9535 13.0649 93.4129 12.6823C93.8722 12.2998 94.2341 11.8353 94.4986 11.2888C94.763 10.7424 94.9022 10.1002 94.9022 9.37617V6.05635H89.8147L89.8008 6.06318ZM100.554 4.33496H102.579V16.7467H100.554V4.33496Z" fill="white"/>
<path d="M117.604 7.16979V8.90485H112.148V9.59477H117.604V11.3298H104.68V9.59477H110.109V8.90485H106.156C105.919 8.90485 105.717 8.86386 105.536 8.77506C105.355 8.68626 105.202 8.57013 105.084 8.42668C104.966 8.2764 104.875 8.11246 104.812 7.92802C104.75 7.74359 104.722 7.54549 104.722 7.3474V4.3418H117.604V6.07685H106.754V6.84874C106.754 7.06733 106.859 7.17663 107.074 7.17663H117.604V7.16979ZM115.127 12.0539C115.537 12.0539 115.892 12.1154 116.198 12.2383C116.505 12.3613 116.762 12.5321 116.971 12.737C117.18 12.9419 117.34 13.1947 117.444 13.4816C117.549 13.7685 117.604 14.069 117.604 14.3832C117.604 14.6975 117.549 15.0117 117.444 15.2986C117.34 15.5855 117.18 15.8382 116.971 16.05C116.762 16.2617 116.505 16.4325 116.198 16.5555C115.892 16.6784 115.537 16.7399 115.127 16.7399H107.144C106.747 16.7399 106.392 16.6784 106.093 16.5555C105.794 16.4325 105.536 16.2617 105.334 16.05C105.133 15.8382 104.972 15.5855 104.868 15.2986C104.764 15.0117 104.708 14.7043 104.708 14.3832C104.708 14.0622 104.764 13.7685 104.868 13.4816C104.972 13.1947 105.133 12.9487 105.334 12.737C105.536 12.5252 105.794 12.3613 106.093 12.2383C106.392 12.1154 106.747 12.0539 107.144 12.0539H115.127ZM114.765 15.0322C115.036 15.0322 115.238 14.9775 115.363 14.8614C115.489 14.7453 115.551 14.5882 115.551 14.3901C115.551 14.192 115.489 14.0485 115.363 13.9461C115.238 13.8436 115.036 13.7889 114.765 13.7889H107.527C107.241 13.7889 107.04 13.8436 106.921 13.9461C106.803 14.0485 106.74 14.1988 106.74 14.3901C106.74 14.5882 106.803 14.7453 106.921 14.8614C107.04 14.9775 107.241 15.0322 107.527 15.0322H114.765Z" fill="white"/>
<path d="M130.606 13.2425V13.0444C130.606 12.8599 130.571 12.7438 130.508 12.6892C130.446 12.6345 130.348 12.6004 130.209 12.6004H119.707V11.0839H125.136V10.3667H119.707V8.83654H132.631V10.3667H127.175V11.0839H131.142C131.664 11.0839 132.047 11.2205 132.276 11.4938C132.506 11.767 132.624 12.1632 132.624 12.6755V14.636H121.725V14.7931C121.725 14.9775 121.76 15.0937 121.823 15.1483C121.885 15.2029 121.983 15.2371 122.122 15.2371H132.624V16.7536H121.189C120.667 16.7536 120.285 16.6169 120.055 16.3437C119.825 16.0705 119.707 15.6811 119.707 15.162V13.2425H130.606ZM132.631 8.1876H121.182C120.946 8.1876 120.744 8.14661 120.563 8.05781C120.382 7.96901 120.229 7.85289 120.111 7.70944C119.992 7.55916 119.902 7.39521 119.839 7.21078C119.777 7.02635 119.749 6.82825 119.749 6.63015V4.3418H132.631V8.19443V8.1876ZM130.606 6.66431V5.85143H121.781V6.33642C121.781 6.55501 121.885 6.66431 122.101 6.66431H130.606Z" fill="white"/>
<path d="M134.733 15.9475V14.1715H140.161V11.9924H136.459C136.222 11.9924 136.02 11.9514 135.84 11.8626C135.659 11.7738 135.505 11.6577 135.387 11.5142C135.269 11.364 135.178 11.2 135.116 11.0156C135.053 10.8312 135.025 10.6331 135.025 10.435V4.33496H137.05V6.38423H145.34V4.33496H147.365V11.9924H142.201V14.1715H147.657V15.9475H134.733ZM145.34 10.2437V8.12612H137.05V9.91582C137.05 10.1344 137.155 10.2437 137.371 10.2437H145.333H145.34Z" fill="white"/>
<path d="M149.759 6.69809V4.9767H155.111V3.84277H157.066V4.9767H162.683V6.69809H149.759ZM159.704 7.3402C160.15 7.3402 160.546 7.40851 160.887 7.54513C161.228 7.68175 161.507 7.86618 161.723 8.09843C161.938 8.33068 162.105 8.59026 162.217 8.89082C162.328 9.19138 162.384 9.5056 162.384 9.82665C162.384 10.1477 162.328 10.4619 162.217 10.7625C162.105 11.063 161.938 11.3295 161.723 11.5617C161.507 11.794 161.221 11.9852 160.887 12.1218C160.546 12.2585 160.15 12.3268 159.704 12.3268H157.227V14.1575H162.683V15.9335H149.759V14.1575H155.187V12.3268H152.751C152.292 12.3268 151.895 12.2585 151.561 12.1218C151.227 11.9852 150.949 11.8008 150.719 11.5617C150.49 11.3226 150.329 11.063 150.218 10.7625C150.107 10.4619 150.051 10.1477 150.051 9.82665C150.051 9.5056 150.107 9.19138 150.218 8.89082C150.329 8.59026 150.497 8.32385 150.719 8.09843C150.942 7.87301 151.22 7.68858 151.561 7.54513C151.902 7.40168 152.292 7.3402 152.751 7.3402H159.711H159.704ZM159.328 10.6054C159.725 10.6054 159.997 10.5302 160.143 10.3663C160.289 10.2024 160.358 10.0316 160.358 9.82665C160.358 9.62173 160.289 9.46461 160.143 9.3075C159.997 9.15039 159.725 9.06842 159.328 9.06842H153.113C152.724 9.06842 152.459 9.15039 152.32 9.3075C152.181 9.46461 152.111 9.64222 152.111 9.82665C152.111 10.0247 152.181 10.2092 152.32 10.3663C152.459 10.5234 152.724 10.6054 153.113 10.6054H159.328Z" fill="white"/>
<path d="M167.993 8.64526C167.923 8.86385 167.791 9.11659 167.589 9.38983C167.388 9.6699 167.137 9.92947 166.824 10.1754C166.532 10.4213 166.19 10.6399 165.787 10.8243C165.383 11.0088 164.959 11.1249 164.485 11.1727V9.383C165.174 9.21223 165.766 8.82287 166.267 8.22174C166.761 7.61379 167.012 6.75993 167.012 5.66015V4.32812H168.967V5.66015C168.967 6.74627 169.211 7.60013 169.698 8.22174C170.192 8.82287 170.791 9.21223 171.494 9.383V11.1727C171.027 11.1249 170.596 11.0088 170.192 10.8243C169.789 10.6399 169.448 10.4213 169.155 10.1754C168.835 9.92947 168.578 9.66307 168.376 9.38983C168.174 9.11659 168.049 8.86385 167.986 8.64526H167.993ZM175.899 14.9707V4.33496H177.855V16.7467H166.518C166.281 16.7467 166.079 16.7057 165.898 16.6169C165.717 16.5281 165.564 16.412 165.446 16.2686C165.327 16.1183 165.23 15.9543 165.167 15.7699C165.105 15.5855 165.07 15.3942 165.07 15.1893V12.2861H167.109V14.6496C167.109 14.7521 167.13 14.8341 167.172 14.8955C167.214 14.957 167.297 14.9843 167.415 14.9843H175.892L175.899 14.9707ZM170.763 6.1793H172.907V4.33496H174.862V12.5935H172.907V7.95534H170.763V6.1793Z" fill="white"/>
<path d="M187.703 13.7958V15.5718H181.384C181.147 15.5718 180.945 15.5308 180.764 15.442C180.584 15.3532 180.43 15.2371 180.312 15.0936C180.194 14.9434 180.103 14.7794 180.041 14.595C179.978 14.4106 179.95 14.2193 179.95 14.0144V4.33496H187.55V6.111H181.975V9.01414H187.098V10.7355H181.975V13.4679C181.975 13.6865 182.08 13.7958 182.296 13.7958H187.696H187.703ZM187.919 8.28323H190.703V4.33496H192.728V16.7467H190.703V10.0183H187.919V8.28323Z" fill="white"/>
<path d="M235.885 25.1956V22.5434C235.885 22.0398 236.204 21.7881 236.841 21.7881H238V22.4672H236.948C236.79 22.4672 236.711 22.5297 236.711 22.6546V25.1956H235.885Z" fill="white"/>
<path d="M231.719 24.4403V22.5434C231.719 22.0398 232.038 21.7881 232.676 21.7881H234.244C234.882 21.7881 235.201 22.0398 235.201 22.5434V23.8373H232.545V24.3291C232.545 24.454 232.624 24.5164 232.783 24.5164H235.064V25.1956H232.676C232.038 25.1956 231.719 24.9438 231.719 24.4403ZM232.545 23.1581H234.375V22.6546C234.375 22.5297 234.294 22.4672 234.131 22.4672H232.783C232.624 22.4672 232.545 22.5297 232.545 22.6546V23.1581Z" fill="white"/>
<path d="M228.951 24.4405V20.752H229.777V21.7883H231.066V22.4674H229.777V24.3293C229.777 24.4542 229.856 24.5166 230.015 24.5166H231.066V25.1958H229.908C229.27 25.1958 228.951 24.944 228.951 24.4405Z" fill="white"/>
<path d="M224.646 25.1956V21.7881H227.249C227.886 21.7881 228.205 22.0398 228.205 22.5434V25.1956H227.379V22.6546C227.379 22.5297 227.298 22.4672 227.136 22.4672H225.472V25.1956H224.646Z" fill="white"/>
<path d="M220.481 24.4403V22.5434C220.481 22.0398 220.8 21.7881 221.437 21.7881H223.006C223.644 21.7881 223.962 22.0398 223.962 22.5434V23.8373H221.307V24.3291C221.307 24.454 221.386 24.5164 221.544 24.5164H223.826V25.1956H221.437C220.8 25.1956 220.481 24.9438 220.481 24.4403ZM221.307 23.1581H223.137V22.6546C223.137 22.5297 223.055 22.4672 222.893 22.4672H221.544C221.386 22.4672 221.307 22.5297 221.307 22.6546V23.1581Z" fill="white"/>
<path d="M215.497 24.3878V21.5599C215.497 21.0213 215.839 20.752 216.524 20.752H219.667V21.4487H216.596C216.413 21.4487 216.322 21.5209 216.322 21.6653V24.2824C216.322 24.4268 216.413 24.499 216.596 24.499H219.667V25.1958H216.524C215.839 25.1958 215.497 24.9265 215.497 24.3878Z" fill="white"/>
<path d="M209.677 25.1956V21.7881H212.279C212.917 21.7881 213.236 22.0398 213.236 22.5434V25.1956H212.41V22.6546C212.41 22.5297 212.329 22.4672 212.167 22.4672H210.503V25.1956H209.677Z" fill="white"/>
<path d="M205.326 24.4403V22.5434C205.326 22.0398 205.645 21.7881 206.283 21.7881H207.988C208.625 21.7881 208.944 22.0398 208.944 22.5434V24.4403C208.944 24.9438 208.625 25.1956 207.988 25.1956H206.283C205.645 25.1956 205.326 24.9438 205.326 24.4403ZM206.152 24.3291C206.152 24.454 206.231 24.5164 206.39 24.5164H207.875C208.037 24.5164 208.119 24.454 208.119 24.3291V22.6546C208.119 22.5297 208.037 22.4672 207.875 22.4672H206.39C206.231 22.4672 206.152 22.5297 206.152 22.6546V24.3291Z" fill="white"/>
<path d="M203.627 25.1958V21.7883H204.453V25.1958H203.627ZM203.627 21.4253V20.752H204.453V21.4253H203.627Z" fill="white"/>
<path d="M200.841 24.4405V20.752H201.667V21.7883H202.956V22.4674H201.667V24.3293C201.667 24.4542 201.746 24.5166 201.905 24.5166H202.956V25.1958H201.798C201.16 25.1958 200.841 24.944 200.841 24.4405Z" fill="white"/>
<path d="M196.879 24.4403V22.5434C196.879 22.0398 197.198 21.7881 197.835 21.7881H200.158V22.4672H197.942C197.784 22.4672 197.705 22.5297 197.705 22.6546V24.3291C197.705 24.454 197.784 24.5164 197.942 24.5164H200.158V25.1956H197.835C197.198 25.1956 196.879 24.9438 196.879 24.4403Z" fill="white"/>
<path d="M192.713 24.4403V22.5434C192.713 22.0398 193.032 21.7881 193.67 21.7881H195.238C195.876 21.7881 196.195 22.0398 196.195 22.5434V23.8373H193.539V24.3291C193.539 24.454 193.618 24.5164 193.777 24.5164H196.058V25.1956H193.67C193.032 25.1956 192.713 24.9438 192.713 24.4403ZM193.539 23.1581H195.369V22.6546C195.369 22.5297 195.288 22.4672 195.125 22.4672H193.777C193.618 22.4672 193.539 22.5297 193.539 22.6546V23.1581Z" fill="white"/>
<path d="M189.945 24.4405V20.752H190.771V21.7883H192.06V22.4674H190.771V24.3293C190.771 24.4542 190.85 24.5166 191.009 24.5166H192.06V25.1958H190.902C190.264 25.1958 189.945 24.944 189.945 24.4405Z" fill="white"/>
<path d="M185.594 24.4403V22.5434C185.594 22.0398 185.913 21.7881 186.551 21.7881H188.256C188.894 21.7881 189.212 22.0398 189.212 22.5434V24.4403C189.212 24.9438 188.894 25.1956 188.256 25.1956H186.551C185.913 25.1956 185.594 24.9438 185.594 24.4403ZM186.42 24.3291C186.42 24.454 186.499 24.5164 186.658 24.5164H188.143C188.305 24.5164 188.387 24.454 188.387 24.3291V22.6546C188.387 22.5297 188.305 22.4672 188.143 22.4672H186.658C186.499 22.4672 186.42 22.5297 186.42 22.6546V24.3291Z" fill="white"/>
<path d="M182.861 25.1956V22.5434C182.861 22.0398 183.18 21.7881 183.818 21.7881H184.976V22.4672H183.925C183.766 22.4672 183.687 22.5297 183.687 22.6546V25.1956H182.861Z" fill="white"/>
<path d="M177.923 25.1958V20.752H181.143C181.829 20.752 182.171 21.0213 182.171 21.5599V22.7075C182.171 23.2461 181.829 23.5154 181.143 23.5154H178.749V25.1958H177.923ZM178.749 22.8129H181.072C181.254 22.8129 181.345 22.7406 181.345 22.5962V21.6712C181.345 21.5267 181.254 21.4545 181.072 21.4545H178.749V22.8129Z" fill="white"/>
<path d="M175.912 25.1957H174.944L174.588 24.8386C174.251 25.1235 173.831 25.266 173.328 25.266C172.92 25.266 172.583 25.1645 172.318 24.9615C172.025 24.7312 171.878 24.4151 171.878 24.0131C171.878 23.4549 172.152 23.0294 172.698 22.7367C172.484 22.4557 172.377 22.1629 172.377 21.8585C172.377 21.5072 172.496 21.2281 172.734 21.0212C172.964 20.8066 173.255 20.6992 173.607 20.6992C173.916 20.6992 174.176 20.789 174.386 20.9685C174.599 21.1442 174.706 21.3901 174.706 21.7063C174.706 22.1824 174.399 22.5708 173.786 22.8714L174.249 23.3807C174.328 23.4744 174.401 23.5622 174.469 23.6442C174.54 23.7223 174.607 23.7925 174.671 23.855C174.849 23.5857 174.98 23.1973 175.063 22.6899H175.788C175.657 23.4471 175.435 24.0033 175.122 24.3585L175.912 25.1957ZM173.447 24.6395C173.748 24.6395 173.99 24.5497 174.172 24.3702L173.09 23.1817C172.793 23.3807 172.645 23.6169 172.645 23.8901C172.645 24.1126 172.72 24.2941 172.871 24.4346C173.021 24.5712 173.213 24.6395 173.447 24.6395ZM173.578 21.273C173.431 21.273 173.318 21.3237 173.239 21.4252C173.16 21.5228 173.12 21.6438 173.12 21.7882C173.12 22.0107 173.217 22.2293 173.411 22.444C173.506 22.3893 173.587 22.3386 173.655 22.2917C173.722 22.241 173.776 22.1942 173.815 22.1512C173.946 22.0302 174.011 21.8936 174.011 21.7414C174.011 21.6126 173.974 21.5033 173.898 21.4135C173.827 21.3198 173.72 21.273 173.578 21.273Z" fill="white"/>
<path d="M166.413 24.4403V22.5434C166.413 22.0398 166.731 21.7881 167.369 21.7881H168.938C169.575 21.7881 169.894 22.0398 169.894 22.5434V23.8373H167.238V24.3291C167.238 24.454 167.318 24.5164 167.476 24.5164H169.757V25.1956H167.369C166.731 25.1956 166.413 24.9438 166.413 24.4403ZM167.238 23.1581H169.068V22.6546C169.068 22.5297 168.987 22.4672 168.825 22.4672H167.476C167.318 22.4672 167.238 22.5297 167.238 22.6546V23.1581Z" fill="white"/>
<path d="M163.674 25.1956V22.5434C163.674 22.0398 163.993 21.7881 164.631 21.7881H165.789V22.4672H164.738C164.579 22.4672 164.5 22.5297 164.5 22.6546V25.1956H163.674Z" fill="white"/>
<path d="M159.455 24.4403V23.9075C159.455 23.4079 159.773 23.1581 160.411 23.1581H162.11V22.6546C162.11 22.5297 162.031 22.4672 161.873 22.4672H159.728V21.7881H161.986C162.623 21.7881 162.942 22.0398 162.942 22.5434V25.1956H160.411C159.773 25.1956 159.455 24.9438 159.455 24.4403ZM160.286 24.3291C160.286 24.454 160.366 24.5164 160.524 24.5164H162.11V23.8373H160.524C160.366 23.8373 160.286 23.8997 160.286 24.0246V24.3291Z" fill="white"/>
<path d="M154.553 24.3878V21.5599C154.553 21.0213 154.896 20.752 155.581 20.752H158.724V21.4487H155.652C155.47 21.4487 155.379 21.5209 155.379 21.6653V24.2824C155.379 24.4268 155.47 24.499 155.652 24.499H158.724V25.1958H155.581C154.896 25.1958 154.553 24.9265 154.553 24.3878Z" fill="white"/>
<path d="M151.484 25.1958V20.752H152.31V25.1958H151.484Z" fill="white"/>
<path d="M147.265 24.4403V23.9075C147.265 23.4079 147.583 23.1581 148.221 23.1581H149.92V22.6546C149.92 22.5297 149.841 22.4672 149.683 22.4672H147.538V21.7881H149.796C150.433 21.7881 150.752 22.0398 150.752 22.5434V25.1956H148.221C147.583 25.1956 147.265 24.9438 147.265 24.4403ZM148.096 24.3291C148.096 24.454 148.176 24.5164 148.334 24.5164H149.92V23.8373H148.334C148.176 23.8373 148.096 23.8997 148.096 24.0246V24.3291Z" fill="white"/>
<path d="M141.406 25.1956V21.7881H145.683C146.321 21.7881 146.64 22.0398 146.64 22.5434V25.1956H145.814V22.6546C145.814 22.5297 145.733 22.4672 145.571 22.4672H144.436V25.1956H143.61V22.6546C143.61 22.5297 143.529 22.4672 143.366 22.4672H142.232V25.1956H141.406Z" fill="white"/>
<path d="M139.707 25.1958V21.7883H140.532V25.1958H139.707ZM139.707 21.4253V20.752H140.532V21.4253H139.707Z" fill="white"/>
<path d="M135.378 25.1956V21.7881H137.98C138.618 21.7881 138.937 22.0398 138.937 22.5434V25.1956H138.111V22.6546C138.111 22.5297 138.03 22.4672 137.867 22.4672H136.204V25.1956H135.378Z" fill="white"/>
<path d="M129.891 25.1958L132.012 20.752H132.868L134.983 25.1958H134.133L133.628 24.1478H131.246L130.747 25.1958H129.891ZM131.567 23.4569H133.313L132.44 21.6302L131.567 23.4569Z" fill="white"/>
<path d="M124.627 24.4403V22.5434C124.627 22.0398 124.946 21.7881 125.584 21.7881H127.152C127.79 21.7881 128.109 22.0398 128.109 22.5434V23.8373H125.453V24.3291C125.453 24.454 125.532 24.5164 125.691 24.5164H127.972V25.1956H125.584C124.946 25.1956 124.627 24.9438 124.627 24.4403ZM125.453 23.1581H127.283V22.6546C127.283 22.5297 127.202 22.4672 127.04 22.4672H125.691C125.532 22.4672 125.453 22.5297 125.453 22.6546V23.1581Z" fill="white"/>
<path d="M120.07 21.7881H120.967L122.155 24.3525L123.343 21.7881H124.241L122.63 25.1956H121.674L120.07 21.7881Z" fill="white"/>
<path d="M118.762 25.1958V21.7883H119.588V25.1958H118.762ZM118.762 21.4253V20.752H119.588V21.4253H118.762Z" fill="white"/>
<path d="M114.811 25.1956V24.5164H117.021C117.183 24.5164 117.264 24.454 117.264 24.3291V24.0246C117.264 23.8997 117.183 23.8373 117.021 23.8373H115.767C115.129 23.8373 114.811 23.5855 114.811 23.082V22.5434C114.811 22.0398 115.129 21.7881 115.767 21.7881H117.817V22.4672H115.88C115.722 22.4672 115.642 22.5297 115.642 22.6546V22.9649C115.642 23.0937 115.722 23.1581 115.88 23.1581H117.134C117.771 23.1581 118.09 23.4079 118.09 23.9075V24.4403C118.09 24.9438 117.771 25.1956 117.134 25.1956H114.811Z" fill="white"/>
<path d="M110.505 25.1956V21.7881H113.108C113.745 21.7881 114.064 22.0398 114.064 22.5434V25.1956H113.238V22.6546C113.238 22.5297 113.157 22.4672 112.995 22.4672H111.331V25.1956H110.505Z" fill="white"/>
<path d="M106.34 24.4403V22.5434C106.34 22.0398 106.659 21.7881 107.296 21.7881H108.865C109.503 21.7881 109.821 22.0398 109.821 22.5434V23.8373H107.166V24.3291C107.166 24.454 107.245 24.5164 107.403 24.5164H109.685V25.1956H107.296C106.659 25.1956 106.34 24.9438 106.34 24.4403ZM107.166 23.1581H108.996V22.6546C108.996 22.5297 108.914 22.4672 108.752 22.4672H107.403C107.245 22.4672 107.166 22.5297 107.166 22.6546V23.1581Z" fill="white"/>
<path d="M102.058 25.1958V20.752H102.884V21.7883H104.66C105.298 21.7883 105.617 22.04 105.617 22.5435V25.1958H104.791V22.6548C104.791 22.5299 104.71 22.4674 104.547 22.4674H102.884V25.1958H102.058Z" fill="white"/>
<path d="M97.8926 24.4403V22.5434C97.8926 22.0398 98.2114 21.7881 98.8491 21.7881H100.418C101.055 21.7881 101.374 22.0398 101.374 22.5434V23.8373H98.7184V24.3291C98.7184 24.454 98.7976 24.5164 98.956 24.5164H101.237V25.1956H98.8491C98.2114 25.1956 97.8926 24.9438 97.8926 24.4403ZM98.7184 23.1581H100.548V22.6546C100.548 22.5297 100.467 22.4672 100.305 22.4672H98.956C98.7976 22.4672 98.7184 22.5297 98.7184 22.6546V23.1581Z" fill="white"/>
<path d="M95.1538 25.1956V22.5434C95.1538 22.0398 95.4727 21.7881 96.1103 21.7881H97.2689V22.4672H96.2173C96.0588 22.4672 95.9796 22.5297 95.9796 22.6546V25.1956H95.1538Z" fill="white"/>
<path d="M90.8486 26.6066V21.7881H93.5103C94.148 21.7881 94.4668 22.0398 94.4668 22.5434V24.4403C94.4668 24.9438 94.148 25.1956 93.5103 25.1956H91.6745V26.6066H90.8486ZM91.6745 24.5164H93.3974C93.5598 24.5164 93.641 24.454 93.641 24.3291V22.6546C93.641 22.5297 93.5598 22.4672 93.3974 22.4672H91.6745V24.5164Z" fill="white"/>
<path d="M84.9131 25.1956V21.7881H89.1907C89.8284 21.7881 90.1473 22.0398 90.1473 22.5434V25.1956H89.3214V22.6546C89.3214 22.5297 89.2402 22.4672 89.0778 22.4672H87.9431V25.1956H87.1173V22.6546C87.1173 22.5297 87.0361 22.4672 86.8737 22.4672H85.7389V25.1956H84.9131Z" fill="white"/>
<path d="M80.562 24.4403V22.5434C80.562 22.0398 80.8809 21.7881 81.5185 21.7881H83.2237C83.8613 21.7881 84.1802 22.0398 84.1802 22.5434V24.4403C84.1802 24.9438 83.8613 25.1956 83.2237 25.1956H81.5185C80.8809 25.1956 80.562 24.9438 80.562 24.4403ZM81.3878 24.3291C81.3878 24.454 81.467 24.5164 81.6255 24.5164H83.1108C83.2732 24.5164 83.3544 24.454 83.3544 24.3291V22.6546C83.3544 22.5297 83.2732 22.4672 83.1108 22.4672H81.6255C81.467 22.4672 81.3878 22.5297 81.3878 22.6546V24.3291Z" fill="white"/>
<path d="M75.584 24.3878V21.5599C75.584 21.0213 75.9266 20.752 76.6118 20.752H79.7547V21.4487H76.6831C76.5009 21.4487 76.4098 21.5209 76.4098 21.6653V24.2824C76.4098 24.4268 76.5009 24.499 76.6831 24.499H79.7547V25.1958H76.6118C75.9266 25.1958 75.584 24.9265 75.584 24.3878Z" fill="white"/>
</svg>
