<svg width="328" height="40" viewBox="0 0 328 40" fill="none" xmlns="http://www.w3.org/2000/svg">
<g opacity="0.7">
<path d="M88.2139 18.3432C87.2749 13.4975 83.5343 10.3612 80.3691 8.16131C65.5278 -2.1543 51.1256 0.89282 41.5999 4.08858C39.1011 4.92096 37.4655 5.53039 35.7088 7.00192C27.4551 2.52786 19.2318 3.70212 16.1878 4.38586C12.6138 2.17112 7.08613 -0.757084 3.90583 0.179348C2.8003 0.506356 1.93708 1.24956 1.4979 2.27517C-1.42494 9.05315 0.664966 15.8163 1.61905 18.254C-1.6521 28.9709 2.81545 35.5408 2.99718 35.8232C3.76954 36.9232 5.2991 37.2056 6.41978 36.4624C7.5556 35.7192 7.85848 34.203 7.11641 33.0882C6.98012 32.8801 3.63324 27.7223 6.61665 18.908C6.81353 18.3134 6.7681 17.6594 6.51065 17.0946C6.48036 17.0351 3.61809 10.9112 5.78372 4.9061C7.40416 5.18852 11.1751 6.98706 14.3554 9.06802C14.9914 9.48421 15.7941 9.57339 16.521 9.35043C17.2328 9.11261 34.1035 3.91021 44.2198 23.0996C44.9467 24.4671 46.234 24.9279 47.0215 25.1806C47.915 28.5696 46.4915 30.8289 45.083 32.1518C42.1602 34.9016 37.1323 35.8975 33.3765 34.4855C31.4229 33.7423 29.015 32.0032 28.7273 27.9007C28.4395 24.0361 29.9691 21.747 32.4679 18.3432C33.2705 17.2432 33.0131 15.7271 31.9075 14.9393C30.7869 14.1515 29.2422 14.4042 28.4395 15.4893C25.9407 18.908 23.351 22.4308 23.7751 28.2574C24.1537 33.3707 27.0008 37.3096 31.6047 39.0487C33.316 39.7027 35.1938 40 37.0717 40C41.2667 40 45.5828 38.469 48.5359 35.6746C52.0797 32.345 53.1852 27.6777 51.5345 22.9064C50.959 21.2268 49.384 20.766 48.6268 20.543C48.5662 20.5282 48.5056 20.5133 48.4451 20.4984C45.9463 15.846 43.0537 12.4421 40.04 9.97472C40.8275 9.54367 41.7513 9.21666 43.19 8.74101C51.7011 5.90199 64.498 3.15215 77.4766 12.1746C78.9456 13.2002 80.0965 14.1515 80.99 15.0879C79.5059 15.846 78.4155 17.704 78.3701 19.9187C78.3095 22.8321 80.0662 25.2252 82.2773 25.2698C82.5953 25.2698 82.8982 25.2252 83.2011 25.136C82.9891 26.89 82.6408 28.4655 82.1864 29.0155C79.3848 32.4491 70.1619 33.4152 64.9826 33.2369C63.6196 33.1626 62.4535 34.2328 62.4081 35.5854C62.3626 36.938 63.4227 38.0677 64.8008 38.1123C65.028 38.1123 65.5126 38.142 66.1941 38.142C70.2982 38.142 81.5504 37.6218 86.0785 32.0775C88.5773 29.0304 88.6379 20.6173 88.2139 18.3729V18.3432Z" fill="#E7DFD2"/>
<path d="M116.451 5.95801C117.016 5.95801 117.532 6.06128 118.011 6.27722C118.489 6.48377 118.9 6.77482 119.245 7.14098C119.589 7.50714 119.857 7.93902 120.048 8.41784C120.239 8.90606 120.335 9.42243 120.335 9.97637C120.335 10.5303 120.239 11.0467 120.048 11.5443C119.857 12.0419 119.589 12.4644 119.245 12.8211C118.9 13.1779 118.489 13.469 118.011 13.6755C117.532 13.8821 117.006 13.9947 116.451 13.9947H106.465C105.9 13.9947 105.384 13.8914 104.906 13.6755C104.427 13.469 104.016 13.1779 103.672 12.8211C103.327 12.4644 103.059 12.0325 102.868 11.5443C102.677 11.0561 102.581 10.5303 102.581 9.97637C102.581 9.42243 102.677 8.90606 102.868 8.41784C103.059 7.92963 103.327 7.50714 103.672 7.14098C104.016 6.77482 104.427 6.48377 104.906 6.27722C105.384 6.07067 105.91 5.95801 106.465 5.95801H116.451ZM120.345 18.3323H117.016V23.0172H114.213V18.3323H108.76V23.0172H105.958V18.3323H102.591V15.8912H120.354V18.3323H120.345ZM116.107 11.5818C116.576 11.5818 116.93 11.4316 117.178 11.1218C117.427 10.812 117.551 10.427 117.551 9.96698C117.551 9.50693 117.427 9.12199 117.178 8.80278C116.93 8.48356 116.576 8.33335 116.107 8.33335H106.8C106.331 8.33335 105.977 8.49295 105.728 8.80278C105.479 9.12199 105.355 9.50693 105.355 9.96698C105.355 10.427 105.479 10.812 105.728 11.1218C105.977 11.4316 106.331 11.5818 106.8 11.5818H116.107Z" fill="#E7DFD2"/>
<path d="M123.426 8.33394V5.94922H133.231V12.8123C133.231 13.9765 133.001 15.0938 132.551 16.1547C132.102 17.2156 131.442 18.1545 130.59 18.9619C129.739 19.7694 128.706 20.4078 127.491 20.8772C126.286 21.3467 124.928 21.5814 123.435 21.5626V19.1591C124.401 19.1028 125.31 18.9338 126.162 18.6521C127.013 18.3704 127.759 17.9573 128.39 17.4316C129.022 16.9058 129.519 16.2674 129.883 15.5163C130.246 14.7652 130.437 13.8827 130.437 12.8875V8.32456H123.445L123.426 8.33394ZM138.205 5.95861H140.988V23.0178H138.205V5.95861Z" fill="#E7DFD2"/>
<path d="M161.639 9.85469V12.2394H154.14V13.1877H161.639V15.5724H143.876V13.1877H151.337V12.2394H145.904C145.579 12.2394 145.301 12.1831 145.053 12.061C144.804 11.939 144.593 11.7794 144.431 11.5822C144.268 11.3757 144.144 11.1503 144.058 10.8968C143.972 10.6433 143.933 10.3711 143.933 10.0988V5.96777H161.639V8.3525H146.727V9.41342C146.727 9.71386 146.87 9.86408 147.167 9.86408H161.639V9.85469ZM158.234 16.5676C158.798 16.5676 159.286 16.6521 159.707 16.8211C160.128 16.9901 160.482 17.2248 160.769 17.5065C161.056 17.7881 161.276 18.1355 161.419 18.5298C161.563 18.9242 161.639 19.3373 161.639 19.7691C161.639 20.201 161.563 20.6329 161.419 21.0272C161.276 21.4215 161.056 21.7689 160.769 22.06C160.482 22.351 160.128 22.5857 159.707 22.7547C159.286 22.9237 158.798 23.0082 158.234 23.0082H147.262C146.717 23.0082 146.229 22.9237 145.818 22.7547C145.406 22.5857 145.053 22.351 144.775 22.06C144.498 21.7689 144.278 21.4215 144.134 21.0272C143.991 20.6329 143.914 20.2104 143.914 19.7691C143.914 19.3279 143.991 18.9242 144.134 18.5298C144.278 18.1355 144.498 17.7975 144.775 17.5065C145.053 17.2154 145.406 16.9901 145.818 16.8211C146.229 16.6521 146.717 16.5676 147.262 16.5676H158.234ZM157.737 20.6611C158.11 20.6611 158.387 20.586 158.559 20.4263C158.732 20.2667 158.818 20.0508 158.818 19.7785C158.818 19.5063 158.732 19.3091 158.559 19.1683C158.387 19.0274 158.11 18.9523 157.737 18.9523H147.788C147.396 18.9523 147.119 19.0274 146.956 19.1683C146.794 19.3091 146.707 19.5156 146.707 19.7785C146.707 20.0508 146.794 20.2667 146.956 20.4263C147.119 20.586 147.396 20.6611 147.788 20.6611H157.737Z" fill="#E7DFD2"/>
<path d="M179.509 18.2012V17.929C179.509 17.6755 179.461 17.5159 179.375 17.4407C179.289 17.3656 179.155 17.3187 178.963 17.3187H164.529V15.2344H171.99V14.2486H164.529V12.1455H182.292V14.2486H174.793V15.2344H180.245C180.963 15.2344 181.489 15.4222 181.804 15.7977C182.12 16.1733 182.283 16.7178 182.283 17.422V20.1165H167.303V20.3325C167.303 20.586 167.351 20.7456 167.437 20.8207C167.523 20.8958 167.657 20.9427 167.848 20.9427H182.283V23.027H166.566C165.849 23.027 165.323 22.8392 165.007 22.4637C164.691 22.0881 164.529 21.553 164.529 20.8394V18.2012H179.509ZM182.292 11.2536H166.557C166.232 11.2536 165.954 11.1973 165.705 11.0752C165.457 10.9532 165.246 10.7936 165.084 10.5964C164.921 10.3898 164.797 10.1645 164.711 9.91102C164.624 9.65753 164.586 9.38525 164.586 9.11298V5.96777H182.292V11.263V11.2536ZM179.509 9.15993V8.04267H167.379V8.70927C167.379 9.00971 167.523 9.15993 167.819 9.15993H179.509Z" fill="#E7DFD2"/>
<path d="M185.182 21.9188V19.4777H192.643V16.4827H187.554C187.229 16.4827 186.951 16.4264 186.703 16.3043C186.454 16.1823 186.243 16.0227 186.081 15.8255C185.918 15.619 185.794 15.3936 185.708 15.1401C185.622 14.8866 185.583 14.6144 185.583 14.3421V5.95801H188.367V8.77461H199.76V5.95801H202.543V16.4827H195.446V19.4777H202.945V21.9188H185.182ZM199.76 14.0792V11.1687H188.367V13.6286C188.367 13.929 188.511 14.0792 188.807 14.0792H199.75H199.76Z" fill="#E7DFD2"/>
<path d="M205.834 9.2067V6.84075H213.19V5.28223H215.878V6.84075H223.598V9.2067H205.834ZM219.504 10.0892C220.116 10.0892 220.661 10.1831 221.13 10.3709C221.599 10.5587 221.981 10.8122 222.278 11.1314C222.574 11.4506 222.804 11.8074 222.957 12.2205C223.11 12.6336 223.187 13.0654 223.187 13.5067C223.187 13.948 223.11 14.3799 222.957 14.793C222.804 15.2061 222.574 15.5722 222.278 15.8914C221.981 16.2107 221.589 16.4735 221.13 16.6613C220.661 16.8491 220.116 16.943 219.504 16.943H216.098V19.4591H223.598V21.9002H205.834V19.4591H213.296V16.943H209.948C209.316 16.943 208.771 16.8491 208.312 16.6613C207.853 16.4735 207.47 16.22 207.155 15.8914C206.839 15.5628 206.619 15.2061 206.466 14.793C206.313 14.3799 206.236 13.948 206.236 13.5067C206.236 13.0654 206.313 12.6336 206.466 12.2205C206.619 11.8074 206.848 11.4412 207.155 11.1314C207.461 10.8216 207.843 10.5681 208.312 10.3709C208.781 10.1737 209.316 10.0892 209.948 10.0892H219.513H219.504ZM218.987 14.577C219.533 14.577 219.906 14.4737 220.106 14.2484C220.307 14.0231 220.403 13.7884 220.403 13.5067C220.403 13.2251 220.307 13.0091 220.106 12.7932C219.906 12.5772 219.533 12.4646 218.987 12.4646H210.445C209.909 12.4646 209.546 12.5772 209.355 12.7932C209.163 13.0091 209.068 13.2532 209.068 13.5067C209.068 13.779 209.163 14.0325 209.355 14.2484C209.546 14.4644 209.909 14.577 210.445 14.577H218.987Z" fill="#E7DFD2"/>
<path d="M230.896 11.8829C230.801 12.1833 230.619 12.5307 230.342 12.9062C230.064 13.2912 229.72 13.6479 229.289 13.9859C228.888 14.3239 228.419 14.6244 227.864 14.8779C227.309 15.1314 226.726 15.291 226.075 15.3567V12.8968C227.022 12.6621 227.835 12.127 228.524 11.3008C229.203 10.4652 229.548 9.29159 229.548 7.78001V5.94922H232.236V7.78001C232.236 9.27281 232.57 10.4464 233.24 11.3008C233.919 12.127 234.742 12.6621 235.708 12.8968V15.3567C235.067 15.291 234.474 15.1314 233.919 14.8779C233.364 14.6244 232.896 14.3239 232.494 13.9859C232.054 13.6479 231.7 13.2818 231.422 12.9062C231.145 12.5307 230.973 12.1833 230.887 11.8829H230.896ZM241.763 20.5768V5.95861H244.451V23.0178H228.868C228.543 23.0178 228.266 22.9615 228.017 22.8395C227.768 22.7174 227.558 22.5578 227.395 22.3606C227.233 22.1541 227.099 21.9288 227.013 21.6753C226.927 21.4218 226.879 21.1589 226.879 20.8772V16.887H229.681V20.1355C229.681 20.2764 229.71 20.389 229.768 20.4735C229.825 20.558 229.94 20.5956 230.102 20.5956H241.753L241.763 20.5768ZM234.703 8.49355H237.65V5.95861H240.338V17.3095H237.65V10.9346H234.703V8.49355Z" fill="#E7DFD2"/>
<path d="M257.986 18.9613V21.4024H249.3C248.975 21.4024 248.697 21.3461 248.449 21.224C248.2 21.102 247.99 20.9423 247.827 20.7452C247.664 20.5386 247.54 20.3133 247.454 20.0598C247.368 19.8063 247.33 19.5434 247.33 19.2618V5.95801H257.775V8.39907H250.113V12.3893H257.154V14.7552H250.113V18.5107C250.113 18.8111 250.257 18.9613 250.553 18.9613H257.976H257.986ZM258.282 11.3847H262.109V5.95801H264.892V23.0172H262.109V13.7694H258.282V11.3847Z" fill="#E7DFD2"/>
<path d="M324.209 34.6307V30.9853C324.209 30.2933 324.648 29.9473 325.524 29.9473H327.116V30.8807H325.671C325.453 30.8807 325.345 30.9666 325.345 31.1382V34.6307H324.209Z" fill="#E7DFD2"/>
<path d="M318.485 33.5926V30.9853C318.485 30.2933 318.923 29.9473 319.8 29.9473H321.955C322.832 29.9473 323.27 30.2933 323.27 30.9853V32.7638H319.62V33.4397C319.62 33.6114 319.729 33.6972 319.947 33.6972H323.082V34.6307H319.8C318.923 34.6307 318.485 34.2847 318.485 33.5926ZM319.62 31.8303H322.135V31.1382C322.135 30.9666 322.023 30.8807 321.8 30.8807H319.947C319.729 30.8807 319.62 30.9666 319.62 31.1382V31.8303Z" fill="#E7DFD2"/>
<path d="M314.68 33.5922V28.5225H315.815V29.9468H317.587V30.8803H315.815V33.4393C315.815 33.6109 315.924 33.6968 316.141 33.6968H317.587V34.6302H315.994C315.118 34.6302 314.68 34.2842 314.68 33.5922Z" fill="#E7DFD2"/>
<path d="M308.763 34.6307V29.9473H312.34C313.216 29.9473 313.654 30.2933 313.654 30.9853V34.6307H312.519V31.1382C312.519 30.9666 312.408 30.8807 312.185 30.8807H309.898V34.6307H308.763Z" fill="#E7DFD2"/>
<path d="M303.037 33.5926V30.9853C303.037 30.2933 303.475 29.9473 304.352 29.9473H306.508C307.384 29.9473 307.822 30.2933 307.822 30.9853V32.7638H304.172V33.4397C304.172 33.6114 304.281 33.6972 304.499 33.6972H307.634V34.6307H304.352C303.475 34.6307 303.037 34.2847 303.037 33.5926ZM304.172 31.8303H306.687V31.1382C306.687 30.9666 306.576 30.8807 306.352 30.8807H304.499C304.281 30.8807 304.172 30.9666 304.172 31.1382V31.8303Z" fill="#E7DFD2"/>
<path d="M296.188 33.5197V29.633C296.188 28.8926 296.659 28.5225 297.601 28.5225H301.92V29.4801H297.699C297.448 29.4801 297.323 29.5793 297.323 29.7778V33.3749C297.323 33.5734 297.448 33.6726 297.699 33.6726H301.92V34.6302H297.601C296.659 34.6302 296.188 34.2601 296.188 33.5197Z" fill="#E7DFD2"/>
<path d="M288.189 34.6307V29.9473H291.766C292.643 29.9473 293.081 30.2933 293.081 30.9853V34.6307H291.946V31.1382C291.946 30.9666 291.834 30.8807 291.611 30.8807H289.324V34.6307H288.189Z" fill="#E7DFD2"/>
<path d="M282.208 33.5926V30.9853C282.208 30.2933 282.647 29.9473 283.523 29.9473H285.867C286.743 29.9473 287.181 30.2933 287.181 30.9853V33.5926C287.181 34.2847 286.743 34.6307 285.867 34.6307H283.523C282.647 34.6307 282.208 34.2847 282.208 33.5926ZM283.344 33.4397C283.344 33.6114 283.452 33.6972 283.67 33.6972H285.712C285.935 33.6972 286.046 33.6114 286.046 33.4397V31.1382C286.046 30.9666 285.935 30.8807 285.712 30.8807H283.67C283.452 30.8807 283.344 30.9666 283.344 31.1382V33.4397Z" fill="#E7DFD2"/>
<path d="M279.873 34.6302V29.9468H281.008V34.6302H279.873ZM279.873 29.4479V28.5225H281.008V29.4479H279.873Z" fill="#E7DFD2"/>
<path d="M276.044 33.5922V28.5225H277.179V29.9468H278.951V30.8803H277.179V33.4393C277.179 33.6109 277.288 33.6968 277.506 33.6968H278.951V34.6302H277.359C276.482 34.6302 276.044 34.2842 276.044 33.5922Z" fill="#E7DFD2"/>
<path d="M270.599 33.5926V30.9853C270.599 30.2933 271.037 29.9473 271.913 29.9473H275.106V30.8807H272.06C271.843 30.8807 271.734 30.9666 271.734 31.1382V33.4397C271.734 33.6114 271.843 33.6972 272.06 33.6972H275.106V34.6307H271.913C271.037 34.6307 270.599 34.2847 270.599 33.5926Z" fill="#E7DFD2"/>
<path d="M264.873 33.5926V30.9853C264.873 30.2933 265.311 29.9473 266.187 29.9473H268.343C269.219 29.9473 269.658 30.2933 269.658 30.9853V32.7638H266.008V33.4397C266.008 33.6114 266.116 33.6972 266.334 33.6972H269.47V34.6307H266.187C265.311 34.6307 264.873 34.2847 264.873 33.5926ZM266.008 31.8303H268.523V31.1382C268.523 30.9666 268.411 30.8807 268.188 30.8807H266.334C266.116 30.8807 266.008 30.9666 266.008 31.1382V31.8303Z" fill="#E7DFD2"/>
<path d="M261.068 33.5922V28.5225H262.203V29.9468H263.975V30.8803H262.203V33.4393C262.203 33.6109 262.312 33.6968 262.53 33.6968H263.975V34.6302H262.383C261.507 34.6302 261.068 34.2842 261.068 33.5922Z" fill="#E7DFD2"/>
<path d="M255.087 33.5926V30.9853C255.087 30.2933 255.526 29.9473 256.402 29.9473H258.746C259.622 29.9473 260.06 30.2933 260.06 30.9853V33.5926C260.06 34.2847 259.622 34.6307 258.746 34.6307H256.402C255.526 34.6307 255.087 34.2847 255.087 33.5926ZM256.222 33.4397C256.222 33.6114 256.331 33.6972 256.549 33.6972H258.591C258.814 33.6972 258.925 33.6114 258.925 33.4397V31.1382C258.925 30.9666 258.814 30.8807 258.591 30.8807H256.549C256.331 30.8807 256.222 30.9666 256.222 31.1382V33.4397Z" fill="#E7DFD2"/>
<path d="M251.332 34.6307V30.9853C251.332 30.2933 251.77 29.9473 252.647 29.9473H254.239V30.8807H252.794C252.576 30.8807 252.467 30.9666 252.467 31.1382V34.6307H251.332Z" fill="#E7DFD2"/>
<path d="M244.546 34.6302V28.5225H248.972C249.914 28.5225 250.384 28.8926 250.384 29.633V31.2102C250.384 31.9505 249.914 32.3207 248.972 32.3207H245.681V34.6302H244.546ZM245.681 31.355H248.874C249.124 31.355 249.249 31.2558 249.249 31.0573V29.7859C249.249 29.5874 249.124 29.4881 248.874 29.4881H245.681V31.355Z" fill="#E7DFD2"/>
<path d="M241.782 34.6304H240.451L239.961 34.1395C239.498 34.5311 238.921 34.727 238.23 34.727C237.669 34.727 237.206 34.5875 236.842 34.3085C236.439 33.992 236.237 33.5574 236.237 33.0049C236.237 32.2377 236.613 31.653 237.364 31.2506C237.07 30.8643 236.923 30.462 236.923 30.0435C236.923 29.5607 237.087 29.1771 237.413 28.8928C237.729 28.5977 238.129 28.4502 238.614 28.4502C239.038 28.4502 239.395 28.5736 239.683 28.8204C239.977 29.0618 240.124 29.3998 240.124 29.8343C240.124 30.4888 239.702 31.0226 238.859 31.4357L239.495 32.1358C239.604 32.2645 239.705 32.3852 239.798 32.4979C239.896 32.6052 239.988 32.7018 240.075 32.7876C240.32 32.4174 240.5 31.8836 240.614 31.1862H241.61C241.431 32.227 241.126 32.9915 240.696 33.4796L241.782 34.6304ZM238.393 33.8659C238.807 33.8659 239.139 33.7425 239.389 33.4957L237.903 31.8622C237.495 32.1358 237.291 32.4603 237.291 32.8359C237.291 33.1417 237.394 33.3911 237.601 33.5843C237.808 33.772 238.072 33.8659 238.393 33.8659ZM238.573 29.2388C238.371 29.2388 238.216 29.3086 238.107 29.448C237.998 29.5822 237.944 29.7485 237.944 29.947C237.944 30.2528 238.077 30.5532 238.344 30.8482C238.475 30.7731 238.586 30.7034 238.679 30.639C238.771 30.5693 238.845 30.5049 238.899 30.4459C239.079 30.2796 239.169 30.0918 239.169 29.8826C239.169 29.7055 239.117 29.5553 239.014 29.4319C238.916 29.3032 238.769 29.2388 238.573 29.2388Z" fill="#E7DFD2"/>
<path d="M228.724 33.5926V30.9853C228.724 30.2933 229.162 29.9473 230.038 29.9473H232.194C233.071 29.9473 233.509 30.2933 233.509 30.9853V32.7638H229.859V33.4397C229.859 33.6114 229.968 33.6972 230.185 33.6972H233.321V34.6307H230.038C229.162 34.6307 228.724 34.2847 228.724 33.5926ZM229.859 31.8303H232.374V31.1382C232.374 30.9666 232.262 30.8807 232.039 30.8807H230.185C229.968 30.8807 229.859 30.9666 229.859 31.1382V31.8303Z" fill="#E7DFD2"/>
<path d="M224.961 34.6307V30.9853C224.961 30.2933 225.4 29.9473 226.276 29.9473H227.868V30.8807H226.423C226.205 30.8807 226.096 30.9666 226.096 31.1382V34.6307H224.961Z" fill="#E7DFD2"/>
<path d="M219.162 33.5926V32.8603C219.162 32.1736 219.6 31.8303 220.476 31.8303H222.812V31.1382C222.812 30.9666 222.703 30.8807 222.485 30.8807H219.537V29.9473H222.64C223.517 29.9473 223.955 30.2933 223.955 30.9853V34.6307H220.476C219.6 34.6307 219.162 34.2847 219.162 33.5926ZM220.305 33.4397C220.305 33.6114 220.414 33.6972 220.631 33.6972H222.812V32.7638H220.631C220.414 32.7638 220.305 32.8496 220.305 33.0213V33.4397Z" fill="#E7DFD2"/>
<path d="M212.425 33.5197V29.633C212.425 28.8926 212.896 28.5225 213.837 28.5225H218.157V29.4801H213.935C213.685 29.4801 213.56 29.5793 213.56 29.7778V33.3749C213.56 33.5734 213.685 33.6726 213.935 33.6726H218.157V34.6302H213.837C212.896 34.6302 212.425 34.2601 212.425 33.5197Z" fill="#E7DFD2"/>
<path d="M208.207 34.6302V28.5225H209.342V34.6302H208.207Z" fill="#E7DFD2"/>
<path d="M202.407 33.5926V32.8603C202.407 32.1736 202.845 31.8303 203.721 31.8303H206.057V31.1382C206.057 30.9666 205.948 30.8807 205.73 30.8807H202.782V29.9473H205.885C206.762 29.9473 207.2 30.2933 207.2 30.9853V34.6307H203.721C202.845 34.6307 202.407 34.2847 202.407 33.5926ZM203.55 33.4397C203.55 33.6114 203.659 33.6972 203.877 33.6972H206.057V32.7638H203.877C203.659 32.7638 203.55 32.8496 203.55 33.0213V33.4397Z" fill="#E7DFD2"/>
<path d="M194.354 34.6307V29.9473H200.234C201.11 29.9473 201.549 30.2933 201.549 30.9853V34.6307H200.413V31.1382C200.413 30.9666 200.302 30.8807 200.079 30.8807H198.519V34.6307H197.384V31.1382C197.384 30.9666 197.272 30.8807 197.049 30.8807H195.49V34.6307H194.354Z" fill="#E7DFD2"/>
<path d="M192.019 34.6302V29.9468H193.154V34.6302H192.019ZM192.019 29.4479V28.5225H193.154V29.4479H192.019Z" fill="#E7DFD2"/>
<path d="M186.069 34.6307V29.9473H189.645C190.522 29.9473 190.96 30.2933 190.96 30.9853V34.6307H189.825V31.1382C189.825 30.9666 189.714 30.8807 189.49 30.8807H187.204V34.6307H186.069Z" fill="#E7DFD2"/>
<path d="M178.528 34.6302L181.443 28.5225H182.619L185.526 34.6302H184.359L183.665 33.1898H180.39L179.704 34.6302H178.528ZM180.831 32.2402H183.232L182.031 29.7295L180.831 32.2402Z" fill="#E7DFD2"/>
<path d="M171.294 33.5926V30.9853C171.294 30.2933 171.732 29.9473 172.609 29.9473H174.764C175.641 29.9473 176.079 30.2933 176.079 30.9853V32.7638H172.429V33.4397C172.429 33.6114 172.538 33.6972 172.756 33.6972H175.891V34.6307H172.609C171.732 34.6307 171.294 34.2847 171.294 33.5926ZM172.429 31.8303H174.944V31.1382C174.944 30.9666 174.832 30.8807 174.609 30.8807H172.756C172.538 30.8807 172.429 30.9666 172.429 31.1382V31.8303Z" fill="#E7DFD2"/>
<path d="M165.028 29.9473H166.261L167.895 33.4719L169.528 29.9473H170.761L168.548 34.6307H167.233L165.028 29.9473Z" fill="#E7DFD2"/>
<path d="M163.231 34.6302V29.9468H164.366V34.6302H163.231ZM163.231 29.4479V28.5225H164.366V29.4479H163.231Z" fill="#E7DFD2"/>
<path d="M157.8 34.6307V33.6972H160.838C161.061 33.6972 161.173 33.6114 161.173 33.4397V33.0213C161.173 32.8496 161.061 32.7638 160.838 32.7638H159.115C158.239 32.7638 157.8 32.4177 157.8 31.7257V30.9853C157.8 30.2933 158.239 29.9473 159.115 29.9473H161.932V30.8807H159.27C159.052 30.8807 158.944 30.9666 158.944 31.1382V31.5647C158.944 31.7418 159.052 31.8303 159.27 31.8303H160.993C161.87 31.8303 162.308 32.1736 162.308 32.8603V33.5926C162.308 34.2847 161.87 34.6307 160.993 34.6307H157.8Z" fill="#E7DFD2"/>
<path d="M151.884 34.6307V29.9473H155.46C156.337 29.9473 156.775 30.2933 156.775 30.9853V34.6307H155.64V31.1382C155.64 30.9666 155.528 30.8807 155.305 30.8807H153.019V34.6307H151.884Z" fill="#E7DFD2"/>
<path d="M146.158 33.5926V30.9853C146.158 30.2933 146.596 29.9473 147.472 29.9473H149.628C150.505 29.9473 150.943 30.2933 150.943 30.9853V32.7638H147.293V33.4397C147.293 33.6114 147.402 33.6972 147.619 33.6972H150.755V34.6307H147.472C146.596 34.6307 146.158 34.2847 146.158 33.5926ZM147.293 31.8303H149.808V31.1382C149.808 30.9666 149.696 30.8807 149.473 30.8807H147.619C147.402 30.8807 147.293 30.9666 147.293 31.1382V31.8303Z" fill="#E7DFD2"/>
<path d="M140.272 34.6302V28.5225H141.407V29.9468H143.849C144.725 29.9468 145.163 30.2928 145.163 30.9849V34.6302H144.028V31.1378C144.028 30.9661 143.917 30.8803 143.693 30.8803H141.407V34.6302H140.272Z" fill="#E7DFD2"/>
<path d="M134.547 33.5926V30.9853C134.547 30.2933 134.986 29.9473 135.862 29.9473H138.018C138.894 29.9473 139.333 30.2933 139.333 30.9853V32.7638H135.682V33.4397C135.682 33.6114 135.791 33.6972 136.009 33.6972H139.145V34.6307H135.862C134.986 34.6307 134.547 34.2847 134.547 33.5926ZM135.682 31.8303H138.197V31.1382C138.197 30.9666 138.086 30.8807 137.863 30.8807H136.009C135.791 30.8807 135.682 30.9666 135.682 31.1382V31.8303Z" fill="#E7DFD2"/>
<path d="M130.783 34.6307V30.9853C130.783 30.2933 131.221 29.9473 132.097 29.9473H133.69V30.8807H132.244C132.027 30.8807 131.918 30.9666 131.918 31.1382V34.6307H130.783Z" fill="#E7DFD2"/>
<path d="M124.866 36.5701V29.9473H128.524C129.401 29.9473 129.839 30.2933 129.839 30.9853V33.5926C129.839 34.2847 129.401 34.6307 128.524 34.6307H126.001V36.5701H124.866ZM126.001 33.6972H128.369C128.593 33.6972 128.704 33.6114 128.704 33.4397V31.1382C128.704 30.9666 128.593 30.8807 128.369 30.8807H126.001V33.6972Z" fill="#E7DFD2"/>
<path d="M116.708 34.6307V29.9473H122.587C123.464 29.9473 123.902 30.2933 123.902 30.9853V34.6307H122.767V31.1382C122.767 30.9666 122.655 30.8807 122.432 30.8807H120.873V34.6307H119.738V31.1382C119.738 30.9666 119.626 30.8807 119.403 30.8807H117.843V34.6307H116.708Z" fill="#E7DFD2"/>
<path d="M110.727 33.5926V30.9853C110.727 30.2933 111.165 29.9473 112.042 29.9473H114.385C115.262 29.9473 115.7 30.2933 115.7 30.9853V33.5926C115.7 34.2847 115.262 34.6307 114.385 34.6307H112.042C111.165 34.6307 110.727 34.2847 110.727 33.5926ZM111.862 33.4397C111.862 33.6114 111.971 33.6972 112.189 33.6972H114.23C114.453 33.6972 114.565 33.6114 114.565 33.4397V31.1382C114.565 30.9666 114.453 30.8807 114.23 30.8807H112.189C111.971 30.8807 111.862 30.9666 111.862 31.1382V33.4397Z" fill="#E7DFD2"/>
<path d="M103.886 33.5197V29.633C103.886 28.8926 104.357 28.5225 105.298 28.5225H109.618V29.4801H105.396C105.146 29.4801 105.021 29.5793 105.021 29.7778V33.3749C105.021 33.5734 105.146 33.6726 105.396 33.6726H109.618V34.6302H105.298C104.357 34.6302 103.886 34.2601 103.886 33.5197Z" fill="#E7DFD2"/>
</g>
</svg>
