<svg width="46" height="46" viewBox="0 0 46 46" fill="none" xmlns="http://www.w3.org/2000/svg">
<path fill-rule="evenodd" clip-rule="evenodd" d="M15.9201 15.9171C13.4203 16.1594 12.2498 17.1664 11.826 17.891C11.6736 18.1517 11.5612 18.4348 11.4534 18.7156C11.0628 19.7332 10.8704 21.6358 10.7581 23.5921C12.6658 27.1899 15.3358 34.2099 14.0225 35.412C13.7004 35.7068 13.2771 35.9493 12.7958 36.1481C14.3163 36.574 16.7245 36.8191 18.3869 36.8836C20.2136 36.9544 21.4213 35.9344 22.14 34.7058C21.5006 34.1374 20.9018 33.4508 20.4742 32.6537C19.4874 30.8145 20.4109 27.3814 20.6639 26.9523C21.2488 25.5349 22.2845 24.5045 23.3078 23.8009C23.3119 23.5671 23.3161 23.3301 23.3205 23.0899C23.4095 18.2596 21.9125 16.9892 21.5699 16.6984C21.5472 16.6791 21.5296 16.6642 21.5179 16.6528C21.3281 16.4689 19.7152 15.5493 15.9201 15.9171Z" fill="#A4B648"/>
<path fill-rule="evenodd" clip-rule="evenodd" d="M32.3586 24.4602C33.3729 20.8505 34.6828 17.3134 36.2237 15.2734C39.8557 10.4653 42.9087 20.7282 43.2977 22.0358C43.3253 22.1287 43.3395 22.1764 43.3395 22.1703C43.3395 22.0783 45.8063 31.1822 45.996 34.2168C46.1479 36.6445 41.8847 37.0061 39.7342 36.8835C37.6152 36.7916 33.1117 36.4973 32.0491 36.0559C31.8409 35.9694 31.6504 35.8852 31.4778 35.8015C31.9034 35.5892 32.3471 35.3389 32.8082 35.0446C36.6981 32.5617 33.9467 26.6764 33.4723 25.9408C33.4626 25.9257 33.4522 25.9094 33.4411 25.8919C33.4332 25.8795 33.4249 25.8664 33.4162 25.8528C33.2355 25.5679 32.8935 25.029 32.3586 24.4602Z" fill="#6A8037"/>
<path fill-rule="evenodd" clip-rule="evenodd" d="M0.0756008 33.6647C1.309 29.6799 4.19328 21.5818 5.86311 21.0668C7.66577 20.5108 8.49331 20.9171 9.37356 21.5266C9.68044 21.7391 10.1848 22.5111 10.7581 23.5921C10.6951 24.6878 10.6574 25.8005 10.624 26.7837C10.5896 27.7967 10.5599 28.6724 10.5121 29.251C10.3224 31.55 10.7967 34.6766 11.4609 35.5042C11.6595 35.7517 12.1468 35.9664 12.7958 36.1481C10.7251 37.0034 7.5817 37.0499 6.81187 36.9753C6.686 36.9631 6.45991 36.9622 6.16441 36.961C4.23273 36.9536 -0.665001 36.9347 0.0756008 33.6647Z" fill="#446A37"/>
<path fill-rule="evenodd" clip-rule="evenodd" d="M22.14 34.7058C23.3445 35.7765 24.6931 36.4276 25.3129 36.6079C26.1492 36.851 28.3125 37.38 31.4778 35.8015C30.549 35.351 30.1357 34.9147 30.2465 34.2168C30.5977 31.8956 31.3245 28.1402 32.3586 24.4602C31.1936 23.2213 29.113 21.8402 25.7873 22.6303C25.2337 22.7618 24.2763 23.135 23.3078 23.8009C23.3028 24.0867 23.298 24.3677 23.2933 24.6437C23.2195 28.9806 23.1666 32.0895 22.6564 33.5731C22.5255 33.9536 22.3545 34.339 22.14 34.7058Z" fill="#6DA13C"/>
<path d="M30.2465 34.2168C30.5977 31.8956 31.3245 28.1402 32.3586 24.4602C32.8935 25.029 33.2355 25.5679 33.4162 25.8528C33.437 25.8856 33.4557 25.915 33.4723 25.9408C33.9467 26.6764 36.6981 32.5617 32.8082 35.0446C32.3471 35.3389 31.9034 35.5892 31.4778 35.8015C30.549 35.351 30.1357 34.9147 30.2465 34.2168Z" fill="#2D510D"/>
<path fill-rule="evenodd" clip-rule="evenodd" d="M22.6564 33.5731C22.5255 33.9536 22.3545 34.339 22.14 34.7058C21.5006 34.1374 20.9018 33.4508 20.4742 32.6537C19.4874 30.8145 20.4109 27.3814 20.6639 26.9523C21.2488 25.5349 22.2845 24.5045 23.3078 23.8009C23.3028 24.0867 23.298 24.3677 23.2933 24.6437C23.2195 28.9806 23.1666 32.0895 22.6564 33.5731Z" fill="#467311"/>
<path d="M12.7958 36.1481C12.1468 35.9664 11.6595 35.7517 11.4609 35.5042C10.7967 34.6766 10.3224 31.55 10.5121 29.251C10.5599 28.6724 10.5896 27.7967 10.624 26.7837C10.6574 25.8005 10.6951 24.6878 10.7581 23.5921C12.6658 27.1899 15.3358 34.2099 14.0225 35.412C13.7004 35.7068 13.2771 35.9493 12.7958 36.1481Z" fill="#2C4C10"/>
</svg>
