<svg width="112" height="27" viewBox="0 0 112 27" fill="none" xmlns="http://www.w3.org/2000/svg">
<path d="M101.325 14.0388C101.207 14.0603 101.126 14.0495 101.083 14.0065C101.04 13.9634 101.007 13.9096 100.986 13.845C100.943 13.7266 100.91 13.6243 100.889 13.5382C100.867 13.4413 100.835 13.3013 100.792 13.1183C100.77 13.0214 100.814 12.9783 100.921 12.9891C101.223 13.0322 101.578 13.0645 101.987 13.086C102.396 13.0968 102.87 13.1022 103.408 13.1022C103.591 13.1022 103.796 13.1022 104.022 13.1022C104.259 13.1022 104.506 13.0968 104.765 13.086C104.754 12.9999 104.748 12.9138 104.748 12.8276C104.748 12.7415 104.748 12.6608 104.748 12.5854L104.732 11.0513C104.528 11.062 104.329 11.0674 104.135 11.0674C103.952 11.0674 103.785 11.0728 103.634 11.0836C102.547 11.1159 101.567 11.1535 100.695 11.1966C99.8231 11.2397 99.1502 11.2881 98.6765 11.3419C98.5581 11.3527 98.4774 11.3419 98.4343 11.3096C98.3913 11.2773 98.359 11.2289 98.3374 11.1643C98.2944 11.0459 98.2567 10.9275 98.2244 10.809C98.1921 10.6906 98.1544 10.5399 98.1113 10.3569C98.1006 10.3353 98.106 10.3084 98.1275 10.2761C98.149 10.2331 98.1867 10.2169 98.2405 10.2277C98.6496 10.2815 99.2095 10.3246 99.92 10.3569C100.631 10.3784 101.411 10.3838 102.262 10.373C102.918 10.373 103.618 10.3676 104.361 10.3569C105.104 10.3353 105.841 10.3138 106.573 10.2923C107.316 10.26 108.016 10.2277 108.673 10.1954C109.34 10.1631 109.927 10.1254 110.433 10.0823C110.95 10.0393 111.348 9.99083 111.628 9.937C111.735 9.91547 111.805 9.92085 111.838 9.95315C111.87 9.98545 111.892 10.0285 111.902 10.0823L111.999 10.7929C112.01 10.9436 111.908 11.0136 111.692 11.0028C111.359 10.9813 110.907 10.9705 110.336 10.9705C109.776 10.9705 109.168 10.9759 108.511 10.9867L105.766 11.0351V12.4239C105.766 12.5531 105.76 12.6715 105.75 12.7792C105.75 12.8761 105.744 12.973 105.734 13.0699C106.218 13.0591 106.697 13.0429 107.171 13.0214C107.644 12.9999 108.081 12.973 108.479 12.9407C108.877 12.8976 109.2 12.8545 109.448 12.8115C109.48 12.8007 109.518 12.8061 109.561 12.8276C109.604 12.8384 109.631 12.8707 109.642 12.9245C109.663 13.0106 109.685 13.1398 109.706 13.3121C109.728 13.4736 109.738 13.5759 109.738 13.6189C109.738 13.7373 109.674 13.7965 109.545 13.7965C109.254 13.7858 108.872 13.7804 108.398 13.7804C107.935 13.7804 107.44 13.7858 106.912 13.7965C106.363 13.8073 105.814 13.8181 105.265 13.8288C104.716 13.8396 104.189 13.8558 103.683 13.8773C103.22 13.8881 102.789 13.9096 102.391 13.9419C101.992 13.9634 101.637 13.9957 101.325 14.0388ZM101.067 18.1406C100.948 18.1621 100.867 18.1459 100.824 18.0921C100.781 18.0491 100.749 17.9952 100.727 17.9306C100.684 17.8122 100.652 17.7099 100.631 17.6238C100.609 17.5377 100.577 17.4031 100.534 17.2201C100.523 17.1986 100.528 17.1716 100.55 17.1393C100.571 17.107 100.609 17.0963 100.663 17.107C100.943 17.1393 101.276 17.1663 101.664 17.1878C102.052 17.2201 102.509 17.2362 103.037 17.2362L102.908 16.2996C102.864 15.9982 102.811 15.6752 102.746 15.3307C102.681 14.9754 102.611 14.7439 102.536 14.6363C102.493 14.5179 102.525 14.4586 102.633 14.4586H103.634C103.688 14.4586 103.726 14.4802 103.747 14.5232C103.78 14.5555 103.796 14.5932 103.796 14.6363C103.806 14.9162 103.817 15.1853 103.828 15.4437C103.839 15.7021 103.855 15.9712 103.876 16.2512L103.957 17.2362L106.848 17.1878L106.945 15.8313C106.966 15.5514 106.972 15.2822 106.961 15.0239C106.961 14.7547 106.945 14.5663 106.912 14.4586C106.891 14.3833 106.896 14.3402 106.929 14.3295C106.961 14.3079 106.999 14.2972 107.042 14.2972C107.106 14.2864 107.203 14.2864 107.332 14.2972C107.472 14.2972 107.612 14.3025 107.752 14.3133C107.903 14.3133 108.011 14.3187 108.075 14.3295C108.129 14.3402 108.15 14.3994 108.14 14.5071C108.097 14.7762 108.054 15.0454 108.011 15.3145C107.978 15.5729 107.946 15.8259 107.914 16.0735L107.768 17.1393C108.253 17.1178 108.683 17.0855 109.06 17.0424C109.437 17.0102 109.733 16.9725 109.948 16.9294C109.981 16.9186 110.018 16.924 110.061 16.9456C110.104 16.9563 110.131 16.9886 110.142 17.0424C110.174 17.1932 110.196 17.3439 110.207 17.4946C110.218 17.6453 110.223 17.7476 110.223 17.8014C110.244 17.9199 110.18 17.9791 110.029 17.9791L107.978 17.9629C107.892 17.9629 107.677 17.9629 107.332 17.9629C106.999 17.9629 106.6 17.9629 106.137 17.9629C105.685 17.9737 105.233 17.9791 104.781 17.9791C104.329 17.9898 103.936 17.9952 103.602 17.9952C103.268 18.006 103.058 18.0114 102.972 18.0114C102.681 18.0221 102.358 18.0383 102.003 18.0598C101.648 18.0814 101.336 18.1083 101.067 18.1406ZM100.485 8.95193C100.485 8.95193 100.48 8.95731 100.469 8.96807C100.404 8.98961 100.329 9.00575 100.243 9.01652C100.168 9.01652 100.081 8.95731 99.9846 8.83888L99.6939 8.51591C99.6293 8.41902 99.6401 8.35442 99.7262 8.32212C100.415 8.09604 101.056 7.79998 101.648 7.43394C102.24 7.05714 102.762 6.6588 103.214 6.23894C103.677 5.8083 104.043 5.40997 104.312 5.04393C104.528 4.76402 104.689 4.46796 104.797 4.15575C104.915 3.84354 104.991 3.58516 105.023 3.38061C105.045 3.27295 105.115 3.24603 105.233 3.29986L106.202 3.73588C106.299 3.77894 106.315 3.84354 106.25 3.92966C106.143 4.12345 105.997 4.3603 105.814 4.64021C105.642 4.92012 105.464 5.18388 105.281 5.4315C105.83 5.61452 106.406 5.81907 107.009 6.04515C107.612 6.27123 108.183 6.49732 108.721 6.7234C109.259 6.94948 109.695 7.15403 110.029 7.33705C110.083 7.36935 110.137 7.41779 110.191 7.48239C110.244 7.53622 110.25 7.61158 110.207 7.70847C110.099 7.93455 109.954 8.18217 109.771 8.45131C109.728 8.52667 109.674 8.53744 109.609 8.48361C109.362 8.27906 109.033 8.05836 108.624 7.82151C108.226 7.5739 107.79 7.33705 107.316 7.11097C106.842 6.87412 106.379 6.66419 105.927 6.48117C105.486 6.28738 105.098 6.14204 104.765 6.04515C104.216 6.63727 103.559 7.20248 102.794 7.74077C102.041 8.2683 101.271 8.67201 100.485 8.95193Z" fill="#5E4829"/>
<path d="M88.4082 10.5021C87.7623 10.5128 87.1648 10.3998 86.6157 10.1629C86.0774 9.91533 85.6468 9.56544 85.3238 9.11328C85.0008 8.66111 84.8393 8.13897 84.8393 7.54685C84.8393 6.96549 85.0008 6.44874 85.3238 5.99657C85.6575 5.53364 86.0936 5.1676 86.6318 4.89846C87.1809 4.61854 87.7784 4.47321 88.4244 4.46244C89.0703 4.44091 89.6624 4.54857 90.2007 4.78541C90.7498 5.0115 91.1858 5.35062 91.5088 5.80279C91.8425 6.24418 92.0094 6.78248 92.0094 7.41766C92.0094 7.98825 91.8425 8.50501 91.5088 8.96794C91.175 9.43087 90.7336 9.79691 90.1846 10.0661C89.6463 10.3352 89.0542 10.4805 88.4082 10.5021ZM88.4244 9.69463C89.1564 9.66234 89.7539 9.4524 90.2169 9.06483C90.6906 8.6665 90.9274 8.11744 90.9274 7.41766C90.9274 6.67482 90.6906 6.12576 90.2169 5.77049C89.7432 5.41521 89.1403 5.24834 88.4082 5.26988C87.6761 5.31294 87.0679 5.52826 86.5834 5.91583C86.0989 6.3034 85.8567 6.84169 85.8567 7.5307C85.8567 8.24125 86.0989 8.78492 86.5834 9.16172C87.0786 9.53853 87.6923 9.71616 88.4244 9.69463ZM94.351 17.1715C94.3079 17.1715 94.2864 17.1446 94.2864 17.0908V5.43136C94.2864 5.02226 94.2702 4.64546 94.2379 4.30095C94.2164 3.94568 94.1787 3.71421 94.1249 3.60656C94.1033 3.55273 94.1033 3.51505 94.1249 3.49351C94.1572 3.46122 94.1948 3.44507 94.2379 3.44507C94.3025 3.44507 94.4102 3.45045 94.5609 3.46122C94.7224 3.46122 94.8785 3.4666 95.0292 3.47737C95.1799 3.47737 95.266 3.47737 95.2876 3.47737C95.3414 3.47737 95.3683 3.52043 95.3683 3.60656C95.336 4.00489 95.3145 4.35478 95.3037 4.65622C95.3037 4.9469 95.3037 5.28603 95.3037 5.6736V16.7678C95.3037 16.9293 95.293 17.0262 95.2714 17.0585C95.2607 17.0908 95.2284 17.1123 95.1745 17.1231L94.351 17.1715ZM84.2741 14.0063C84.1557 14.0171 84.0803 14.0117 84.048 13.9902C84.0158 13.9687 83.9835 13.9095 83.9512 13.8126C83.9081 13.6941 83.8704 13.5865 83.8381 13.4896C83.8166 13.3819 83.7843 13.2366 83.7412 13.0536C83.7305 13.032 83.7358 13.0051 83.7574 12.9728C83.7789 12.9405 83.8166 12.9298 83.8704 12.9405C84.0857 12.9836 84.4841 13.0051 85.0654 13.0051C85.6575 13.0051 86.3035 12.9944 87.0033 12.9728C87.4339 12.9621 87.9291 12.9405 88.489 12.9082C89.0595 12.8652 89.6463 12.8113 90.2492 12.7467C90.8628 12.6822 91.4496 12.6014 92.0094 12.5045C92.58 12.4076 93.086 12.2946 93.5274 12.1654C93.6027 12.1331 93.6512 12.16 93.6727 12.2461L93.7534 12.6983C93.775 12.7952 93.7642 12.8598 93.7212 12.8921C93.6889 12.9244 93.6404 12.9513 93.5758 12.9728C93.3928 13.0267 93.1129 13.0913 92.7361 13.1666C92.37 13.2312 91.9448 13.3012 91.4603 13.3765C90.9866 13.4411 90.4914 13.5057 89.9746 13.5703C89.4686 13.6242 88.9788 13.6726 88.5051 13.7157C88.0314 13.7587 87.6169 13.791 87.2617 13.8126C86.6803 13.8449 86.1259 13.8772 85.5983 13.9095C85.0708 13.9418 84.6294 13.9741 84.2741 14.0063Z" fill="#5E4829"/>
<path d="M70.7917 10.9542C70.7702 10.9542 70.7433 10.9489 70.711 10.9381C70.6787 10.9273 70.6625 10.895 70.6625 10.8412C70.6625 10.8304 70.6625 10.8089 70.6625 10.7766C70.6625 10.712 70.6625 10.6043 70.6625 10.4536C70.6625 10.3029 70.6571 10.0768 70.6464 9.77538C70.6464 9.47393 70.6356 9.06483 70.6141 8.54807C70.6033 8.03131 70.5818 7.36383 70.5495 6.54563C70.5387 6.25495 70.5064 5.96427 70.4526 5.6736C70.4095 5.37215 70.3557 5.17837 70.2911 5.09224C70.248 5.02765 70.2373 4.96843 70.2588 4.9146C70.2911 4.86078 70.3449 4.83924 70.4203 4.85001C70.5926 4.86077 70.7648 4.87154 70.9371 4.88231C71.1201 4.88231 71.2977 4.88231 71.47 4.88231C71.8468 4.88231 72.2451 4.87692 72.665 4.86616C73.0848 4.84463 73.4886 4.82309 73.8761 4.80156C74.2745 4.78003 74.619 4.7585 74.9097 4.73697C75.2111 4.71544 75.4264 4.6939 75.5556 4.67237C75.5771 4.67237 75.5987 4.66699 75.6202 4.65622C75.6956 4.64546 75.7602 4.64546 75.814 4.65622L76.6537 4.81771C76.7291 4.83924 76.7614 4.90384 76.7506 5.0115C76.7291 5.16222 76.7075 5.35062 76.686 5.5767C76.6645 5.79202 76.6483 6.00195 76.6376 6.2065C76.6268 6.40029 76.616 6.54563 76.6053 6.64252C76.573 7.29924 76.5461 7.95595 76.5245 8.61267C76.503 9.26938 76.4815 9.92071 76.4599 10.5667C76.4599 10.7174 76.3792 10.7874 76.2177 10.7766C76.11 10.7658 75.9163 10.7604 75.6363 10.7604C75.3564 10.7604 75.0227 10.7658 74.6351 10.7766C74.2583 10.7874 73.8654 10.8035 73.4563 10.825C73.0579 10.8358 72.6811 10.8466 72.3259 10.8573C71.9706 10.8681 71.6799 10.8789 71.4538 10.8896C71.3462 10.9004 71.217 10.9166 71.0662 10.9381C70.9155 10.9489 70.824 10.9542 70.7917 10.9542ZM77.6065 18.3827C76.9282 18.3827 76.3254 18.2589 75.7978 18.0112C75.2811 17.7744 74.872 17.446 74.5705 17.0262C74.2799 16.6063 74.1345 16.1218 74.1345 15.5728C74.1345 15.0452 74.296 14.5662 74.619 14.1355C74.9419 13.7049 75.3726 13.3658 75.9109 13.1182C76.4492 12.8598 77.0359 12.7306 77.6711 12.7306C78.317 12.7306 78.9038 12.8383 79.4313 13.0536C79.9696 13.2581 80.3948 13.5703 80.7071 13.9902C81.03 14.3993 81.1807 14.9053 81.1592 15.5082C81.1485 16.068 80.9816 16.5632 80.6586 16.9939C80.3464 17.4245 79.9211 17.7636 79.3829 18.0112C78.8553 18.2589 78.2632 18.3827 77.6065 18.3827ZM71.5992 10.0176C71.7822 10.0176 72.0513 10.0176 72.4066 10.0176C72.7726 10.0068 73.1602 9.99608 73.5693 9.98531C73.9784 9.96378 74.3606 9.94763 74.7159 9.93686C75.0819 9.91533 75.3564 9.8938 75.5395 9.87227L75.5879 5.70589C75.5879 5.59823 75.5395 5.5444 75.4426 5.5444L71.5184 5.68974L71.5992 10.0176ZM77.6388 17.5429C78.317 17.5214 78.8876 17.3384 79.3506 16.9939C79.8243 16.6494 80.0719 16.1487 80.0934 15.492C80.1149 15.0614 80.0127 14.7007 79.7866 14.4101C79.5713 14.1194 79.2752 13.8987 78.8984 13.748C78.5324 13.5865 78.1179 13.5057 77.6549 13.5057C77.192 13.5165 76.7721 13.6134 76.3953 13.7964C76.0293 13.9687 75.7332 14.2055 75.5072 14.507C75.2811 14.8084 75.168 15.1583 75.168 15.5566C75.168 15.9657 75.2757 16.321 75.491 16.6224C75.7171 16.9131 76.0131 17.1392 76.3792 17.3007C76.756 17.4622 77.1759 17.5429 77.6388 17.5429ZM80.0611 12.5045C80.018 12.5045 79.9965 12.4776 79.9965 12.4238V9.75923L78.9307 9.80767C78.6723 9.81844 78.387 9.83459 78.0748 9.85612C77.7626 9.87765 77.4773 9.89918 77.2189 9.92072C77.1005 9.93148 77.0251 9.9261 76.9928 9.90457C76.9713 9.87227 76.9498 9.82382 76.9282 9.75923L76.8314 9.11328C76.8098 9.01639 76.8475 8.97871 76.9444 9.00024C77.1274 9.02177 77.3966 9.03792 77.7518 9.04868C78.1179 9.05945 78.5001 9.05945 78.8984 9.04868C79.3075 9.03792 79.6735 9.02177 79.9965 9.00024V6.72326L79.0922 6.75556C78.8338 6.76633 78.5485 6.78248 78.2363 6.80401C77.9241 6.82554 77.6388 6.84707 77.3804 6.8686C77.262 6.87937 77.1866 6.87399 77.1543 6.85245C77.122 6.83092 77.1005 6.78248 77.0897 6.70711L76.9928 6.06117C76.9713 5.96427 77.009 5.92659 77.1059 5.94812C77.2781 5.96966 77.5311 5.99119 77.8649 6.01272C78.1986 6.02348 78.5593 6.02348 78.9468 6.01272C79.3344 6.00195 79.6843 5.9858 79.9965 5.96427V5.41522C79.9965 5.00611 79.9804 4.62931 79.9481 4.2848C79.9265 3.9403 79.8888 3.71421 79.835 3.60656C79.8135 3.55273 79.8135 3.51505 79.835 3.49351C79.8673 3.46122 79.905 3.44507 79.9481 3.44507C80.0665 3.44507 80.228 3.44507 80.4325 3.44507C80.6371 3.44507 80.8255 3.45045 80.9977 3.46122C81.0516 3.46122 81.0785 3.50428 81.0785 3.59041C81.0462 3.98874 81.0246 4.33863 81.0139 4.64008C81.0139 4.93075 81.0139 5.26988 81.0139 5.65745V12.1008C81.0139 12.2623 81.0031 12.3592 80.9816 12.3915C80.9708 12.4238 80.9385 12.4453 80.8847 12.4561L80.0611 12.5045Z" fill="#5E4829"/>
<path d="M63.3892 18.3827C62.7002 18.3827 62.0973 18.2589 61.5805 18.0112C61.0638 17.7744 60.6547 17.446 60.3532 17.0262C60.0626 16.6063 59.9172 16.1218 59.9172 15.5728C59.9172 15.0452 60.0787 14.5662 60.4017 14.1355C60.7247 13.7049 61.1553 13.3658 61.6936 13.1182C62.2319 12.8598 62.8186 12.7306 63.4538 12.7306C64.0998 12.7306 64.6865 12.8383 65.214 13.0536C65.7523 13.2581 66.1776 13.5703 66.4898 13.9902C66.8127 14.3993 66.9635 14.9053 66.9419 15.5082C66.9312 16.068 66.7643 16.5632 66.4413 16.9939C66.1291 17.4245 65.7039 17.7636 65.1656 18.0112C64.638 18.2589 64.0459 18.3827 63.3892 18.3827ZM65.9892 12.4076C65.9461 12.4076 65.9246 12.3807 65.9246 12.3269V8.25739C65.6124 8.25739 65.2894 8.26278 64.9556 8.27354C64.6219 8.27354 64.3151 8.27893 64.0352 8.28969V11.3257C64.0352 11.4871 64.0244 11.584 64.0029 11.6163C63.9921 11.6486 63.9598 11.6702 63.906 11.6809L63.1308 11.7132C63.0878 11.7132 63.0662 11.6863 63.0662 11.6325V5.49596C63.0662 4.64546 63.0178 4.0964 62.9209 3.84879C62.8994 3.79496 62.8994 3.75728 62.9209 3.73575C62.9532 3.70345 62.9909 3.6873 63.0339 3.6873L63.9867 3.70345C64.0405 3.70345 64.0675 3.75189 64.0675 3.84879C64.0459 4.19329 64.0352 4.47859 64.0352 4.70467C64.0352 4.93075 64.0352 5.1676 64.0352 5.41522C64.0352 5.49058 64.0352 5.56594 64.0352 5.6413C64.0352 5.70589 64.0352 5.78125 64.0352 5.86738V7.44996C64.089 7.44996 64.1428 7.44996 64.1966 7.44996C64.2612 7.44996 64.3205 7.44996 64.3743 7.44996C64.6219 7.44996 64.8749 7.44996 65.1333 7.44996C65.4024 7.44996 65.6662 7.43919 65.9246 7.41766V5.09224C65.9246 4.29557 65.8815 3.80034 65.7954 3.60656C65.7738 3.55273 65.7738 3.51505 65.7954 3.49351C65.8277 3.46122 65.8653 3.44507 65.9084 3.44507L66.8773 3.46122C66.9204 3.46122 66.9419 3.50428 66.9419 3.59041C66.9419 3.60117 66.9419 3.61194 66.9419 3.6227C66.9312 3.91338 66.9204 4.161 66.9096 4.36555C66.8989 4.5701 66.8935 4.76926 66.8935 4.96305C66.8935 5.14607 66.8935 5.36677 66.8935 5.62515V12.0201C66.8935 12.1815 66.8827 12.2784 66.8612 12.3107C66.8504 12.343 66.8181 12.3646 66.7643 12.3753L65.9892 12.4076ZM63.4215 17.5429C64.0998 17.5214 64.6703 17.3384 65.1333 16.9939C65.607 16.6494 65.8546 16.1487 65.8761 15.492C65.8976 15.0614 65.7954 14.7007 65.5693 14.4101C65.354 14.1194 65.0579 13.8987 64.6811 13.748C64.3151 13.5865 63.9006 13.5057 63.4377 13.5057C62.9855 13.5165 62.571 13.6134 62.1942 13.7964C61.8174 13.9687 61.516 14.2055 61.2899 14.507C61.0638 14.8084 60.9507 15.1583 60.9507 15.5566C60.9507 15.9657 61.0584 16.321 61.2737 16.6224C61.4998 16.9131 61.8012 17.1392 62.178 17.3007C62.5549 17.4622 62.9693 17.5429 63.4215 17.5429ZM55.3148 11.9716L54.9434 11.6325C54.9003 11.5894 54.9165 11.541 54.9919 11.4871C55.0026 11.4764 55.008 11.471 55.008 11.471C55.5571 11.0727 56.0792 10.5828 56.5744 10.0015C57.0697 9.40934 57.5003 8.7903 57.8663 8.14435C58.2324 7.4984 58.5015 6.89552 58.6738 6.33569C58.7707 6.01272 58.846 5.68974 58.8999 5.36677C58.9644 5.04379 58.9967 4.77465 58.9967 4.55933C58.9967 4.44091 59.0452 4.39246 59.1421 4.41399L60.1433 4.67237C60.2294 4.6939 60.2563 4.75312 60.2241 4.85001C60.1595 5.07609 60.0787 5.33447 59.9818 5.62515C59.8849 5.91583 59.7827 6.21727 59.675 6.52948C59.6212 6.66943 59.5512 6.84169 59.4651 7.04624C59.3789 7.24002 59.2713 7.45534 59.1421 7.69219C59.5297 8.02593 59.9226 8.37044 60.3209 8.72571C60.73 9.07021 61.1015 9.39319 61.4352 9.69463C61.7689 9.99608 62.0112 10.2329 62.1619 10.4052C62.1942 10.4482 62.2211 10.5021 62.2426 10.5667C62.2642 10.6205 62.248 10.6851 62.1942 10.7604C62.1188 10.8573 62.0219 10.9596 61.9035 11.0673C61.7851 11.1749 61.6721 11.2664 61.5644 11.3418C61.4998 11.3956 61.446 11.3849 61.4029 11.3095C61.2307 11.0081 60.9992 10.6743 60.7085 10.3083C60.4178 9.94225 60.1056 9.58159 59.7719 9.22632C59.4489 8.86028 59.1313 8.54807 58.8191 8.28969C58.6146 8.6342 58.3616 9.02715 58.0601 9.46855C57.7694 9.89918 57.4357 10.3298 57.0589 10.7604C56.6821 11.1911 56.2676 11.5894 55.8154 11.9555C55.7508 11.9985 55.6755 12.0362 55.5894 12.0685C55.514 12.09 55.4225 12.0577 55.3148 11.9716Z" fill="#5E4829"/>
<path d="M106.969 26.6993V21.3699H110.43V22.1766H107.924V23.6286H110.248V24.4327H107.924V25.8926H110.448V26.6993H106.969Z" fill="#5E4829"/>
<path d="M103.197 26.6993V21.3699H106.606V22.1766H104.152V23.6286H106.372V24.4327H104.152V26.6993H103.197Z" fill="#5E4829"/>
<path d="M102.654 21.3699V26.6993H101.699V21.3699H102.654Z" fill="#5E4829"/>
<path d="M98.0737 26.6993V21.3699H99.0288V25.8926H101.381V26.6993H98.0737Z" fill="#5E4829"/>
<path d="M92.4868 26.6993V21.3699H94.4801C94.8809 21.3699 95.2218 21.4401 95.5028 21.5807C95.7856 21.7212 95.999 21.9198 96.143 22.1766C96.287 22.4316 96.3589 22.7308 96.3589 23.0743C96.3589 23.4161 96.2861 23.7128 96.1404 23.9643C95.9946 24.2141 95.7804 24.4067 95.4976 24.542C95.2166 24.6773 94.8731 24.745 94.4671 24.745H93.0411V23.9487H94.3396C94.5773 23.9487 94.7733 23.9157 94.9277 23.8498C95.0821 23.7839 95.1957 23.6859 95.2686 23.5558C95.3432 23.4256 95.3805 23.2652 95.3805 23.0743C95.3805 22.8818 95.3432 22.7187 95.2686 22.5851C95.194 22.4515 95.0786 22.3492 94.9225 22.2781C94.7681 22.2069 94.5721 22.1714 94.3344 22.1714H93.4418V26.6993H92.4868ZM95.2348 24.2844L96.5541 26.6993H95.482L94.1887 24.2844H95.2348Z" fill="#5E4829"/>
<path d="M92.0856 24.0344C92.0856 24.5948 91.9797 25.0814 91.7681 25.4943C91.5564 25.9072 91.265 26.2238 90.8937 26.4441C90.5242 26.6627 90.1061 26.772 89.6395 26.772C89.1693 26.772 88.7486 26.6627 88.3774 26.4441C88.0079 26.2238 87.7181 25.9072 87.5082 25.4943C87.2983 25.0814 87.1934 24.5948 87.1934 24.0344C87.1934 23.4741 87.2983 22.9875 87.5082 22.5746C87.7181 22.1617 88.0079 21.8459 88.3774 21.6274C88.7486 21.407 89.1693 21.2969 89.6395 21.2969C90.1061 21.2969 90.5242 21.407 90.8937 21.6274C91.265 21.8459 91.5564 22.1617 91.7681 22.5746C91.9797 22.9875 92.0856 23.4741 92.0856 24.0344ZM91.1201 24.0344C91.1201 23.6372 91.0577 23.298 90.9328 23.017C90.8096 22.7342 90.6361 22.5208 90.4123 22.3768C90.1903 22.2311 89.9327 22.1582 89.6395 22.1582C89.3463 22.1582 89.0878 22.2311 88.864 22.3768C88.6402 22.5208 88.4659 22.7342 88.3409 23.017C88.2178 23.298 88.1562 23.6372 88.1562 24.0344C88.1562 24.4317 88.2178 24.7717 88.3409 25.0545C88.4659 25.3355 88.6402 25.5489 88.864 25.6947C89.0878 25.8386 89.3463 25.9106 89.6395 25.9106C89.9327 25.9106 90.1903 25.8386 90.4123 25.6947C90.6361 25.5489 90.8096 25.3355 90.9328 25.0545C91.0577 24.7717 91.1201 24.4317 91.1201 24.0344Z" fill="#5E4829"/>
<path d="M83.5591 26.6993V21.3699H86.968V22.1766H84.5141V23.6286H86.7338V24.4327H84.5141V26.6993H83.5591Z" fill="#5E4829"/>
<path d="M77.6768 22.1766V21.3699H81.921V22.1766H80.2764V26.6993H79.324V22.1766H77.6768Z" fill="#5E4829"/>
<path d="M76.5713 22.8348C76.5557 22.6821 76.5045 22.552 76.4177 22.4445C76.3327 22.3369 76.2174 22.2545 76.0716 22.1972C75.9259 22.14 75.7568 22.1114 75.5642 22.1114C75.3664 22.1114 75.1947 22.1409 75.049 22.1999C74.9032 22.2588 74.7913 22.3421 74.7133 22.4497C74.6352 22.5555 74.5962 22.6752 74.5962 22.8088C74.5927 23.01 74.6751 23.167 74.8434 23.2798C75.0117 23.3908 75.232 23.4793 75.5044 23.5452L76.004 23.6701C76.3041 23.743 76.5678 23.841 76.7951 23.9642C77.0241 24.0856 77.2097 24.2487 77.352 24.4534C77.4959 24.6581 77.5679 24.9079 77.5679 25.2028C77.5679 25.5151 77.4873 25.7901 77.3259 26.0277C77.1663 26.2654 76.9347 26.4502 76.6311 26.582C76.3293 26.7139 75.9684 26.7798 75.5486 26.7798C75.1357 26.7798 74.7766 26.7156 74.4713 26.5872C74.1659 26.4588 73.9283 26.2715 73.7583 26.0251C73.5882 25.7771 73.4963 25.4787 73.4824 25.13H74.4244C74.4383 25.3104 74.4947 25.4631 74.5936 25.588C74.6925 25.7129 74.8234 25.8066 74.9865 25.869C75.1513 25.9297 75.3361 25.9601 75.5408 25.9601C75.749 25.9601 75.9337 25.928 76.0951 25.8638C76.2581 25.7996 76.3839 25.7103 76.4724 25.5958C76.5626 25.4795 76.6086 25.346 76.6103 25.195C76.6086 25.0632 76.5695 24.9513 76.4932 24.8593C76.4169 24.7657 76.3102 24.6885 76.1731 24.6277C76.0361 24.567 75.8617 24.5089 75.6501 24.4534L75.0438 24.2973C74.5858 24.1793 74.2345 24.0041 73.9899 23.7716C73.7452 23.5391 73.6238 23.2373 73.6255 22.866C73.6238 22.559 73.7071 22.2866 73.8754 22.0489C74.0454 21.8113 74.2787 21.6265 74.5754 21.4946C74.872 21.3628 75.206 21.2969 75.5772 21.2969C75.9502 21.2969 76.2807 21.3628 76.5687 21.4946C76.8567 21.6248 77.0813 21.806 77.2427 22.0385C77.4057 22.271 77.4899 22.5364 77.4951 22.8348H76.5713Z" fill="#5E4829"/>
<path d="M69.7437 26.6993V21.3699H73.2046V22.1766H70.6987V23.6286H73.0225V24.4327H70.6987V25.8926H73.2228V26.6993H69.7437Z" fill="#5E4829"/>
<path d="M65.4932 26.6993V21.3699H67.4865C67.8872 21.3699 68.2281 21.4401 68.5092 21.5807C68.7919 21.7212 69.0053 21.9198 69.1493 22.1766C69.2933 22.4316 69.3653 22.7308 69.3653 23.0743C69.3653 23.4161 69.2924 23.7128 69.1467 23.9643C69.001 24.2141 68.7867 24.4067 68.504 24.542C68.2229 24.6773 67.8794 24.745 67.4735 24.745H66.0474V23.9487H67.346C67.5836 23.9487 67.7797 23.9157 67.9341 23.8498C68.0885 23.7839 68.2021 23.6859 68.275 23.5558C68.3496 23.4256 68.3869 23.2652 68.3869 23.0743C68.3869 22.8818 68.3496 22.7187 68.275 22.5851C68.2004 22.4515 68.085 22.3492 67.9289 22.2781C67.7745 22.2069 67.5784 22.1714 67.3408 22.1714H66.4482V26.6993H65.4932ZM68.2411 24.2844L69.5605 26.6993H68.4883L67.195 24.2844H68.2411Z" fill="#5E4829"/>
<path d="M65.0919 24.0344C65.0919 24.5948 64.9861 25.0814 64.7744 25.4943C64.5628 25.9072 64.2713 26.2238 63.9001 26.4441C63.5306 26.6627 63.1125 26.772 62.6458 26.772C62.1757 26.772 61.755 26.6627 61.3837 26.4441C61.0142 26.2238 60.7245 25.9072 60.5146 25.4943C60.3047 25.0814 60.1997 24.5948 60.1997 24.0344C60.1997 23.4741 60.3047 22.9875 60.5146 22.5746C60.7245 22.1617 61.0142 21.8459 61.3837 21.6274C61.755 21.407 62.1757 21.2969 62.6458 21.2969C63.1125 21.2969 63.5306 21.407 63.9001 21.6274C64.2713 21.8459 64.5628 22.1617 64.7744 22.5746C64.9861 22.9875 65.0919 23.4741 65.0919 24.0344ZM64.1265 24.0344C64.1265 23.6372 64.064 23.298 63.9391 23.017C63.816 22.7342 63.6425 22.5208 63.4187 22.3768C63.1966 22.2311 62.939 22.1582 62.6458 22.1582C62.3526 22.1582 62.0941 22.2311 61.8703 22.3768C61.6466 22.5208 61.4722 22.7342 61.3473 23.017C61.2241 23.298 61.1625 23.6372 61.1625 24.0344C61.1625 24.4317 61.2241 24.7717 61.3473 25.0545C61.4722 25.3355 61.6466 25.5489 61.8703 25.6947C62.0941 25.8386 62.3526 25.9106 62.6458 25.9106C62.939 25.9106 63.1966 25.8386 63.4187 25.6947C63.6425 25.5489 63.816 25.3355 63.9391 25.0545C64.064 24.7717 64.1265 24.4317 64.1265 24.0344Z" fill="#5E4829"/>
<path d="M56.5654 26.6993V21.3699H59.9744V22.1766H57.5205V23.6286H59.7402V24.4327H57.5205V26.6993H56.5654Z" fill="#5E4829"/>
<path fill-rule="evenodd" clip-rule="evenodd" d="M18.0648 2.24444C15.2282 2.5281 13.9 3.70706 13.4191 4.55538C13.2462 4.86051 13.1187 5.19202 12.9964 5.52074C12.5531 6.71201 12.3347 8.93953 12.2073 11.2298C14.3721 15.4418 17.4017 23.6604 15.9116 25.0677C15.5461 25.4129 15.0657 25.6968 14.5195 25.9296C16.2449 26.4281 18.9775 26.7151 20.8639 26.7905C22.9366 26.8735 24.307 25.6794 25.1225 24.2409C24.397 23.5755 23.7176 22.7717 23.2323 21.8385C22.1127 19.6853 23.1605 15.6661 23.4476 15.1637C24.1113 13.5043 25.2865 12.298 26.4477 11.4742C26.4523 11.2006 26.4571 10.9231 26.4621 10.6418C26.5631 4.9869 24.8645 3.49952 24.4757 3.15907C24.4499 3.13656 24.43 3.11906 24.4166 3.1057C24.2013 2.89039 22.3711 1.8138 18.0648 2.24444Z" fill="#A4B648"/>
<path fill-rule="evenodd" clip-rule="evenodd" d="M36.7177 12.2461C37.8687 8.02013 39.355 3.8791 41.1035 1.49084C45.2248 -4.13819 48.6891 7.87695 49.1304 9.40778C49.1618 9.51651 49.1779 9.57235 49.1779 9.56521C49.1779 9.45755 51.977 20.1158 52.1923 23.6685C52.3646 26.5106 47.5271 26.9341 45.0869 26.7905C42.6825 26.6829 37.5723 26.3384 36.3666 25.8216C36.1303 25.7203 35.9142 25.6217 35.7183 25.5237C36.2012 25.2752 36.7047 24.9821 37.2279 24.6376C41.6419 21.7308 38.5198 14.8407 37.9815 13.9795C37.9705 13.9619 37.9587 13.9428 37.9461 13.9223C37.9371 13.9077 37.9277 13.8924 37.9178 13.8764C37.7127 13.5429 37.3247 12.912 36.7177 12.2461Z" fill="#6A8037"/>
<path fill-rule="evenodd" clip-rule="evenodd" d="M0.0857852 23.0221C1.48534 18.3569 4.75817 8.87621 6.65295 8.27331C8.69846 7.62244 9.63747 8.09812 10.6363 8.81162C10.9845 9.06037 11.5569 9.96423 12.2073 11.2298C12.1359 12.5126 12.0931 13.8152 12.0552 14.9663C12.0162 16.1523 11.9824 17.1775 11.9282 17.8549C11.7129 20.5464 12.2512 24.2067 13.0048 25.1757C13.2302 25.4655 13.7832 25.7168 14.5195 25.9296C12.1699 26.9308 8.60306 26.9853 7.72953 26.8979C7.58669 26.8836 7.33014 26.8826 6.99484 26.8813C4.80294 26.8726 -0.754586 26.8505 0.0857852 23.0221Z" fill="#446A37"/>
<path fill-rule="evenodd" clip-rule="evenodd" d="M25.1225 24.2409C26.4893 25.4945 28.0196 26.2568 28.7229 26.4678C29.6719 26.7525 32.1266 27.3718 35.7183 25.5237C34.6644 24.9963 34.1954 24.4855 34.3211 23.6685C34.7196 20.951 35.5444 16.5544 36.7177 12.2461C35.3958 10.7957 33.0349 9.17879 29.2612 10.1038C28.633 10.2577 27.5466 10.6946 26.4477 11.4742C26.442 11.8089 26.4366 12.1378 26.4313 12.4609C26.3475 17.5383 26.2875 21.1779 25.7085 22.9148C25.56 23.3603 25.366 23.8115 25.1225 24.2409Z" fill="#6DA13C"/>
<path d="M34.3211 23.6685C34.7196 20.951 35.5444 16.5544 36.7177 12.2461C37.3247 12.912 37.7127 13.5429 37.9178 13.8764C37.9415 13.9148 37.9627 13.9493 37.9815 13.9795C38.5198 14.8407 41.6419 21.7308 37.2279 24.6376C36.7047 24.9821 36.2012 25.2752 35.7183 25.5237C34.6644 24.9963 34.1954 24.4855 34.3211 23.6685Z" fill="#2D510D"/>
<path fill-rule="evenodd" clip-rule="evenodd" d="M25.7085 22.9148C25.56 23.3603 25.366 23.8115 25.1225 24.2409C24.397 23.5755 23.7176 22.7717 23.2323 21.8385C22.1127 19.6853 23.1605 15.6661 23.4476 15.1637C24.1113 13.5043 25.2865 12.298 26.4477 11.4742C26.442 11.8089 26.4366 12.1378 26.4313 12.4609C26.3475 17.5383 26.2875 21.1779 25.7085 22.9148Z" fill="#467311"/>
<path d="M14.5195 25.9296C13.7832 25.7168 13.2302 25.4655 13.0048 25.1757C12.2512 24.2067 11.7129 20.5464 11.9282 17.8549C11.9824 17.1775 12.0162 16.1523 12.0552 14.9663C12.0931 13.8152 12.1359 12.5126 12.2073 11.2298C14.3721 15.4418 17.4017 23.6604 15.9116 25.0677C15.5461 25.4129 15.0657 25.6968 14.5195 25.9296Z" fill="#2C4C10"/>
</svg>
