<svg width="112" height="27" viewBox="0 0 112 27" fill="none" xmlns="http://www.w3.org/2000/svg">
<path d="M101.325 14.0388C101.207 14.0603 101.126 14.0495 101.083 14.0065C101.04 13.9634 101.007 13.9096 100.986 13.845C100.943 13.7266 100.91 13.6243 100.889 13.5382C100.867 13.4413 100.835 13.3013 100.792 13.1183C100.77 13.0214 100.814 12.9783 100.921 12.9891C101.223 13.0322 101.578 13.0645 101.987 13.086C102.396 13.0968 102.87 13.1022 103.408 13.1022C103.591 13.1022 103.796 13.1022 104.022 13.1022C104.259 13.1022 104.506 13.0968 104.765 13.086C104.754 12.9999 104.748 12.9138 104.748 12.8276C104.748 12.7415 104.748 12.6608 104.748 12.5854L104.732 11.0513C104.528 11.062 104.329 11.0674 104.135 11.0674C103.952 11.0674 103.785 11.0728 103.634 11.0836C102.547 11.1159 101.567 11.1535 100.695 11.1966C99.8231 11.2397 99.1502 11.2881 98.6765 11.3419C98.5581 11.3527 98.4774 11.3419 98.4343 11.3096C98.3913 11.2773 98.359 11.2289 98.3374 11.1643C98.2944 11.0459 98.2567 10.9275 98.2244 10.809C98.1921 10.6906 98.1544 10.5399 98.1113 10.3569C98.1006 10.3353 98.106 10.3084 98.1275 10.2761C98.149 10.2331 98.1867 10.2169 98.2405 10.2277C98.6496 10.2815 99.2095 10.3246 99.92 10.3569C100.631 10.3784 101.411 10.3838 102.262 10.373C102.918 10.373 103.618 10.3676 104.361 10.3569C105.104 10.3353 105.841 10.3138 106.573 10.2923C107.316 10.26 108.016 10.2277 108.673 10.1954C109.34 10.1631 109.927 10.1254 110.433 10.0823C110.95 10.0393 111.348 9.99083 111.628 9.937C111.735 9.91547 111.805 9.92085 111.838 9.95315C111.87 9.98544 111.892 10.0285 111.902 10.0823L111.999 10.7929C112.01 10.9436 111.908 11.0136 111.692 11.0028C111.359 10.9813 110.907 10.9705 110.336 10.9705C109.776 10.9705 109.168 10.9759 108.511 10.9867L105.766 11.0351V12.4239C105.766 12.5531 105.76 12.6715 105.75 12.7792C105.75 12.8761 105.744 12.973 105.734 13.0699C106.218 13.0591 106.697 13.0429 107.171 13.0214C107.644 12.9999 108.081 12.973 108.479 12.9407C108.877 12.8976 109.2 12.8545 109.448 12.8115C109.48 12.8007 109.518 12.8061 109.561 12.8276C109.604 12.8384 109.631 12.8707 109.642 12.9245C109.663 13.0106 109.685 13.1398 109.706 13.3121C109.728 13.4736 109.738 13.5758 109.738 13.6189C109.738 13.7373 109.674 13.7965 109.545 13.7965C109.254 13.7858 108.872 13.7804 108.398 13.7804C107.935 13.7804 107.44 13.7858 106.912 13.7965C106.363 13.8073 105.814 13.8181 105.265 13.8288C104.716 13.8396 104.189 13.8558 103.683 13.8773C103.22 13.8881 102.789 13.9096 102.391 13.9419C101.992 13.9634 101.637 13.9957 101.325 14.0388ZM101.067 18.1406C100.948 18.1621 100.867 18.1459 100.824 18.0921C100.781 18.0491 100.749 17.9952 100.727 17.9306C100.684 17.8122 100.652 17.7099 100.631 17.6238C100.609 17.5377 100.577 17.4031 100.534 17.2201C100.523 17.1986 100.528 17.1716 100.55 17.1393C100.571 17.107 100.609 17.0963 100.663 17.107C100.943 17.1393 101.276 17.1663 101.664 17.1878C102.052 17.2201 102.509 17.2362 103.037 17.2362L102.908 16.2996C102.864 15.9982 102.811 15.6752 102.746 15.3307C102.681 14.9754 102.611 14.7439 102.536 14.6363C102.493 14.5179 102.525 14.4586 102.633 14.4586H103.634C103.688 14.4586 103.726 14.4802 103.747 14.5232C103.78 14.5555 103.796 14.5932 103.796 14.6363C103.806 14.9162 103.817 15.1853 103.828 15.4437C103.839 15.7021 103.855 15.9712 103.876 16.2512L103.957 17.2362L106.848 17.1878L106.945 15.8313C106.966 15.5514 106.972 15.2822 106.961 15.0239C106.961 14.7547 106.945 14.5663 106.912 14.4586C106.891 14.3833 106.896 14.3402 106.929 14.3295C106.961 14.3079 106.999 14.2972 107.042 14.2972C107.106 14.2864 107.203 14.2864 107.332 14.2972C107.472 14.2972 107.612 14.3025 107.752 14.3133C107.903 14.3133 108.011 14.3187 108.075 14.3295C108.129 14.3402 108.15 14.3994 108.14 14.5071C108.097 14.7762 108.054 15.0454 108.011 15.3145C107.978 15.5729 107.946 15.8259 107.914 16.0735L107.768 17.1393C108.253 17.1178 108.683 17.0855 109.06 17.0424C109.437 17.0101 109.733 16.9725 109.948 16.9294C109.981 16.9186 110.018 16.924 110.061 16.9456C110.104 16.9563 110.131 16.9886 110.142 17.0424C110.174 17.1932 110.196 17.3439 110.207 17.4946C110.218 17.6453 110.223 17.7476 110.223 17.8014C110.244 17.9199 110.18 17.9791 110.029 17.9791L107.978 17.9629C107.892 17.9629 107.677 17.9629 107.332 17.9629C106.999 17.9629 106.6 17.9629 106.137 17.9629C105.685 17.9737 105.233 17.9791 104.781 17.9791C104.329 17.9898 103.936 17.9952 103.602 17.9952C103.268 18.006 103.058 18.0114 102.972 18.0114C102.681 18.0221 102.358 18.0383 102.003 18.0598C101.648 18.0813 101.336 18.1083 101.067 18.1406ZM100.485 8.95193C100.485 8.95193 100.48 8.95731 100.469 8.96807C100.404 8.98961 100.329 9.00575 100.243 9.01652C100.168 9.01652 100.081 8.95731 99.9846 8.83888L99.6939 8.51591C99.6293 8.41902 99.6401 8.35442 99.7262 8.32212C100.415 8.09604 101.056 7.79998 101.648 7.43394C102.24 7.05714 102.762 6.6588 103.214 6.23894C103.677 5.8083 104.043 5.40997 104.312 5.04393C104.528 4.76402 104.689 4.46796 104.797 4.15575C104.915 3.84354 104.991 3.58516 105.023 3.38061C105.045 3.27295 105.115 3.24603 105.233 3.29986L106.202 3.73588C106.299 3.77894 106.315 3.84354 106.25 3.92966C106.143 4.12345 105.997 4.3603 105.814 4.64021C105.642 4.92012 105.464 5.18388 105.281 5.4315C105.83 5.61452 106.406 5.81907 107.009 6.04515C107.612 6.27123 108.183 6.49732 108.721 6.7234C109.259 6.94948 109.695 7.15403 110.029 7.33705C110.083 7.36935 110.137 7.41779 110.191 7.48239C110.244 7.53622 110.25 7.61158 110.207 7.70847C110.099 7.93455 109.954 8.18217 109.771 8.45131C109.728 8.52667 109.674 8.53744 109.609 8.48361C109.362 8.27906 109.033 8.05836 108.624 7.82151C108.226 7.5739 107.79 7.33705 107.316 7.11097C106.842 6.87412 106.379 6.66419 105.927 6.48117C105.486 6.28738 105.098 6.14204 104.765 6.04515C104.216 6.63727 103.559 7.20248 102.794 7.74077C102.041 8.2683 101.271 8.67201 100.485 8.95193Z" fill="#FEFADF"/>
<path d="M88.4077 10.5021C87.7618 10.5128 87.1643 10.3998 86.6152 10.1629C86.0769 9.91533 85.6463 9.56544 85.3233 9.11328C85.0003 8.66111 84.8389 8.13897 84.8389 7.54685C84.8389 6.96549 85.0003 6.44874 85.3233 5.99657C85.6571 5.53364 86.0931 5.1676 86.6314 4.89846C87.1804 4.61854 87.7779 4.47321 88.4239 4.46244C89.0698 4.44091 89.6619 4.54857 90.2002 4.78541C90.7493 5.0115 91.1853 5.35062 91.5083 5.80279C91.842 6.24418 92.0089 6.78248 92.0089 7.41766C92.0089 7.98825 91.842 8.50501 91.5083 8.96794C91.1745 9.43087 90.7331 9.79691 90.1841 10.0661C89.6458 10.3352 89.0537 10.4805 88.4077 10.5021ZM88.4239 9.69463C89.1559 9.66234 89.7535 9.4524 90.2164 9.06483C90.6901 8.6665 90.9269 8.11744 90.9269 7.41766C90.9269 6.67482 90.6901 6.12576 90.2164 5.77049C89.7427 5.41521 89.1398 5.24834 88.4077 5.26988C87.6756 5.31294 87.0674 5.52826 86.5829 5.91583C86.0985 6.3034 85.8562 6.84169 85.8562 7.5307C85.8562 8.24125 86.0985 8.78492 86.5829 9.16172C87.0781 9.53853 87.6918 9.71616 88.4239 9.69463ZM94.3505 17.1715C94.3074 17.1715 94.2859 17.1446 94.2859 17.0908V5.43136C94.2859 5.02226 94.2697 4.64546 94.2374 4.30095C94.2159 3.94568 94.1782 3.71421 94.1244 3.60656C94.1028 3.55273 94.1028 3.51505 94.1244 3.49351C94.1567 3.46122 94.1944 3.44507 94.2374 3.44507C94.302 3.44507 94.4097 3.45045 94.5604 3.46122C94.7219 3.46122 94.878 3.4666 95.0287 3.47737C95.1794 3.47737 95.2656 3.47737 95.2871 3.47737C95.3409 3.47737 95.3678 3.52043 95.3678 3.60656C95.3355 4.00489 95.314 4.35478 95.3032 4.65622C95.3032 4.9469 95.3032 5.28603 95.3032 5.6736V16.7678C95.3032 16.9293 95.2925 17.0262 95.2709 17.0585C95.2602 17.0908 95.2279 17.1123 95.174 17.1231L94.3505 17.1715ZM84.2736 14.0063C84.1552 14.0171 84.0799 14.0117 84.0476 13.9902C84.0153 13.9687 83.983 13.9095 83.9507 13.8126C83.9076 13.6941 83.8699 13.5865 83.8376 13.4896C83.8161 13.3819 83.7838 13.2366 83.7407 13.0536C83.73 13.032 83.7354 13.0051 83.7569 12.9728C83.7784 12.9405 83.8161 12.9298 83.8699 12.9405C84.0852 12.9836 84.4836 13.0051 85.0649 13.0051C85.6571 13.0051 86.303 12.9944 87.0028 12.9728C87.4334 12.9621 87.9286 12.9405 88.4885 12.9082C89.0591 12.8652 89.6458 12.8113 90.2487 12.7467C90.8623 12.6822 91.4491 12.6014 92.0089 12.5045C92.5795 12.4076 93.0855 12.2946 93.5269 12.1654C93.6022 12.1331 93.6507 12.16 93.6722 12.2461L93.753 12.6983C93.7745 12.7952 93.7637 12.8598 93.7207 12.8921C93.6884 12.9244 93.6399 12.9513 93.5753 12.9728C93.3923 13.0267 93.1124 13.0913 92.7356 13.1666C92.3695 13.2312 91.9443 13.3012 91.4598 13.3765C90.9861 13.4411 90.4909 13.5057 89.9742 13.5703C89.4682 13.6242 88.9783 13.6726 88.5046 13.7157C88.0309 13.7587 87.6164 13.791 87.2612 13.8126C86.6798 13.8449 86.1254 13.8772 85.5978 13.9095C85.0703 13.9418 84.6289 13.9741 84.2736 14.0063Z" fill="#FEFADF"/>
<path d="M70.7912 10.9542C70.7697 10.9542 70.7428 10.9489 70.7105 10.9381C70.6782 10.9273 70.662 10.895 70.662 10.8412C70.662 10.8304 70.662 10.8089 70.662 10.7766C70.662 10.712 70.662 10.6043 70.662 10.4536C70.662 10.3029 70.6567 10.0768 70.6459 9.77538C70.6459 9.47393 70.6351 9.06483 70.6136 8.54807C70.6028 8.03131 70.5813 7.36383 70.549 6.54563C70.5382 6.25495 70.5059 5.96427 70.4521 5.6736C70.409 5.37215 70.3552 5.17837 70.2906 5.09224C70.2476 5.02765 70.2368 4.96843 70.2583 4.9146C70.2906 4.86078 70.3445 4.83924 70.4198 4.85001C70.5921 4.86077 70.7643 4.87154 70.9366 4.88231C71.1196 4.88231 71.2972 4.88231 71.4695 4.88231C71.8463 4.88231 72.2446 4.87692 72.6645 4.86616C73.0844 4.84463 73.4881 4.82309 73.8756 4.80156C74.274 4.78003 74.6185 4.7585 74.9092 4.73697C75.2106 4.71544 75.4259 4.6939 75.5551 4.67237C75.5766 4.67237 75.5982 4.66699 75.6197 4.65622C75.6951 4.64546 75.7597 4.64546 75.8135 4.65622L76.6532 4.81771C76.7286 4.83924 76.7609 4.90384 76.7501 5.0115C76.7286 5.16222 76.7071 5.35062 76.6855 5.5767C76.664 5.79202 76.6478 6.00195 76.6371 6.2065C76.6263 6.40029 76.6155 6.54563 76.6048 6.64252C76.5725 7.29924 76.5456 7.95595 76.524 8.61267C76.5025 9.26938 76.481 9.92071 76.4594 10.5667C76.4594 10.7174 76.3787 10.7874 76.2172 10.7766C76.1096 10.7658 75.9158 10.7604 75.6359 10.7604C75.3559 10.7604 75.0222 10.7658 74.6346 10.7766C74.2578 10.7874 73.8649 10.8035 73.4558 10.825C73.0574 10.8358 72.6806 10.8466 72.3254 10.8573C71.9701 10.8681 71.6794 10.8789 71.4533 10.8896C71.3457 10.9004 71.2165 10.9166 71.0658 10.9381C70.915 10.9489 70.8235 10.9542 70.7912 10.9542ZM77.606 18.3827C76.9278 18.3827 76.3249 18.2589 75.7973 18.0112C75.2806 17.7744 74.8715 17.446 74.57 17.0262C74.2794 16.6063 74.134 16.1218 74.134 15.5728C74.134 15.0452 74.2955 14.5662 74.6185 14.1355C74.9415 13.7049 75.3721 13.3658 75.9104 13.1182C76.4487 12.8598 77.0354 12.7306 77.6706 12.7306C78.3165 12.7306 78.9033 12.8383 79.4308 13.0536C79.9691 13.2581 80.3944 13.5703 80.7066 13.9902C81.0295 14.3993 81.1803 14.9053 81.1587 15.5082C81.148 16.068 80.9811 16.5632 80.6581 16.9939C80.3459 17.4245 79.9207 17.7636 79.3824 18.0112C78.8548 18.2589 78.2627 18.3827 77.606 18.3827ZM71.5987 10.0176C71.7817 10.0176 72.0508 10.0176 72.4061 10.0176C72.7721 10.0068 73.1597 9.99608 73.5688 9.98531C73.9779 9.96378 74.3601 9.94763 74.7154 9.93686C75.0814 9.91533 75.3559 9.8938 75.539 9.87227L75.5874 5.70589C75.5874 5.59823 75.539 5.5444 75.4421 5.5444L71.5179 5.68974L71.5987 10.0176ZM77.6383 17.5429C78.3165 17.5214 78.8871 17.3384 79.3501 16.9939C79.8238 16.6494 80.0714 16.1487 80.0929 15.492C80.1144 15.0614 80.0122 14.7007 79.7861 14.4101C79.5708 14.1194 79.2747 13.8987 78.8979 13.748C78.5319 13.5865 78.1174 13.5057 77.6545 13.5057C77.1915 13.5165 76.7717 13.6134 76.3948 13.7964C76.0288 13.9687 75.7327 14.2055 75.5067 14.507C75.2806 14.8084 75.1675 15.1583 75.1675 15.5566C75.1675 15.9657 75.2752 16.321 75.4905 16.6224C75.7166 16.9131 76.0127 17.1392 76.3787 17.3007C76.7555 17.4622 77.1754 17.5429 77.6383 17.5429ZM80.0606 12.5045C80.0175 12.5045 79.996 12.4776 79.996 12.4238V9.75923L78.9302 9.80767C78.6718 9.81844 78.3865 9.83459 78.0743 9.85612C77.7621 9.87765 77.4768 9.89918 77.2184 9.92072C77.1 9.93148 77.0246 9.9261 76.9924 9.90457C76.9708 9.87227 76.9493 9.82382 76.9278 9.75923L76.8309 9.11328C76.8093 9.01638 76.847 8.97871 76.9439 9.00024C77.1269 9.02177 77.3961 9.03792 77.7513 9.04868C78.1174 9.05945 78.4996 9.05945 78.8979 9.04868C79.307 9.03792 79.673 9.02177 79.996 9.00024V6.72326L79.0917 6.75556C78.8333 6.76633 78.548 6.78248 78.2358 6.80401C77.9236 6.82554 77.6383 6.84707 77.3799 6.8686C77.2615 6.87937 77.1861 6.87399 77.1538 6.85245C77.1215 6.83092 77.1 6.78248 77.0892 6.70711L76.9924 6.06116C76.9708 5.96427 77.0085 5.92659 77.1054 5.94812C77.2776 5.96966 77.5306 5.99119 77.8644 6.01272C78.1981 6.02348 78.5588 6.02348 78.9463 6.01272C79.3339 6.00195 79.6838 5.9858 79.996 5.96427V5.41522C79.996 5.00611 79.9799 4.62931 79.9476 4.2848C79.926 3.9403 79.8884 3.71421 79.8345 3.60656C79.813 3.55273 79.813 3.51505 79.8345 3.49351C79.8668 3.46122 79.9045 3.44507 79.9476 3.44507C80.066 3.44507 80.2275 3.44507 80.432 3.44507C80.6366 3.44507 80.825 3.45045 80.9972 3.46122C81.0511 3.46122 81.078 3.50428 81.078 3.59041C81.0457 3.98874 81.0242 4.33863 81.0134 4.64008C81.0134 4.93075 81.0134 5.26988 81.0134 5.65745V12.1008C81.0134 12.2623 81.0026 12.3592 80.9811 12.3915C80.9703 12.4238 80.938 12.4453 80.8842 12.4561L80.0606 12.5045Z" fill="#FEFADF"/>
<path d="M63.3892 18.3827C62.7002 18.3827 62.0973 18.2589 61.5805 18.0112C61.0638 17.7744 60.6547 17.446 60.3532 17.0262C60.0626 16.6063 59.9172 16.1218 59.9172 15.5728C59.9172 15.0452 60.0787 14.5662 60.4017 14.1355C60.7247 13.7049 61.1553 13.3658 61.6936 13.1182C62.2319 12.8598 62.8186 12.7306 63.4538 12.7306C64.0997 12.7306 64.6865 12.8383 65.214 13.0536C65.7523 13.2581 66.1776 13.5703 66.4898 13.9902C66.8127 14.3993 66.9635 14.9053 66.9419 15.5082C66.9312 16.068 66.7643 16.5632 66.4413 16.9939C66.1291 17.4245 65.7039 17.7636 65.1656 18.0112C64.638 18.2589 64.0459 18.3827 63.3892 18.3827ZM65.9892 12.4076C65.9461 12.4076 65.9246 12.3807 65.9246 12.3269V8.25739C65.6123 8.25739 65.2894 8.26278 64.9556 8.27354C64.6219 8.27354 64.3151 8.27893 64.0352 8.28969V11.3257C64.0352 11.4871 64.0244 11.584 64.0029 11.6163C63.9921 11.6486 63.9598 11.6702 63.906 11.6809L63.1308 11.7132C63.0878 11.7132 63.0662 11.6863 63.0662 11.6325V5.49596C63.0662 4.64546 63.0178 4.0964 62.9209 3.84879C62.8994 3.79496 62.8994 3.75728 62.9209 3.73575C62.9532 3.70345 62.9909 3.6873 63.0339 3.6873L63.9867 3.70345C64.0405 3.70345 64.0675 3.75189 64.0675 3.84879C64.0459 4.19329 64.0352 4.47859 64.0352 4.70467C64.0352 4.93075 64.0352 5.1676 64.0352 5.41522C64.0352 5.49058 64.0352 5.56594 64.0352 5.6413C64.0352 5.70589 64.0352 5.78125 64.0352 5.86738V7.44996C64.089 7.44996 64.1428 7.44996 64.1966 7.44996C64.2612 7.44996 64.3205 7.44996 64.3743 7.44996C64.6219 7.44996 64.8749 7.44996 65.1333 7.44996C65.4024 7.44996 65.6662 7.43919 65.9246 7.41766V5.09224C65.9246 4.29557 65.8815 3.80034 65.7954 3.60656C65.7738 3.55273 65.7738 3.51505 65.7954 3.49351C65.8277 3.46122 65.8653 3.44507 65.9084 3.44507L66.8773 3.46122C66.9204 3.46122 66.9419 3.50428 66.9419 3.59041C66.9419 3.60117 66.9419 3.61194 66.9419 3.6227C66.9312 3.91338 66.9204 4.161 66.9096 4.36555C66.8989 4.5701 66.8935 4.76926 66.8935 4.96305C66.8935 5.14607 66.8935 5.36677 66.8935 5.62515V12.0201C66.8935 12.1815 66.8827 12.2784 66.8612 12.3107C66.8504 12.343 66.8181 12.3646 66.7643 12.3753L65.9892 12.4076ZM63.4215 17.5429C64.0997 17.5214 64.6703 17.3384 65.1333 16.9939C65.607 16.6494 65.8546 16.1487 65.8761 15.492C65.8976 15.0614 65.7954 14.7007 65.5693 14.4101C65.354 14.1194 65.0579 13.8987 64.6811 13.748C64.3151 13.5865 63.9006 13.5057 63.4377 13.5057C62.9855 13.5165 62.571 13.6134 62.1942 13.7964C61.8174 13.9687 61.516 14.2055 61.2899 14.507C61.0638 14.8084 60.9507 15.1583 60.9507 15.5566C60.9507 15.9657 61.0584 16.321 61.2737 16.6224C61.4998 16.9131 61.8012 17.1392 62.178 17.3007C62.5549 17.4622 62.9693 17.5429 63.4215 17.5429ZM55.3148 11.9716L54.9434 11.6325C54.9003 11.5894 54.9165 11.541 54.9919 11.4871C55.0026 11.4764 55.008 11.471 55.008 11.471C55.5571 11.0727 56.0792 10.5828 56.5744 10.0015C57.0697 9.40934 57.5003 8.7903 57.8663 8.14435C58.2324 7.4984 58.5015 6.89552 58.6738 6.33569C58.7707 6.01272 58.846 5.68974 58.8999 5.36677C58.9644 5.04379 58.9967 4.77465 58.9967 4.55933C58.9967 4.44091 59.0452 4.39246 59.1421 4.41399L60.1433 4.67237C60.2294 4.6939 60.2563 4.75312 60.2241 4.85001C60.1595 5.07609 60.0787 5.33447 59.9818 5.62515C59.8849 5.91583 59.7827 6.21727 59.675 6.52948C59.6212 6.66943 59.5512 6.84169 59.4651 7.04624C59.3789 7.24002 59.2713 7.45534 59.1421 7.69219C59.5297 8.02593 59.9226 8.37044 60.3209 8.72571C60.73 9.07021 61.1015 9.39319 61.4352 9.69463C61.7689 9.99608 62.0112 10.2329 62.1619 10.4052C62.1942 10.4482 62.2211 10.5021 62.2426 10.5667C62.2642 10.6205 62.248 10.6851 62.1942 10.7604C62.1188 10.8573 62.0219 10.9596 61.9035 11.0673C61.7851 11.1749 61.6721 11.2664 61.5644 11.3418C61.4998 11.3956 61.446 11.3849 61.4029 11.3095C61.2307 11.0081 60.9992 10.6743 60.7085 10.3083C60.4178 9.94225 60.1056 9.58159 59.7719 9.22632C59.4489 8.86028 59.1313 8.54807 58.8191 8.28969C58.6146 8.6342 58.3616 9.02715 58.0601 9.46855C57.7694 9.89918 57.4357 10.3298 57.0589 10.7604C56.6821 11.1911 56.2676 11.5894 55.8154 11.9555C55.7508 11.9985 55.6755 12.0362 55.5894 12.0685C55.514 12.09 55.4225 12.0577 55.3148 11.9716Z" fill="#FEFADF"/>
<path d="M106.968 26.6993V21.3699H110.429V22.1766H107.923V23.6286H110.247V24.4327H107.923V25.8926H110.447V26.6993H106.968Z" fill="#FEFADF"/>
<path d="M103.196 26.6993V21.3699H106.605V22.1766H104.151V23.6286H106.371V24.4327H104.151V26.6993H103.196Z" fill="#FEFADF"/>
<path d="M102.653 21.3699V26.6993H101.698V21.3699H102.653Z" fill="#FEFADF"/>
<path d="M98.0732 26.6993V21.3699H99.0283V25.8926H101.381V26.6993H98.0732Z" fill="#FEFADF"/>
<path d="M92.4863 26.6993V21.3699H94.4796C94.8804 21.3699 95.2213 21.4401 95.5023 21.5807C95.7851 21.7212 95.9985 21.9198 96.1425 22.1766C96.2865 22.4316 96.3585 22.7308 96.3585 23.0743C96.3585 23.4161 96.2856 23.7128 96.1399 23.9643C95.9941 24.2141 95.7799 24.4067 95.4971 24.542C95.2161 24.6773 94.8726 24.745 94.4666 24.745H93.0406V23.9487H94.3391C94.5768 23.9487 94.7728 23.9157 94.9272 23.8498C95.0816 23.7839 95.1953 23.6859 95.2681 23.5558C95.3427 23.4256 95.38 23.2652 95.38 23.0743C95.38 22.8818 95.3427 22.7187 95.2681 22.5851C95.1935 22.4515 95.0782 22.3492 94.922 22.2781C94.7676 22.2069 94.5716 22.1714 94.3339 22.1714H93.4414V26.6993H92.4863ZM95.2343 24.2844L96.5536 26.6993H95.4815L94.1882 24.2844H95.2343Z" fill="#FEFADF"/>
<path d="M92.0851 24.0347C92.0851 24.595 91.9793 25.0816 91.7676 25.4945C91.556 25.9074 91.2645 26.224 90.8933 26.4443C90.5237 26.6629 90.1056 26.7722 89.639 26.7722C89.1688 26.7722 88.7481 26.6629 88.3769 26.4443C88.0074 26.224 87.7177 25.9074 87.5077 25.4945C87.2978 25.0816 87.1929 24.595 87.1929 24.0347C87.1929 23.4743 87.2978 22.9877 87.5077 22.5748C87.7177 22.1619 88.0074 21.8462 88.3769 21.6276C88.7481 21.4073 89.1688 21.2971 89.639 21.2971C90.1056 21.2971 90.5237 21.4073 90.8933 21.6276C91.2645 21.8462 91.556 22.1619 91.7676 22.5748C91.9793 22.9877 92.0851 23.4743 92.0851 24.0347ZM91.1196 24.0347C91.1196 23.6374 91.0572 23.2982 90.9323 23.0172C90.8091 22.7344 90.6356 22.521 90.4118 22.377C90.1898 22.2313 89.9322 22.1585 89.639 22.1585C89.3458 22.1585 89.0873 22.2313 88.8635 22.377C88.6397 22.521 88.4654 22.7344 88.3405 23.0172C88.2173 23.2982 88.1557 23.6374 88.1557 24.0347C88.1557 24.4319 88.2173 24.772 88.3405 25.0548C88.4654 25.3358 88.6397 25.5492 88.8635 25.6949C89.0873 25.8389 89.3458 25.9109 89.639 25.9109C89.9322 25.9109 90.1898 25.8389 90.4118 25.6949C90.6356 25.5492 90.8091 25.3358 90.9323 25.0548C91.0572 24.772 91.1196 24.4319 91.1196 24.0347Z" fill="#FEFADF"/>
<path d="M83.5586 26.6993V21.3699H86.9675V22.1766H84.5136V23.6286H86.7333V24.4327H84.5136V26.6993H83.5586Z" fill="#FEFADF"/>
<path d="M77.6763 22.1766V21.3699H81.9205V22.1766H80.2759V26.6993H79.3235V22.1766H77.6763Z" fill="#FEFADF"/>
<path d="M76.5708 22.835C76.5552 22.6824 76.504 22.5523 76.4173 22.4447C76.3323 22.3371 76.2169 22.2547 76.0712 22.1975C75.9254 22.1402 75.7563 22.1116 75.5637 22.1116C75.366 22.1116 75.1942 22.1411 75.0485 22.2001C74.9028 22.2591 74.7909 22.3424 74.7128 22.4499C74.6347 22.5557 74.5957 22.6754 74.5957 22.809C74.5922 23.0103 74.6746 23.1673 74.8429 23.28C75.0112 23.3911 75.2315 23.4795 75.5039 23.5455L76.0035 23.6704C76.3036 23.7432 76.5673 23.8412 76.7946 23.9644C77.0236 24.0859 77.2092 24.2489 77.3515 24.4536C77.4955 24.6583 77.5674 24.9082 77.5674 25.2031C77.5674 25.5153 77.4868 25.7903 77.3254 26.028C77.1658 26.2657 76.9342 26.4504 76.6306 26.5823C76.3288 26.7141 75.9679 26.78 75.5481 26.78C75.1352 26.78 74.7761 26.7158 74.4708 26.5875C74.1655 26.4591 73.9278 26.2717 73.7578 26.0254C73.5878 25.7773 73.4958 25.4789 73.4819 25.1302H74.4239C74.4378 25.3106 74.4942 25.4633 74.5931 25.5882C74.692 25.7131 74.823 25.8068 74.986 25.8693C75.1508 25.93 75.3356 25.9603 75.5403 25.9603C75.7485 25.9603 75.9332 25.9282 76.0946 25.864C76.2577 25.7999 76.3834 25.7105 76.4719 25.596C76.5621 25.4798 76.6081 25.3462 76.6098 25.1953C76.6081 25.0634 76.5691 24.9515 76.4927 24.8596C76.4164 24.7659 76.3097 24.6887 76.1726 24.628C76.0356 24.5673 75.8612 24.5091 75.6496 24.4536L75.0433 24.2975C74.5853 24.1795 74.234 24.0043 73.9894 23.7718C73.7448 23.5394 73.6233 23.2375 73.6251 22.8663C73.6233 22.5592 73.7066 22.2868 73.8749 22.0492C74.0449 21.8115 74.2782 21.6267 74.5749 21.4949C74.8715 21.363 75.2055 21.2971 75.5767 21.2971C75.9497 21.2971 76.2802 21.363 76.5682 21.4949C76.8562 21.625 77.0808 21.8063 77.2422 22.0388C77.4052 22.2712 77.4894 22.5367 77.4946 22.835H76.5708Z" fill="#FEFADF"/>
<path d="M69.7432 26.6993V21.3699H73.2041V22.1766H70.6982V23.6286H73.022V24.4327H70.6982V25.8926H73.2224V26.6993H69.7432Z" fill="#FEFADF"/>
<path d="M65.4922 26.6993V21.3699H67.4855C67.8862 21.3699 68.2271 21.4401 68.5082 21.5807C68.791 21.7212 69.0043 21.9198 69.1483 22.1766C69.2923 22.4316 69.3643 22.7308 69.3643 23.0743C69.3643 23.4161 69.2915 23.7128 69.1457 23.9643C69 24.2141 68.7858 24.4067 68.503 24.542C68.2219 24.6773 67.8784 24.745 67.4725 24.745H66.0465V23.9487H67.345C67.5827 23.9487 67.7787 23.9157 67.9331 23.8498C68.0875 23.7839 68.2011 23.6859 68.274 23.5558C68.3486 23.4256 68.3859 23.2652 68.3859 23.0743C68.3859 22.8818 68.3486 22.7187 68.274 22.5851C68.1994 22.4515 68.084 22.3492 67.9279 22.2781C67.7735 22.2069 67.5774 22.1714 67.3398 22.1714H66.4472V26.6993H65.4922ZM68.2402 24.2844L69.5595 26.6993H68.4874L67.1941 24.2844H68.2402Z" fill="#FEFADF"/>
<path d="M65.0914 24.0347C65.0914 24.595 64.9856 25.0816 64.774 25.4945C64.5623 25.9074 64.2709 26.224 63.8996 26.4443C63.5301 26.6629 63.112 26.7722 62.6453 26.7722C62.1752 26.7722 61.7545 26.6629 61.3832 26.4443C61.0137 26.224 60.724 25.9074 60.5141 25.4945C60.3042 25.0816 60.1992 24.595 60.1992 24.0347C60.1992 23.4743 60.3042 22.9877 60.5141 22.5748C60.724 22.1619 61.0137 21.8462 61.3832 21.6276C61.7545 21.4073 62.1752 21.2971 62.6453 21.2971C63.112 21.2971 63.5301 21.4073 63.8996 21.6276C64.2709 21.8462 64.5623 22.1619 64.774 22.5748C64.9856 22.9877 65.0914 23.4743 65.0914 24.0347ZM64.126 24.0347C64.126 23.6374 64.0635 23.2982 63.9386 23.0172C63.8155 22.7344 63.642 22.521 63.4182 22.377C63.1961 22.2313 62.9385 22.1585 62.6453 22.1585C62.3521 22.1585 62.0936 22.2313 61.8699 22.377C61.6461 22.521 61.4717 22.7344 61.3468 23.0172C61.2236 23.2982 61.162 23.6374 61.162 24.0347C61.162 24.4319 61.2236 24.772 61.3468 25.0548C61.4717 25.3358 61.6461 25.5492 61.8699 25.6949C62.0936 25.8389 62.3521 25.9109 62.6453 25.9109C62.9385 25.9109 63.1961 25.8389 63.4182 25.6949C63.642 25.5492 63.8155 25.3358 63.9386 25.0548C64.0635 24.772 64.126 24.4319 64.126 24.0347Z" fill="#FEFADF"/>
<path d="M56.5645 26.6993V21.3699H59.9734V22.1766H57.5195V23.6286H59.7392V24.4327H57.5195V26.6993H56.5645Z" fill="#FEFADF"/>
<path fill-rule="evenodd" clip-rule="evenodd" d="M18.0648 2.24444C15.2282 2.5281 13.9 3.70706 13.4191 4.55538C13.2462 4.86051 13.1187 5.19202 12.9964 5.52074C12.5531 6.71201 12.3347 8.93953 12.2073 11.2298C14.3721 15.4418 17.4017 23.6604 15.9116 25.0677C15.5461 25.4129 15.0657 25.6968 14.5195 25.9296C16.2449 26.4281 18.9775 26.7151 20.8639 26.7905C22.9366 26.8735 24.307 25.6794 25.1225 24.2409C24.397 23.5755 23.7176 22.7717 23.2323 21.8385C22.1127 19.6853 23.1605 15.6661 23.4476 15.1637C24.1113 13.5043 25.2865 12.298 26.4477 11.4742C26.4523 11.2006 26.4571 10.9231 26.4621 10.6418C26.5631 4.9869 24.8645 3.49952 24.4757 3.15907C24.4499 3.13656 24.43 3.11906 24.4166 3.1057C24.2013 2.89039 22.3711 1.8138 18.0648 2.24444Z" fill="#A4B648"/>
<path fill-rule="evenodd" clip-rule="evenodd" d="M36.7177 12.2461C37.8687 8.02013 39.355 3.8791 41.1035 1.49084C45.2248 -4.13819 48.6891 7.87695 49.1304 9.40778C49.1618 9.51651 49.1779 9.57235 49.1779 9.56521C49.1779 9.45755 51.977 20.1157 52.1923 23.6685C52.3646 26.5106 47.5271 26.9341 45.0869 26.7905C42.6825 26.6829 37.5723 26.3384 36.3666 25.8216C36.1303 25.7203 35.9142 25.6217 35.7183 25.5237C36.2012 25.2752 36.7047 24.9821 37.2279 24.6376C41.6419 21.7308 38.5198 14.8407 37.9815 13.9795C37.9705 13.9619 37.9587 13.9428 37.9461 13.9223C37.9371 13.9077 37.9277 13.8924 37.9178 13.8764C37.7127 13.5429 37.3247 12.912 36.7177 12.2461Z" fill="#6A8037"/>
<path fill-rule="evenodd" clip-rule="evenodd" d="M0.0857852 23.0221C1.48534 18.3569 4.75817 8.87621 6.65295 8.27331C8.69846 7.62244 9.63747 8.09812 10.6363 8.81162C10.9845 9.06037 11.5569 9.96423 12.2073 11.2298C12.1359 12.5126 12.0931 13.8152 12.0552 14.9663C12.0162 16.1523 11.9824 17.1775 11.9282 17.8549C11.7129 20.5464 12.2512 24.2067 13.0048 25.1757C13.2302 25.4655 13.7832 25.7168 14.5195 25.9296C12.1699 26.9308 8.60306 26.9853 7.72953 26.8979C7.58669 26.8836 7.33014 26.8826 6.99484 26.8813C4.80294 26.8726 -0.754586 26.8505 0.0857852 23.0221Z" fill="#446A37"/>
<path fill-rule="evenodd" clip-rule="evenodd" d="M25.1225 24.2409C26.4893 25.4945 28.0196 26.2568 28.7229 26.4678C29.6719 26.7525 32.1266 27.3718 35.7183 25.5237C34.6644 24.9963 34.1954 24.4855 34.3211 23.6685C34.7196 20.951 35.5444 16.5544 36.7177 12.2461C35.3958 10.7957 33.0349 9.17879 29.2612 10.1038C28.633 10.2577 27.5466 10.6946 26.4477 11.4742C26.442 11.8089 26.4366 12.1378 26.4313 12.4609C26.3475 17.5383 26.2875 21.1779 25.7085 22.9148C25.56 23.3603 25.366 23.8115 25.1225 24.2409Z" fill="#6DA13C"/>
<path d="M34.3211 23.6685C34.7196 20.951 35.5444 16.5544 36.7177 12.2461C37.3247 12.912 37.7127 13.5429 37.9178 13.8764C37.9415 13.9148 37.9627 13.9493 37.9815 13.9795C38.5198 14.8407 41.6419 21.7308 37.2279 24.6376C36.7047 24.9821 36.2012 25.2752 35.7183 25.5237C34.6644 24.9963 34.1954 24.4855 34.3211 23.6685Z" fill="#2D510D"/>
<path fill-rule="evenodd" clip-rule="evenodd" d="M25.7085 22.9148C25.56 23.3603 25.366 23.8115 25.1225 24.2409C24.397 23.5755 23.7176 22.7717 23.2323 21.8385C22.1127 19.6853 23.1605 15.6661 23.4476 15.1637C24.1113 13.5043 25.2865 12.298 26.4477 11.4742C26.442 11.8089 26.4366 12.1378 26.4313 12.4609C26.3475 17.5383 26.2875 21.1779 25.7085 22.9148Z" fill="#467311"/>
<path d="M14.5195 25.9296C13.7832 25.7168 13.2302 25.4655 13.0048 25.1757C12.2512 24.2067 11.7129 20.5464 11.9282 17.8549C11.9824 17.1775 12.0162 16.1523 12.0552 14.9663C12.0931 13.8152 12.1359 12.5126 12.2073 11.2298C14.3721 15.4418 17.4017 23.6604 15.9116 25.0677C15.5461 25.4129 15.0657 25.6968 14.5195 25.9296Z" fill="#2C4C10"/>
</svg>
