<svg xmlns="http://www.w3.org/2000/svg" width="54" height="54" viewBox="0 0 54 54">
  <g id="그룹_13" data-name="그룹 13" transform="translate(-15064 -12648)">
    <rect id="사각형_70" data-name="사각형 70" width="54" height="54" transform="translate(15064 12648)" fill="none"/>
    <path id="패스_9" data-name="패스 9" d="M372.567,175.873v2.94a.851.851,0,0,1-.126.128h-3.827a6.484,6.484,0,0,1,2.568,3.236c.657,2.512-1.124,4.475-3.131,5.61-4.3,2.432-12.177,2.365-16.251-.546-2.39-1.707-3.317-4.417-1.268-6.892a11.784,11.784,0,0,1,1.6-1.408h-4.29v-3.068Zm-17.888,5.482a2.2,2.2,0,0,0,.281,3.366c2.225,1.782,7.672,1.8,10.094.455,1.652-.92,2.36-2.61.741-4.018-2.231-1.94-9.032-1.99-11.116.2" transform="translate(14745.433 12499.124)" fill="#021a63"/>
    <path id="패스_10" data-name="패스 10" d="M370.8,0V2.471h9.589V5.624h-3.028l.573.826c1.312,2.171.311,4.276-1.554,5.636-3.016,2.2-8.11,2.486-11.637,1.677-3.823-.876-8.228-3.947-4.877-8.139h-3.028V2.471h9.5V0Zm-3.635,5.648c-1.668.15-4.857,1.231-3.914,3.49.82,1.965,4.9,2.226,6.666,2.025,1.668-.19,5.038-1.2,4.01-3.552-.887-2.028-4.924-2.128-6.762-1.962" transform="translate(14737.194 12660)" fill="#021a63"/>
    <path id="패스_11" data-name="패스 11" d="M18.084,29.979v3.068H11.776a11.386,11.386,0,0,0,1.983,6.3A8.148,8.148,0,0,0,15.9,41.263c.563.371,1.176.633,1.736.969.069.041.14-.028.107.144l-1.888,2.178c-.193.17-.434.028-.634-.049a12.337,12.337,0,0,1-5.569-4.925c-.136-.251-.161-.6-.4-.74a.68.68,0,0,1-.066.317,12.225,12.225,0,0,1-3.608,3.673,15.834,15.834,0,0,1-3.52,1.863L0,42.25a12.084,12.084,0,0,0,5.082-3.671A10.541,10.541,0,0,0,6.9,33.047H.589V29.979Z" transform="translate(15064 12632.577)" fill="#021a63"/>
    <path id="패스_12" data-name="패스 12" d="M43.438,218.843V224.3H60.176v3.068H39.863c-.277,0-.883-.657-.883-.895v-7.626Z" transform="translate(15028.3 12459.818)" fill="#021a63"/>
    <rect id="사각형_69" data-name="사각형 69" width="4.458" height="17.383" transform="translate(15084.02 12662.13)" fill="#021a63"/>
  </g>
</svg>
