<svg xmlns="http://www.w3.org/2000/svg" width="56" height="56" viewBox="0 0 56 56">
  <g id="favicon" transform="translate(-2306.758 -6207.758)">
    <g id="그룹_19" data-name="그룹 19" transform="translate(2306.758 6207.758)">
      <rect id="사각형_72" data-name="사각형 72" width="56" height="56" rx="6" fill="#153791"/>
      <g id="그룹_18" data-name="그룹 18" transform="translate(5.522 16.232)">
        <path id="패스_13" data-name="패스 13" d="M368.426,175.873v2.415a.7.7,0,0,1-.105.105h-3.186a5.34,5.34,0,0,1,2.138,2.658c.547,2.064-.936,3.677-2.607,4.609-3.579,2-10.137,1.943-13.53-.449-1.99-1.4-2.762-3.629-1.056-5.662a9.771,9.771,0,0,1,1.329-1.156h-3.571v-2.52Zm-14.893,4.5a1.789,1.789,0,0,0,.234,2.766c1.852,1.464,6.387,1.481,8.4.374,1.376-.755,1.965-2.144.617-3.3-1.857-1.594-7.52-1.635-9.254.162" transform="translate(-323.469 -163.552)" fill="#fff"/>
        <path id="패스_14" data-name="패스 14" d="M368.457,0V2.03h7.983v2.59h-2.521l.477.679c1.093,1.784.259,3.513-1.294,4.63-2.511,1.807-6.751,2.042-9.688,1.378-3.183-.72-6.85-3.242-4.06-6.687h-2.521V2.03h7.913V0Zm-3.026,4.641c-1.388.124-4.044,1.011-3.259,2.868.683,1.614,4.082,1.829,5.55,1.663,1.388-.157,4.194-.99,3.339-2.919-.739-1.666-4.1-1.749-5.63-1.612" transform="translate(-331.834)" fill="#fff"/>
        <path id="패스_15" data-name="패스 15" d="M15.056,29.979V32.5H9.8a9.269,9.269,0,0,0,1.651,5.175A6.754,6.754,0,0,0,13.24,39.25c.469.3.979.52,1.446.8.057.034.117-.023.089.119L13.2,41.954c-.161.14-.362.023-.528-.04A10.229,10.229,0,0,1,8.04,37.868c-.113-.206-.134-.492-.336-.608a.552.552,0,0,1-.055.26,10.109,10.109,0,0,1-3,3.018,13.243,13.243,0,0,1-2.931,1.531L0,40.061a10.056,10.056,0,0,0,4.231-3.016A8.584,8.584,0,0,0,5.742,32.5H.49v-2.52Z" transform="translate(0 -27.879)" fill="#fff"/>
        <path id="패스_16" data-name="패스 16" d="M42.691,218.843v4.481H56.627v2.52H39.715c-.23,0-.735-.54-.735-.735v-6.266Z" transform="translate(-36.249 -203.511)" fill="#fff"/>
        <rect id="사각형_71" data-name="사각형 71" width="3.711" height="14.282" transform="translate(16.666 1.75)" fill="#fff"/>
      </g>
    </g>
  </g>
</svg>
